<svg width="192" height="192" viewBox="0 0 192 192" fill="none" xmlns="http://www.w3.org/2000/svg">
<path d="M25.1661 119.999C25.5891 128.048 26.5071 136.063 27.9149 143.999C29.7268 153.724 32.3223 161.627 35.8377 167.999C45.9487 186.327 63.6694 192 92.2365 192C120.804 192 138.523 186.327 148.633 167.999C152.149 161.627 154.743 153.724 156.555 143.998C157.963 136.062 158.881 128.047 159.304 119.999C159.742 112.708 159.949 104.73 159.949 95.9989C159.949 87.2694 159.741 79.2906 159.3 71.9981C158.873 63.9488 157.95 55.9336 156.534 47.9984C154.712 38.279 152.105 30.3742 148.572 23.9976C138.451 5.73102 120.748 -1.71354e-06 92.2365 -2.95982e-06C63.7252 -4.20609e-06 46.0205 5.73102 35.8978 23.9997C32.3663 30.3753 29.7579 38.2801 27.9364 48.0005C26.5202 55.9357 25.5965 63.9509 25.1704 72.0003C24.7286 79.2917 24.5207 87.2716 24.5207 96C24.5207 104.731 24.7276 112.709 25.1661 120.001L25.1661 119.999Z" fill="#E9F6FC"/>
<mask id="mask0_11503_2243" style="mask-type:alpha" maskUnits="userSpaceOnUse" x="24" y="0" width="136" height="192">
<path d="M25.1661 119.999C25.5891 128.048 26.5071 136.063 27.9149 143.999C29.7268 153.724 32.3223 161.627 35.8377 167.999C45.9487 186.327 63.6694 192 92.2365 192C120.804 192 138.523 186.327 148.633 167.999C152.149 161.627 154.743 153.724 156.555 143.998C157.963 136.062 158.881 128.047 159.304 119.999C159.742 112.708 159.949 104.73 159.949 95.9989C159.949 87.2694 159.741 79.2906 159.3 71.9981C158.873 63.9488 157.95 55.9336 156.534 47.9984C154.712 38.279 152.105 30.3742 148.572 23.9976C138.451 5.73102 120.748 -1.71354e-06 92.2365 -2.95982e-06C63.7252 -4.20609e-06 46.0205 5.73102 35.8978 23.9997C32.3663 30.3753 29.7579 38.2801 27.9364 48.0005C26.5202 55.9357 25.5965 63.9509 25.1704 72.0003C24.7286 79.2917 24.5207 87.2716 24.5207 96C24.5207 104.731 24.7276 112.709 25.1661 120.001L25.1661 119.999Z" fill="#E9F6FC"/>
</mask>
<g mask="url(#mask0_11503_2243)">
<path d="M25.2708 154.286H159.842V192H25.2708V154.286Z" fill="#CFCFCF"/>
<path d="M28.7505 87.1135H35.6218V181.568H28.7505V87.1135Z" fill="#878787"/>
<path d="M28.7505 136.133L35.6218 89.3307H28.7505V136.133Z" fill="#B9B9B9"/>
<path d="M14.2037 87.1135H190.624C191.212 87.1135 191.776 87.3473 192.192 87.7633C192.609 88.1794 192.842 88.7437 192.842 89.3321V94.6634H11.9851V89.3321C11.9851 88.7437 12.2189 88.1794 12.6349 87.7633C13.051 87.3473 13.6153 87.1135 14.2037 87.1135Z" fill="#939393"/>
</g>
<path d="M136.29 56.9746H149.414V87.0434H136.29V56.9746Z" fill="#545454"/>
<path d="M116.36 56.4456V25.256C116.36 24.5064 116.657 23.7875 117.187 23.2574C117.718 22.7274 118.436 22.4296 119.186 22.4296H167.22C167.783 22.4296 168.324 22.6534 168.722 23.0518C169.12 23.4501 169.344 23.9905 169.344 24.5539V56.4459C169.344 57.0093 169.12 57.5495 168.722 57.9478C168.323 58.3461 167.783 58.5699 167.22 58.5699H118.484C117.92 58.5698 117.38 58.346 116.982 57.9477C116.584 57.5494 116.36 57.0092 116.36 56.4459V56.4456Z" fill="#CFCFCF"/>
<path d="M116.36 53.8503V24.6952C116.36 24.3976 116.418 24.1029 116.532 23.8279C116.646 23.5529 116.813 23.303 117.023 23.0925C117.234 22.882 117.484 22.715 117.759 22.6011C118.034 22.4872 118.328 22.4286 118.626 22.4286H167.078C167.376 22.4286 167.671 22.4872 167.946 22.6011C168.221 22.715 168.47 22.882 168.681 23.0925C168.891 23.303 169.058 23.5529 169.172 23.8279C169.286 24.1029 169.345 24.3976 169.344 24.6952V53.8503H116.36Z" fill="#545454"/>
<path d="M117.944 52.2765V23.9763H167.793V52.2765H117.944Z" fill="#F7F7F7"/>
<path d="M142.852 22.8295C142.894 22.8295 142.936 22.8379 142.975 22.8541C143.014 22.8704 143.049 22.8941 143.079 22.9241C143.109 22.954 143.133 22.9895 143.149 23.0286C143.165 23.0677 143.173 23.1096 143.173 23.1519C143.173 23.2373 143.139 23.3191 143.079 23.3795C143.019 23.4399 142.937 23.4739 142.852 23.474C142.766 23.474 142.684 23.4401 142.624 23.3798C142.564 23.3194 142.53 23.2376 142.53 23.1523C142.53 23.0669 142.563 22.9847 142.624 22.9243C142.684 22.8639 142.766 22.8299 142.851 22.8298L142.852 22.8295Z" fill="#CFCFCF"/>
<path d="M114.56 75.1387H152.019V87.1353H114.56V75.1387Z" fill="#FFCE7F"/>
<path d="M152.016 75.1387H114.558V76.2986H114.559V87.1353H117.447V87.1349H149.125V87.1353H152.017V75.1387H152.016ZM117.447 85.1275V77.3487H149.124V85.1275H117.447Z" fill="#FFE2B2"/>
<path d="M149.124 83.2775H138.347V75.1387H149.124V83.2775Z" fill="#EDEDED"/>
<path d="M59.459 55.6445H22.0001V87.1362H59.459V55.6445Z" fill="#FFCE7F"/>
<path d="M22.0009 55.6445H59.459V87.1362H56.5711V87.1347H24.8928V87.1362H22.0005V55.6445H22.0009ZM56.5708 84.0901V58.6892H24.8931V84.0901H56.5708Z" fill="#FFE2B2"/>
<path d="M24.8923 66.9902H35.6694V55.5985H24.8923V66.9902Z" fill="#EDEDED"/>
<path d="M30.281 63.2886H25.6153V63.3747H30.281V63.2886ZM30.281 63.8562H25.6153V63.9423H30.281V63.8562ZM30.281 64.4237H25.6153V64.5099H30.281V64.4237ZM30.281 64.9913H25.6153V65.0775H30.281V64.9913ZM30.281 65.5585H25.6153V65.6447H30.281V65.5585ZM30.281 66.1261H25.6153V66.2123H30.281V66.1261Z" fill="#767676"/>
<path d="M91.6604 95.736L97.8423 129.22C98.1541 130.907 98.0675 132.644 97.5896 134.293C97.1117 135.941 96.2556 137.455 95.0894 138.714L66.2115 168.008C66.0653 168.156 65.8805 168.26 65.6781 168.309L63.0529 168.947L55.5095 165.424V162.032C55.5095 161.727 55.6099 161.429 55.7952 161.186L80.0346 129.413L71.2021 104.761L67.2457 94.7944L91.6604 95.736Z" fill="#00243F"/>
<path d="M67.2456 94.7938L71.202 104.754L75.7362 134.391L75.8349 177.149C75.834 177.375 75.8856 177.599 75.9855 177.802C76.0853 178.005 76.2309 178.183 76.4107 178.321L80.7106 181.087L86.7159 180.358L88.8674 177.413C88.9265 177.292 88.9614 177.161 88.9701 177.027L91.8858 133.409L91.6567 95.7358L67.2456 94.7938Z" fill="#0074B0"/>
<path d="M71.2111 186.338C71.2111 186.338 72.9488 185.067 72.9165 183.65C72.8841 182.233 71.9009 180.976 71.2854 180.411C70.6699 179.847 68.9213 178.42 68.9213 178.42C68.0077 178.909 67.1539 179.502 66.3769 180.188C65.8948 180.69 65.4593 181.235 65.0761 181.816L64.4683 182.438L70.6049 186.613L71.2111 186.338Z" fill="#545454"/>
<path d="M68.8782 178.447L67.2754 176.581C67.1804 176.568 67.0838 176.588 67.0014 176.637C66.9191 176.687 66.8558 176.762 66.822 176.852C66.7865 176.958 66.7125 177.046 66.6148 177.1C66.517 177.154 66.4026 177.169 66.2942 177.143C66.2025 177.134 66.1172 177.092 66.0547 177.025C65.9922 176.957 65.9568 176.869 65.9555 176.777C65.9416 176.666 65.9661 176.555 66.0248 176.46C66.0835 176.366 66.1729 176.295 66.278 176.258C66.5121 176.17 66.7386 176.064 66.9553 175.939L66.1831 174.219C65.9038 174.294 65.6419 174.354 65.5595 174.717C65.5417 174.775 65.5101 174.829 65.4675 174.873C65.4248 174.917 65.3723 174.95 65.3143 174.969C65.2563 174.989 65.1945 174.994 65.134 174.985C65.0735 174.975 65.0162 174.952 64.9666 174.916C64.9104 174.888 64.8609 174.848 64.8215 174.799C64.782 174.75 64.7536 174.693 64.7381 174.633C64.7226 174.572 64.7204 174.508 64.7317 174.446C64.7429 174.385 64.7674 174.326 64.8034 174.274C64.9303 174.094 65.1059 173.953 65.3097 173.869C65.5241 173.814 65.7234 173.712 65.8929 173.57C65.7273 173.086 65.5278 172.613 65.296 172.156C64.9974 172.191 64.7156 172.313 64.4853 172.506C64.4134 172.579 64.3168 172.621 64.215 172.625C64.1131 172.629 64.0134 172.595 63.9357 172.529C63.8483 172.476 63.7833 172.393 63.753 172.296C63.7228 172.198 63.7294 172.093 63.7717 172C63.8038 171.907 63.8689 171.83 63.9545 171.782C64.0401 171.735 64.1402 171.721 64.2356 171.743C64.3796 171.755 64.5246 171.737 64.6613 171.691C64.7981 171.644 64.9237 171.57 65.0301 171.472L64.3916 169.688C64.0895 169.763 63.8089 169.907 63.572 170.11C63.4985 170.171 63.4072 170.207 63.3115 170.213C63.2159 170.218 63.121 170.193 63.0409 170.14C62.9608 170.088 62.8998 170.011 62.8668 169.921C62.8339 169.831 62.8307 169.733 62.8579 169.641C62.8745 169.55 62.9238 169.468 62.9965 169.41C63.0692 169.353 63.1603 169.324 63.2528 169.33C63.6239 169.308 63.9829 169.19 64.2946 168.987C64.234 168.799 64.1327 168.627 63.9979 168.482C63.8631 168.337 63.6981 168.224 63.5146 168.151C63.0982 167.97 62.6698 167.819 62.2323 167.698C60.4015 167.099 58.7428 166.065 57.3978 164.686C57.1006 164.343 56.8229 163.984 56.5661 163.61C56.4965 163.524 56.4195 163.444 56.3358 163.371C56.242 163.26 56.1265 163.169 55.9963 163.104C55.8661 163.04 55.7241 163.002 55.5789 162.995C55.4338 162.987 55.2886 163.009 55.1523 163.06C55.0161 163.11 54.8917 163.189 54.7868 163.289C54.092 163.839 53.4358 164.437 52.8227 165.077C51.9024 165.979 51.0318 166.931 50.2149 167.929C50.0051 168.174 49.829 168.446 49.6912 168.738C51.9023 170.347 54.1128 171.957 56.3228 173.567C57.0577 174.1 57.7357 174.707 58.3459 175.379C58.8737 175.965 59.2927 176.636 59.8169 177.222C60.5091 177.967 61.2513 178.665 62.0384 179.31C63.0972 180.211 64.1612 181.105 65.2726 181.942C65.5324 181.584 65.8101 181.237 66.0485 180.865C66.4684 180.163 67.0689 179.587 67.7874 179.195C68.0905 179.038 68.3811 178.857 68.6797 178.691C68.7816 178.635 68.8689 178.575 68.8782 178.447Z" fill="#FFAC26"/>
<path d="M64.2946 168.988C63.9829 169.19 63.6238 169.308 63.2528 169.329C63.1603 169.324 63.0691 169.353 62.9964 169.41C62.9237 169.468 62.8744 169.55 62.8579 169.641C62.8308 169.733 62.8339 169.831 62.8668 169.921C62.8998 170.011 62.9608 170.088 63.0409 170.14C63.121 170.193 63.2159 170.218 63.3116 170.213C63.4072 170.207 63.4985 170.171 63.572 170.109C63.8088 169.907 64.0892 169.763 64.3912 169.688C64.4308 169.658 64.4663 169.612 64.5108 169.601C64.807 169.528 64.8018 169.377 64.6983 169.121C64.5969 168.868 64.453 168.955 64.2942 168.988H64.2946ZM65.8929 173.57C65.7234 173.712 65.5241 173.814 65.3097 173.869C65.1059 173.953 64.9303 174.094 64.8034 174.274C64.7674 174.326 64.7429 174.384 64.7317 174.446C64.7204 174.508 64.7226 174.572 64.7381 174.632C64.7536 174.693 64.782 174.75 64.8215 174.799C64.8609 174.848 64.9104 174.888 64.9666 174.916C65.0162 174.952 65.0735 174.975 65.134 174.985C65.1945 174.994 65.2563 174.988 65.3143 174.969C65.3723 174.95 65.4248 174.917 65.4675 174.873C65.5101 174.829 65.5417 174.775 65.5595 174.717C65.6419 174.354 65.9038 174.294 66.1831 174.219C66.3467 174.105 66.6126 174.07 66.4312 173.746C66.3229 173.553 66.2615 173.397 66.0287 173.583C65.9753 173.626 65.9365 173.591 65.8929 173.57ZM65.0301 171.472C64.9237 171.57 64.7981 171.644 64.6613 171.691C64.5246 171.737 64.3796 171.755 64.2356 171.743C64.1402 171.721 64.0401 171.735 63.9545 171.782C63.8689 171.83 63.8038 171.907 63.7717 172C63.7294 172.093 63.7228 172.198 63.753 172.295C63.7833 172.393 63.8483 172.476 63.9357 172.529C64.0134 172.595 64.1131 172.629 64.215 172.625C64.3168 172.621 64.4134 172.579 64.4853 172.506C64.7157 172.313 64.9977 172.191 65.2964 172.156C65.3126 172.071 65.3958 172.052 65.4516 172.035C65.7058 171.962 65.6537 171.823 65.5833 171.631C65.4981 171.401 65.393 171.327 65.1736 171.464C65.138 171.486 65.0782 171.47 65.0301 171.472ZM66.9553 175.939C66.7386 176.063 66.5121 176.17 66.278 176.258C66.1729 176.294 66.0834 176.366 66.0247 176.46C65.966 176.554 65.9416 176.666 65.9555 176.777C65.9568 176.869 65.9922 176.957 66.0547 177.025C66.1172 177.092 66.2025 177.134 66.2942 177.143C66.4026 177.169 66.517 177.154 66.6148 177.1C66.7125 177.046 66.7865 176.958 66.822 176.852C66.8558 176.762 66.9191 176.686 67.0014 176.637C67.0838 176.588 67.1804 176.568 67.2754 176.581C67.2822 176.547 67.2994 176.516 67.3248 176.492C67.3501 176.468 67.3823 176.452 67.4168 176.448C67.6423 176.395 67.627 176.289 67.5712 176.084C67.4419 175.608 67.1663 175.949 66.9553 175.939Z" fill="black"/>
<path d="M68.0133 187.213L68.1062 187.219C68.0944 187.206 68.0782 187.199 68.061 187.198C68.0438 187.196 68.0267 187.202 68.0133 187.213ZM65.0397 185.129L65.1298 185.122C65.1167 185.112 65.1 185.106 65.0832 185.108C65.0664 185.109 65.0506 185.117 65.0393 185.129H65.0397ZM68.6283 187.878L68.6118 187.962C68.6185 187.958 68.6243 187.952 68.6289 187.945C68.6334 187.939 68.6366 187.931 68.6382 187.924C68.6397 187.916 68.6397 187.908 68.6381 187.9C68.6365 187.892 68.6333 187.885 68.6287 187.878H68.6283Z" fill="#FF9E00"/>
<path d="M53.9161 170.5C53.9161 170.5 55.4837 169.144 54.9216 167.283C54.627 166.219 54.0018 165.276 53.1361 164.59C53.1361 164.59 50.869 166.947 50.4342 167.385C49.9993 167.823 48.8835 169.276 48.8835 169.276L52.8076 171.784L53.9161 170.5Z" fill="#545454"/>
<path d="M65.2727 181.942C64.1614 181.106 63.097 180.212 62.0386 179.31C61.2514 178.665 60.509 177.968 59.8167 177.222C59.2929 176.636 58.8739 175.965 58.3457 175.379C57.7356 174.708 57.0577 174.101 56.323 173.568C54.116 171.953 51.9054 170.343 49.6913 168.738C49.484 168.553 49.3519 168.579 49.1797 168.824C48.3687 169.977 47.5325 171.112 46.7053 172.253L46.6992 172.311C46.9227 172.508 47.1588 172.691 47.406 172.858C47.5612 172.984 47.6327 172.818 47.7398 172.773C47.7618 172.744 47.7915 172.722 47.8255 172.71C47.8595 172.697 47.8964 172.695 47.9318 172.702L48.0563 172.687L48.1541 172.697H48.1553C48.2574 172.696 48.3569 172.729 48.4378 172.791C48.5188 172.854 48.5765 172.941 48.6018 173.04C48.6065 173.041 48.6109 173.044 48.6146 173.047C48.6184 173.05 48.6215 173.054 48.6237 173.058C48.6259 173.062 48.6273 173.067 48.6276 173.072C48.628 173.076 48.6273 173.081 48.6257 173.086C48.6418 173.099 48.6534 173.117 48.659 173.138C48.6646 173.158 48.6638 173.179 48.6568 173.199L48.6608 173.26L48.6568 173.36C48.653 173.474 48.6192 173.586 48.5586 173.683C49.0678 174.049 49.554 174.447 50.091 174.774C50.1768 174.648 50.3075 174.56 50.4564 174.527C50.6053 174.494 50.7612 174.519 50.892 174.598C51.0286 174.668 51.1317 174.79 51.1789 174.936C51.226 175.082 51.2134 175.241 51.1438 175.378C51.09 175.523 51.1438 175.578 51.24 175.648C51.6166 175.919 51.9961 176.187 52.3646 176.47C52.3907 176.499 52.4225 176.522 52.4581 176.538C52.4937 176.554 52.5323 176.562 52.5712 176.561C52.6101 176.561 52.6486 176.553 52.684 176.537C52.7195 176.521 52.7511 176.497 52.7768 176.468C52.8759 176.386 53.0006 176.343 53.1289 176.344C53.2572 176.346 53.3808 176.392 53.478 176.476C53.5849 176.537 53.6666 176.635 53.7085 176.751C53.7504 176.867 53.7498 176.994 53.7067 177.109C53.6041 177.362 53.71 177.471 53.8955 177.581C53.973 177.628 54.043 177.687 54.1165 177.741C54.5247 178.037 54.5243 178.037 54.8278 177.619L55.5528 176.623C55.8407 177.271 56.1705 177.899 56.54 178.504C57.1509 179.54 57.9451 180.457 58.884 181.21C58.9995 181.297 59.0929 181.382 59.2465 181.244C59.3451 181.147 59.4769 181.091 59.6153 181.086C59.7538 181.082 59.8888 181.13 59.9933 181.221C60.11 181.296 60.1955 181.41 60.2334 181.544C60.2713 181.677 60.259 181.819 60.199 181.944C60.1842 181.969 60.175 181.997 60.1718 182.026C60.1686 182.055 60.1715 182.085 60.1804 182.112C60.1894 182.14 60.204 182.166 60.2235 182.188C60.243 182.209 60.2669 182.227 60.2935 182.239C60.7623 182.572 61.2263 182.913 61.6902 183.253C61.7957 183.331 61.8704 183.372 61.9973 183.257C62.0951 183.159 62.226 183.101 62.3643 183.095C62.5025 183.088 62.6383 183.133 62.745 183.222C62.8626 183.294 62.9495 183.408 62.9889 183.54C63.0284 183.673 63.0178 183.815 62.9592 183.94C62.8904 184.107 62.947 184.172 63.0658 184.256C63.4364 184.519 63.8098 184.778 64.1663 185.06C64.4209 185.261 64.6532 185.451 64.9531 185.145C64.9697 185.128 65.0105 185.134 65.0396 185.13C65.0508 185.117 65.0665 185.11 65.0834 185.108C65.1002 185.107 65.117 185.112 65.1301 185.123L65.2554 185.132C65.3497 185.132 65.4415 185.162 65.5182 185.217C65.5948 185.272 65.6524 185.349 65.6829 185.438C65.7073 185.464 65.7258 185.495 65.7369 185.529C65.7481 185.562 65.7518 185.598 65.7476 185.634L65.7533 185.726V185.724C65.7679 185.745 65.7744 185.771 65.7714 185.797C65.7685 185.823 65.7563 185.847 65.7371 185.865C65.739 185.867 65.7403 185.87 65.741 185.873C65.7417 185.875 65.7418 185.878 65.7412 185.881C65.7405 185.884 65.7392 185.886 65.7374 185.889C65.7356 185.891 65.7333 185.893 65.7306 185.894C65.7464 185.984 65.6813 186.045 65.6498 186.117L67.5047 187.465C67.6058 187.365 67.685 187.231 67.8551 187.237L68.0135 187.213C68.027 187.202 68.044 187.197 68.0613 187.198C68.0785 187.199 68.0946 187.207 68.1065 187.22C68.1116 187.215 68.1182 187.213 68.125 187.213C68.1318 187.213 68.1382 187.216 68.1428 187.221C68.2371 187.226 68.3278 187.259 68.4028 187.316C68.4778 187.374 68.5336 187.452 68.5627 187.542C68.587 187.57 68.6051 187.602 68.6159 187.637C68.6266 187.672 68.6297 187.709 68.625 187.745C68.64 187.764 68.6485 187.786 68.6492 187.81C68.65 187.834 68.6429 187.857 68.629 187.877L68.6064 187.878L68.629 187.878C68.6336 187.885 68.6368 187.892 68.6384 187.9C68.64 187.908 68.64 187.916 68.6384 187.924C68.6368 187.932 68.6337 187.939 68.6291 187.946C68.6246 187.952 68.6188 187.958 68.612 187.962C68.5025 188.171 68.5809 188.299 68.7741 188.415C68.966 188.542 69.1508 188.68 69.3277 188.827L69.5492 188.953L69.6122 188.922C69.6487 188.845 69.7097 188.782 69.7856 188.744L70.0253 188.475C70.0784 188.362 70.1616 188.266 70.2657 188.197L70.7466 187.571L70.8 187.457C70.8092 187.371 70.8519 187.292 70.9188 187.237L70.9968 187.077L71.0873 186.765L71.1055 186.672L71.1059 186.571L71.0756 186.444L70.9915 186.287L70.9754 186.276L70.9741 186.256L70.9256 186.221C69.0093 184.837 67.125 183.411 65.2727 181.942Z" fill="black"/>
<path d="M103.979 188.875C103.979 188.875 104.638 186.822 103.776 185.694C102.914 184.565 101.378 184.127 100.547 184.033C99.7161 183.939 97.4595 183.813 97.4595 183.813C97.0079 184.747 96.6661 185.731 96.4411 186.744C96.3465 187.434 96.315 188.132 96.347 188.828L96.2217 189.69L103.65 189.455L103.979 188.875Z" fill="#545454"/>
<path d="M97.4405 183.861L95.0433 183.294C94.9588 183.34 94.8923 183.413 94.8545 183.501C94.8168 183.589 94.8101 183.688 94.8355 183.78C94.8692 183.887 94.8615 184.002 94.8141 184.104C94.7668 184.205 94.6831 184.285 94.5797 184.327C94.5005 184.374 94.4067 184.391 94.3162 184.373C94.2258 184.355 94.1452 184.304 94.0899 184.23C94.0135 184.149 93.9674 184.044 93.9593 183.933C93.9512 183.822 93.9816 183.711 94.0455 183.62C94.1832 183.411 94.3036 183.191 94.4056 182.962L92.7664 182.025C92.5846 182.25 92.4088 182.453 92.5551 182.796C92.5751 182.853 92.581 182.915 92.5723 182.976C92.5636 183.036 92.5406 183.094 92.5051 183.144C92.4697 183.194 92.4228 183.235 92.3684 183.263C92.3141 183.291 92.2538 183.306 92.1926 183.306C92.1305 183.316 92.067 183.313 92.0063 183.297C91.9456 183.281 91.8891 183.251 91.8407 183.211C91.7923 183.171 91.7531 183.121 91.7258 183.064C91.6985 183.008 91.6838 182.946 91.6826 182.883C91.6789 182.662 91.7382 182.445 91.8535 182.256C91.9951 182.086 92.0965 181.886 92.1501 181.671C91.7302 181.376 91.2902 181.111 90.8331 180.877C90.6121 181.082 90.4558 181.346 90.3833 181.639C90.3675 181.739 90.3144 181.831 90.2344 181.894C90.1544 181.958 90.0535 181.989 89.9517 181.981C89.8498 181.99 89.7483 181.961 89.6664 181.899C89.5844 181.838 89.5278 181.749 89.5072 181.649C89.4786 181.555 89.4857 181.454 89.527 181.365C89.5683 181.277 89.641 181.206 89.731 181.167C89.8549 181.093 89.9618 180.993 90.045 180.875C90.1282 180.756 90.1859 180.622 90.2144 180.48L88.6464 179.412C88.4462 179.651 88.3041 179.933 88.2313 180.236C88.2082 180.329 88.1556 180.413 88.0814 180.474C88.0072 180.534 87.9154 180.57 87.8195 180.575C87.7236 180.579 87.6288 180.553 87.5491 180.499C87.4694 180.446 87.4091 180.368 87.377 180.278C87.3368 180.194 87.3284 180.099 87.3534 180.009C87.3785 179.92 87.4353 179.843 87.5132 179.793C87.8009 179.556 88.022 179.249 88.155 178.902C87.9952 178.785 87.8116 178.705 87.6174 178.667C87.4231 178.63 87.2229 178.635 87.0311 178.684C86.5875 178.783 86.1513 178.913 85.7258 179.073C83.8903 179.666 81.9385 179.807 80.0369 179.483C79.5942 179.381 79.1576 179.253 78.7292 179.102C78.622 179.073 78.5124 179.054 78.4018 179.044C78.2605 179.009 78.1135 179.004 77.9699 179.028C77.8264 179.053 77.6894 179.106 77.5673 179.186C77.4453 179.265 77.3408 179.368 77.2603 179.49C77.1798 179.611 77.125 179.747 77.0993 179.891C76.8611 180.746 76.6818 181.616 76.5627 182.495C76.3494 183.768 76.2056 185.052 76.1319 186.341C76.1064 186.663 76.1241 186.987 76.1844 187.305C78.9228 187.305 81.6611 187.301 84.3994 187.308C85.3082 187.306 86.2148 187.398 87.1046 187.582C87.8773 187.745 88.612 188.042 89.3815 188.208C90.3814 188.403 91.3935 188.531 92.4108 188.589C93.7994 188.695 95.1875 188.792 96.5805 188.815C96.5797 188.372 96.6007 187.927 96.5741 187.485C96.5006 186.67 96.6471 185.849 96.9984 185.109C97.1512 184.803 97.2793 184.485 97.4235 184.175C97.4546 184.129 97.4725 184.076 97.4755 184.02C97.4785 183.965 97.4664 183.91 97.4405 183.861Z" fill="#FFAC26"/>
<path d="M88.155 178.902C88.0221 179.25 87.8009 179.557 87.5133 179.793C87.4354 179.843 87.3786 179.92 87.3535 180.009C87.3285 180.099 87.3368 180.194 87.3771 180.278C87.4091 180.368 87.4695 180.446 87.5492 180.499C87.6289 180.553 87.7237 180.579 87.8196 180.575C87.9155 180.57 88.0073 180.535 88.0815 180.474C88.1557 180.413 88.2083 180.33 88.2314 180.236C88.3041 179.933 88.446 179.651 88.6461 179.412C88.6525 179.363 88.668 179.315 88.6917 179.271C88.8889 179.037 88.7956 178.919 88.5608 178.772C88.33 178.628 88.2642 178.782 88.155 178.902ZM92.1502 181.671C92.0966 181.886 91.9952 182.086 91.8536 182.256C91.7383 182.445 91.679 182.662 91.6826 182.883C91.6839 182.946 91.6986 183.008 91.7259 183.064C91.7532 183.121 91.7924 183.171 91.8408 183.211C91.8892 183.252 91.9457 183.281 92.0064 183.297C92.0671 183.314 92.1306 183.317 92.1926 183.306C92.2539 183.306 92.3142 183.291 92.3685 183.263C92.4229 183.235 92.4697 183.194 92.5052 183.144C92.5407 183.094 92.5637 183.037 92.5724 182.976C92.5811 182.915 92.5752 182.854 92.5551 182.796C92.4089 182.454 92.5847 182.25 92.7665 182.025C92.8328 181.837 93.0268 181.651 92.6897 181.497C92.4877 181.404 92.3462 181.313 92.2674 181.602C92.2496 181.668 92.1971 181.662 92.1502 181.671ZM90.2145 180.48C90.186 180.622 90.1284 180.756 90.0452 180.875C89.962 180.993 89.855 181.093 89.7311 181.168C89.641 181.206 89.5682 181.277 89.5268 181.366C89.4855 181.454 89.4783 181.555 89.5068 181.649C89.5275 181.75 89.5842 181.839 89.6662 181.9C89.7482 181.961 89.8499 181.99 89.9518 181.981C90.0536 181.989 90.1545 181.958 90.2345 181.894C90.3145 181.831 90.3676 181.74 90.3834 181.639C90.4559 181.347 90.6122 181.082 90.8332 180.877C90.7968 180.799 90.8526 180.734 90.8881 180.688C91.0506 180.479 90.9265 180.397 90.7568 180.284C90.5515 180.147 90.4238 180.15 90.3264 180.39C90.3102 180.428 90.2529 180.45 90.2145 180.48ZM94.4056 182.963C94.3037 183.191 94.1833 183.411 94.0456 183.62C93.9817 183.712 93.9513 183.822 93.9594 183.933C93.9675 184.044 94.0136 184.149 94.09 184.23C94.1453 184.304 94.2259 184.355 94.3163 184.373C94.4067 184.391 94.5006 184.375 94.5798 184.327C94.6832 184.285 94.7669 184.205 94.8142 184.104C94.8616 184.003 94.8692 183.887 94.8356 183.781C94.8102 183.688 94.8169 183.59 94.8546 183.501C94.8923 183.413 94.9589 183.34 95.0433 183.294C95.0286 183.263 95.0242 183.227 95.0307 183.193C95.0372 183.158 95.0544 183.127 95.0797 183.103C95.2305 182.927 95.1557 182.851 94.99 182.718C94.6045 182.408 94.583 182.847 94.4056 182.963Z" fill="black"/>
<path d="M101.905 191.467L101.984 191.418C101.967 191.414 101.95 191.418 101.935 191.427C101.92 191.436 101.909 191.451 101.905 191.467ZM98.2698 191.533L98.3389 191.473C98.3219 191.473 98.3053 191.478 98.2924 191.489C98.2795 191.5 98.2714 191.516 98.2698 191.533ZM102.795 191.643L102.831 191.721C102.834 191.714 102.836 191.706 102.835 191.698C102.835 191.69 102.833 191.682 102.83 191.674C102.827 191.667 102.822 191.661 102.816 191.655C102.81 191.65 102.803 191.646 102.795 191.643Z" fill="#FF9E00"/>
<path d="M80.6434 186.242C80.6434 186.242 81.1138 184.221 79.562 183.046C78.6963 182.357 77.6344 181.962 76.5294 181.917C76.5294 181.917 76.0829 185.161 75.9887 185.772C75.8945 186.384 75.8477 188.217 75.8477 188.217L80.5024 187.935L80.6434 186.242Z" fill="#545454"/>
<path d="M96.5806 188.815C95.1876 188.792 93.7994 188.696 92.4108 188.589C91.3936 188.531 90.3815 188.404 89.3815 188.208C88.6117 188.042 87.8774 187.746 87.1047 187.583C86.2148 187.398 85.3083 187.306 84.3995 187.308C81.6611 187.301 78.9228 187.305 76.1844 187.305C75.9072 187.278 75.8159 187.377 75.8207 187.676C75.843 189.087 75.8349 190.499 75.8377 191.91L75.8668 191.961C76.1641 191.989 76.463 191.998 76.7615 191.987C76.9616 191.998 76.9212 191.821 76.9818 191.722C76.9825 191.685 76.9937 191.65 77.0139 191.62C77.0341 191.59 77.0625 191.566 77.0957 191.552L77.1875 191.466L77.2724 191.416L77.2732 191.415C77.3553 191.354 77.4555 191.323 77.5578 191.325C77.6601 191.328 77.7585 191.365 77.8373 191.43C77.8418 191.429 77.8466 191.428 77.8514 191.428C77.8562 191.428 77.8609 191.43 77.8653 191.432C77.8696 191.434 77.8734 191.437 77.8765 191.44C77.8796 191.444 77.882 191.448 77.8834 191.453C77.9044 191.454 77.9244 191.462 77.9408 191.475C77.9572 191.488 77.9692 191.506 77.9751 191.527L78.0147 191.574L78.0701 191.656C78.1344 191.751 78.1726 191.861 78.1808 191.976C78.8088 191.972 79.4372 192.008 80.0644 191.957C80.1089 191.58 80.2956 191.369 80.6092 191.342C80.7613 191.318 80.9165 191.356 81.0409 191.447C81.1653 191.537 81.2488 191.674 81.2732 191.826C81.3144 191.974 81.3904 191.987 81.5096 191.987C81.9743 191.985 82.4399 191.978 82.9046 191.99C82.9428 191.998 82.9823 191.998 83.0205 191.99C83.0587 191.982 83.0947 191.966 83.1261 191.942C83.1576 191.919 83.1838 191.89 83.203 191.856C83.2222 191.822 83.234 191.784 83.2376 191.745C83.2699 191.621 83.345 191.512 83.4496 191.438C83.5541 191.364 83.6816 191.329 83.8095 191.339C83.9322 191.326 84.0557 191.356 84.158 191.425C84.2603 191.495 84.3347 191.598 84.368 191.717C84.4338 191.982 84.5838 192.008 84.7988 191.988C84.8893 191.98 84.9806 191.986 85.0715 191.986C85.5767 191.986 85.5767 191.986 85.5763 191.469V190.235C86.191 190.59 86.8282 190.905 87.4837 191.177C88.5892 191.656 89.7726 191.93 90.9762 191.986C91.1209 191.989 91.247 192.003 91.2898 191.801C91.3124 191.664 91.3858 191.54 91.4953 191.455C91.6049 191.37 91.7425 191.33 91.8806 191.342C92.019 191.333 92.1557 191.376 92.2649 191.461C92.3741 191.547 92.4481 191.669 92.4731 191.806C92.5123 191.958 92.5822 191.99 92.7236 191.989C93.2995 191.983 93.8758 191.985 94.4521 191.987C94.5834 191.988 94.6683 191.978 94.7026 191.809C94.7242 191.672 94.7961 191.549 94.9042 191.462C95.0124 191.375 95.149 191.332 95.2874 191.341C95.4254 191.33 95.5624 191.371 95.6725 191.454C95.7825 191.538 95.8579 191.66 95.8843 191.796C95.9267 191.971 96.0112 191.99 96.1571 191.988C96.6117 191.983 97.0671 191.973 97.5214 191.991C97.8455 192.003 98.1462 192.02 98.2084 191.596C98.2124 191.573 98.2488 191.554 98.2698 191.533C98.2715 191.516 98.2796 191.5 98.2924 191.489C98.3053 191.478 98.322 191.473 98.3389 191.474L98.4456 191.407C98.5221 191.352 98.6139 191.322 98.7083 191.321C98.8026 191.321 98.8948 191.349 98.9722 191.403C99.0072 191.41 99.0403 191.424 99.0692 191.445C99.0981 191.466 99.1221 191.493 99.1395 191.524L99.1985 191.595L99.1973 191.593C99.2221 191.602 99.2429 191.619 99.2559 191.642C99.2689 191.665 99.2732 191.692 99.268 191.718C99.2708 191.718 99.2733 191.72 99.2755 191.721C99.2777 191.723 99.2794 191.725 99.2805 191.728C99.2817 191.731 99.2822 191.734 99.2821 191.736C99.2819 191.739 99.2811 191.742 99.2797 191.744C99.3452 191.808 99.3282 191.896 99.3456 191.973L101.641 191.971C101.665 191.831 101.65 191.676 101.791 191.58L101.905 191.467C101.909 191.45 101.92 191.436 101.935 191.427C101.95 191.418 101.967 191.414 101.985 191.418C101.986 191.411 101.99 191.406 101.996 191.402C102.001 191.398 102.008 191.397 102.014 191.398C102.093 191.346 102.186 191.319 102.281 191.322C102.376 191.324 102.467 191.355 102.544 191.41C102.58 191.418 102.613 191.434 102.643 191.456C102.672 191.478 102.696 191.506 102.714 191.538C102.737 191.544 102.757 191.557 102.772 191.576C102.786 191.595 102.794 191.618 102.794 191.642L102.777 191.656L102.795 191.643C102.803 191.646 102.81 191.65 102.816 191.655C102.822 191.661 102.827 191.667 102.83 191.675C102.833 191.682 102.835 191.69 102.835 191.698C102.836 191.706 102.834 191.714 102.831 191.721C102.866 191.955 103.004 192.012 103.229 191.992C103.459 191.982 103.69 191.985 103.92 192L104.174 191.971L104.206 191.909C104.19 191.825 104.203 191.738 104.242 191.662L104.278 191.304C104.254 191.181 104.265 191.054 104.309 190.937L104.329 190.146L104.305 190.022C104.262 189.947 104.25 189.859 104.271 189.775L104.24 189.6L104.13 189.293L104.089 189.207L104.031 189.126L103.932 189.04L103.771 188.962L103.751 188.964L103.739 188.949L103.678 188.948C101.311 188.957 98.9455 188.912 96.5806 188.815Z" fill="black"/>
<path d="M132.759 75.3028L132.595 75.7498L115.43 75.8387L87.1203 77.646C85.7855 76.9743 84.4846 72.8025 85.5536 71.0498L91.4526 66.8643L115.605 71.4839L120.535 70.0913C120.993 70.0051 121.468 70.0722 121.884 70.2824L132.032 73.1476C132.634 73.1658 132.928 74.7055 132.759 75.3028ZM101.09 24.5412L98.7668 25.0658C98.7068 25.5992 98.6292 26.1305 98.534 26.6588C98.4677 27.0387 98.3934 27.3911 98.3081 27.7205C96.9866 32.9983 93.8688 32.3942 89.1984 32.1723L87.7585 37.1879L74.7659 31.891L79.1203 22.3852L79.9863 17.0253L84.3824 11.9774L93.8559 8.04732C93.8559 8.04732 94.2705 6.40657 96.9434 8.37385C99.6159 10.3411 99.4639 15.2108 99.3471 17.6594L101.09 24.5412Z" fill="#DCA48C"/>
<path d="M93.9629 48.5467L94.9684 70.2598L93.4428 96.5412L66.2352 96.8209L65.142 46.0298C65.0708 43.4929 65.8832 41.0102 67.4403 39.0061L73.395 31.4053L74.1786 29.5868L75.0641 27.0497L88.2502 35.3775L91.5782 40.8226C93.0155 43.1534 93.836 45.8116 93.9625 48.5471L93.9629 48.5467Z" fill="#1A82B8"/>
<path d="M85.1721 5.29485C82.6625 4.49873 81.122 5.53005 80.6714 6.62038C78.7308 6.71575 77.9577 7.97742 78.0854 9.41085C76.9361 10.3953 76.3727 11.3426 77.263 13.191C75.8235 14.7554 76.4721 16.1484 77.1862 17.0096C76.1133 18.2729 76.6354 19.5952 77.4525 20.0082C76.93 21.6206 77.5439 22.363 78.8492 22.9817C81.868 22.7764 82.2386 20.8985 82.2927 19.7427C82.2976 19.6437 82.3921 17.6509 82.3978 17.5475C82.4806 16.0332 83.0234 15.3515 84.8476 15.3935C87.2174 15.4485 87.162 17.0884 87.1357 18.3905L89.8575 18.5178L90.0616 14.1625C96.1829 14.4495 94.7482 10.0615 97.5904 10.1944C97.8773 10.2078 98.1639 10.2272 98.45 10.2526C98.7943 8.75819 98.3975 6.14392 95.2756 6.32052C94.5251 5.70342 93.5116 4.22837 90.4774 5.30212C88.7518 4.71938 86.8306 4.17502 85.1721 5.29485ZM96.9256 19.0213L96.3154 18.9926C96.2597 18.99 96.205 18.9765 96.1545 18.9527C96.104 18.929 96.0587 18.8955 96.0211 18.8542C95.9836 18.8129 95.9546 18.7646 95.9357 18.7121C95.9169 18.6596 95.9086 18.6038 95.9113 18.5481L95.9396 17.9379C95.9449 17.8255 95.9946 17.7198 96.0778 17.644C96.161 17.5682 96.2709 17.5286 96.3833 17.5337L96.9939 17.562C97.0497 17.5647 97.1043 17.5783 97.1548 17.602C97.2053 17.6258 97.2506 17.6593 97.2881 17.7006C97.3256 17.7419 97.3546 17.7901 97.3735 17.8426C97.3924 17.8951 97.4007 17.9508 97.3981 18.0066L97.3698 18.6168C97.3672 18.6725 97.3536 18.7272 97.3299 18.7776C97.3062 18.8281 97.2727 18.8734 97.2315 18.9109C97.1902 18.9485 97.142 18.9775 97.0895 18.9964C97.037 19.0152 96.9813 19.0236 96.9256 19.0209" fill="#00243F"/>
<path d="M94.3914 50.4366L94.8509 63.8523L95.04 69.4002L95.0695 70.2545L95.1879 73.015L95.43 78.5604L94.8521 94.5496C94.8298 95.1683 94.5716 95.755 94.1305 96.1895C93.6894 96.6239 93.0989 96.8732 92.4799 96.8862L66.7679 97.4253C66.3929 97.4286 66.0211 97.3569 65.6742 97.2143C65.3273 97.0718 65.0125 96.8613 64.7481 96.5953C64.4838 96.3292 64.2753 96.013 64.135 95.6653C63.9947 95.3175 63.9253 94.9452 63.931 94.5702L64.0603 80.0896L64.1868 74.5265L64.2696 70.9003L64.4002 65.3367L64.8269 46.633C64.9017 43.6724 65.6651 40.8609 67.4549 38.5586L72.9021 31.556C73.9933 30.152 74.1788 29.5867 74.1788 29.5867C74.1788 29.5867 91.0833 40.374 91.4138 40.5898C91.4138 40.5898 93.6745 42.6346 94.3914 50.4366Z" fill="#FF9E00"/>
<path d="M94.8838 63.7316L95.0689 69.2794L64.2973 70.756L64.4319 65.1925L94.8838 63.7316ZM95.37 72.6482L95.5935 78.1944L63.9312 79.6355L64.0791 74.0723L95.37 72.6482Z" fill="white"/>
<path d="M91.2352 65.8371L78.3925 47.3121C77.8203 46.5347 77.2016 45.7927 76.5396 45.0902C75.5908 44.0771 74.3176 43.4277 72.9404 43.2544C71.5633 43.0812 70.1689 43.3949 68.9987 44.1413C68.8996 44.2064 68.8067 44.2711 68.7214 44.3349C65.7523 46.556 65.4359 50.9128 67.8243 53.7494L68.6103 54.6829L84.1561 74.5589C85.1361 76.4345 87.5302 77.5571 89.0016 77.2835L90.8444 69.4686L91.3803 66.0885" fill="#1A82B8"/>
<path d="M76.845 16.536L74.3726 17.6946L74.4021 17.8733L77.3885 17.318L76.845 16.536Z" fill="#FF9E00"/>
<path d="M74.812 20.3411L74.3723 17.6953L78.5457 16.6134C78.8563 16.4991 79.1243 16.2921 79.3135 16.0206L81.6595 12.2582L83.9315 13.6726L81.5884 17.4318C81.0372 18.2845 80.1995 18.9121 79.2263 19.2014L74.812 20.3411Z" fill="#FFC566"/>
<path d="M104.043 12.0109L73.6438 17.0689L74.246 15.3591C73.3318 7.85811 75.4882 3.58288 81.0655 1.44345C81.9962 1.0929 82.9593 0.835823 83.9409 0.676019L86.6429 0.225825C87.8622 0.00857687 89.1042 -0.0522639 90.339 0.0447771C95.6435 0.501437 98.5378 3.71018 99.8803 8.51602C100.898 9.03452 102.926 10.2424 104.233 11.0289C104.325 11.0858 104.398 11.1696 104.442 11.269C104.485 11.3684 104.498 11.4787 104.477 11.5853C104.457 11.692 104.404 11.7898 104.327 11.8658C104.249 11.9418 104.15 11.9924 104.043 12.0109Z" fill="#FF9E00"/>
<path d="M99.8763 8.48792L94.6902 12.2907L94.6983 12.3081L101.432 9.34587C101.432 9.34587 100.978 9.06824 99.8763 8.48792ZM83.5113 8.7712L80.6558 15.904L82.7322 15.5589L83.5113 8.7712Z" fill="#FF6D00"/>
<path d="M95.1722 34.0252C94.815 34.4071 93.5626 34.8225 92.5551 34.5311C92.405 34.4948 92.2567 34.451 92.111 34.3998C91.2963 34.0628 90.566 33.3042 89.9182 32.2596C90.8319 32.3912 91.7546 32.4504 92.6776 32.4366C92.7899 32.4305 92.8982 32.4228 93.0081 32.4107C93.1038 32.4893 93.2141 32.5481 93.3327 32.5837C93.4512 32.6193 93.5757 32.6309 93.6988 32.618C94.2298 32.5388 94.4161 32.42 94.5519 32.1298C94.9658 32.0065 95.3717 31.858 95.7675 31.6853C95.8762 32.439 96.0245 33.1191 95.1722 34.0252Z" fill="#BFC8CF"/>
<path d="M93.0081 32.4108C92.8982 32.4229 92.7899 32.431 92.6776 32.4367C91.7546 32.4505 90.8319 32.3913 89.9182 32.2596C87.2498 27.9973 86.4718 17.5548 86.1526 13.8397L88.4238 13.5604C89.1229 21.6922 91.0663 31.0824 93.0081 32.4108Z" fill="#BFC8CF"/>
<path d="M82.7327 15.5588L92.3136 13.9649L89.3781 7.79553L83.5118 8.77068L82.7327 15.5588Z" fill="#FFC566"/>
<path d="M92.4613 78.1454L115.569 77.4163L115.658 71.0377L91.3803 66.0888L84.7801 65.8649C84.2163 71.1852 83.3847 76.8045 88.4213 78.1523L92.4613 78.1454Z" fill="#1A82B8"/>
</svg>
