<svg width="606" height="606" viewBox="0 0 606 606" fill="none" xmlns="http://www.w3.org/2000/svg">
<path d="M552.592 524.057C552.592 527.453 549.196 530 544.102 530H63.5868C58.493 530 55.0972 527.453 55.0972 524.057C55.0972 521.51 58.493 518.963 63.5868 518.963H544.102C549.196 518.963 552.592 521.51 552.592 524.057Z" fill="#D0D1CF"/>
<path d="M303.38 76L303.391 138.626H305.089V76H303.38Z" fill="#010101"/>
<path d="M350.933 175.981H255L267.701 139.475C268.55 136.928 273.644 135.23 280.435 135.23H322.884C330.524 135.23 337.316 137.777 338.165 140.324L350.933 175.981Z" fill="#42B0D5"/>
<path d="M310.183 136.929H296.599L298.297 130.986H306.787C307.636 130.986 308.485 130.986 308.485 131.835L310.183 136.929Z" fill="#010101"/>
<path d="M216.401 499.437L214.703 515.568C214.703 518.114 215.552 519.812 217.25 519.812L269.885 524.057C270.328 524.272 270.816 524.374 271.307 524.352C271.798 524.331 272.276 524.187 272.698 523.934C273.119 523.681 273.471 523.327 273.721 522.904C273.971 522.481 274.112 522.002 274.13 521.51C274.118 520.854 273.959 520.208 273.665 519.621C273.371 519.033 272.95 518.519 272.432 518.114L236.776 495.192L216.401 499.437Z" fill="#171617"/>
<path d="M294.506 498.588L293.657 513.021C293.657 514.718 294.506 516.416 296.204 516.416L343.746 520.661C345.444 521.51 347.142 519.812 347.142 518.114C347.142 517.265 347.142 515.567 346.293 515.567L313.183 494.343L294.506 498.588Z" fill="#171617"/>
<path d="M122.2 404.353V312.665C122.191 308.537 122.997 304.448 124.572 300.633C126.148 296.818 128.461 293.352 131.38 290.433C134.298 287.514 137.765 285.201 141.58 283.626C145.395 282.05 149.484 281.244 153.611 281.253H450.716C454.843 281.244 458.932 282.05 462.747 283.626C466.562 285.201 470.028 287.514 472.947 290.433C475.866 293.352 478.179 296.818 479.755 300.633C481.33 304.448 482.136 308.537 482.127 312.665V404.353" fill="#838695"/>
<path d="M113.71 294.836L102.674 279.555C102.674 279.555 105.221 270.216 97.5798 268.518C89.0902 266.82 55.1315 267.669 55.1315 267.669C55.1315 267.669 49.1887 271.914 59.3763 275.31C76.3557 282.102 89.9391 288.045 89.9391 288.045L97.5798 299.081" fill="#FAB8A6"/>
<path d="M189.235 299.081L196.026 282.951C196.026 282.951 205.365 282.102 202.818 274.461C201.12 267.67 186.688 241.352 186.688 241.352C186.688 241.352 180.745 233.711 179.047 243.05C178.198 252.388 183.292 274.461 183.292 274.461L179.047 288.045" fill="#FAB8A6"/>
<path d="M178.233 282.951L150.217 338.134L161.253 366.149L171.441 367.847L196.91 286.347L178.233 282.951Z" fill="#04253C"/>
<path d="M267.339 346.623C262.235 342.662 256.219 340.044 249.843 339.005C243.466 337.967 236.931 338.543 230.833 340.68L213.005 348.321L170.557 357.66L109.431 288.893L92.4519 293.987L145.088 379.733C145.088 379.733 152.729 389.071 156.124 389.92C184.989 398.41 270.735 392.467 270.735 392.467" fill="#01334C"/>
<path d="M396.383 386.525H483.826V389.921C483.826 390.769 482.977 390.769 482.128 390.769H397.232C396.383 390.769 396.383 390.769 396.383 389.921V386.525Z" fill="#B3B4B4"/>
<path d="M488.953 384.827L509.329 306.722C510.178 305.024 509.329 303.326 506.782 302.477H505.933L483.86 386.524L484.709 387.373C485.584 387.391 486.447 387.162 487.198 386.711C487.949 386.261 488.557 385.608 488.953 384.827Z" fill="#B3B4B4"/>
<path d="M359.91 354.264L379.436 374.639L385.379 376.337C385.379 376.337 402.358 377.186 404.056 377.186C406.677 377.028 409.256 376.455 411.697 375.488L409.999 346.623L388.775 344.925L386.194 354.264L387.892 353.415C387.892 353.415 372.61 325.399 370.912 317.758C369.791 314.485 369.5 310.984 370.064 307.571" fill="#DC4939"/>
<path d="M437.133 379.733C431.19 373.79 423.549 369.545 415.06 375.488L404.872 376.337L368.366 369.545C368.503 371.564 368.214 373.588 367.517 375.488C366.895 379.578 365.754 383.572 364.122 387.373L402.325 388.222L415.06 387.373C415.06 387.373 434.586 386.524 437.133 386.524C447.32 386.524 443.924 387.373 437.133 379.733Z" fill="#FBD6C3"/>
<path d="M320.858 316.91L322.556 341.53L348.84 383.129C354.134 386.584 360.348 388.36 366.669 388.223H376.856L372.611 366.15C372.611 366.15 356.481 346.623 354.783 330.493C353.085 314.363 347.142 309.269 347.142 309.269L320.858 316.91Z" fill="#F16B57"/>
<path d="M371.796 303.326L357.364 285.498L356.515 283.8L348.025 282.951C343.78 282.951 336.14 283.8 321.707 298.232C308.124 310.967 297.087 328.795 292.842 333.04C292.847 333.152 292.828 333.265 292.787 333.37C292.746 333.475 292.684 333.571 292.604 333.651C292.525 333.731 292.429 333.793 292.324 333.834C292.219 333.875 292.106 333.893 291.993 333.889L280.957 336.436L260.582 338.982L263.128 392.467C263.128 392.467 280.957 390.769 295.389 389.072H296.238C296.238 389.072 321.707 390.769 327.65 389.072C332.744 388.223 335.291 381.431 340.384 378.884C360.76 366.149 366.702 351.717 366.702 351.717C370.098 349.17 368.4 333.889 369.249 329.644L371.796 303.326Z" fill="#F16B57"/>
<path d="M389.59 346.623V299.081C389.59 299.081 396.382 292.289 397.231 288.893C398.08 285.497 402.325 281.252 402.325 277.008C402.325 273.612 400.627 273.612 401.476 269.367C401.476 265.122 406.569 274.461 407.418 277.008C407.418 280.403 408.267 287.195 405.72 290.591L400.627 300.779L407.418 347.472" fill="#D99E8A"/>
<path d="M405.754 270.216V282.951L400.66 284.649C394.717 298.232 388.775 297.383 380.285 293.987L373.493 300.779C373.493 300.779 370.946 308.42 369.248 305.873C365.107 298.925 359.957 292.63 353.967 287.195L363.306 275.31L385.379 243.898L403.207 239.653C409.15 244.747 410.848 253.237 406.603 265.122L405.754 270.216Z" fill="#FBD6C3"/>
<path d="M350.572 260.878C345.478 276.159 351.421 283.8 358.213 286.347C363.306 288.044 370.098 285.498 374.343 272.763C370.098 271.065 369.249 269.367 370.947 265.122L372.645 261.727L409.151 252.388C410.849 240.502 399.812 234.56 388.775 230.315C365.004 221.825 357.364 234.56 350.572 253.237" fill="#02263C"/>
<path d="M397.265 270.216L396.416 269.367C395.567 269.367 395.567 269.367 395.567 268.518L396.416 266.82C396.416 266.82 397.265 265.971 397.265 266.82H398.963C399.075 266.931 399.165 267.063 399.226 267.209C399.288 267.354 399.319 267.511 399.319 267.669C399.319 267.827 399.288 267.984 399.226 268.13C399.165 268.275 399.075 268.407 398.963 268.518V269.367C398.963 270.216 398.114 270.216 397.265 270.216Z" fill="#04253C"/>
<path d="M357.364 290.591C357.364 290.591 371.796 318.607 370.947 317.758C369.249 317.758 373.494 300.779 373.494 300.779L369.249 290.591" fill="#FBD6C3"/>
<path d="M523.761 519.812H515.237L488.919 452.744C488.081 450.733 486.666 449.015 484.853 447.806C483.041 446.597 480.91 445.952 478.731 445.952H128.108C125.929 445.952 123.799 446.597 121.986 447.806C120.173 449.015 118.759 450.733 117.921 452.744L91.6026 519.812H83.9619L96.6964 416.239H510.177L523.761 519.812Z" fill="#323F54"/>
<path d="M96.731 416.239V400.108C96.7487 397.637 97.7383 395.272 99.4857 393.524C101.233 391.777 103.598 390.787 106.07 390.77H500.839C503.31 390.787 505.675 391.777 507.423 393.524C509.17 395.272 510.16 397.637 510.178 400.108V416.239" fill="#838695"/>
</svg>
