<svg width="193" height="192" viewBox="0 0 193 192" fill="none" xmlns="http://www.w3.org/2000/svg">
<path d="M37.7525 119.999C38.1755 128.048 39.0935 136.063 40.5014 143.999C42.3132 153.724 44.9087 161.627 48.4242 167.999C58.5351 186.327 76.2558 192 104.823 192C133.39 192 151.11 186.327 161.22 167.999C164.735 161.627 167.33 153.724 169.141 143.998C170.549 136.062 171.467 128.047 171.89 119.999C172.329 112.708 172.536 104.73 172.536 95.9989C172.536 87.2694 172.328 79.2906 171.886 71.9981C171.46 63.9488 170.536 55.9336 169.12 47.9984C167.298 38.279 164.691 30.3742 161.159 23.9976C151.038 5.73102 133.334 -1.71354e-06 104.823 -2.95981e-06C76.3116 -4.20609e-06 58.607 5.73102 48.4842 23.9997C44.9527 30.3753 42.3443 38.2801 40.5228 48.0005C39.1067 55.9357 38.1829 63.9509 37.7568 72.0003C37.3151 79.2917 37.1071 87.2716 37.1071 96C37.1071 104.731 37.314 112.709 37.7525 120.001L37.7525 119.999Z" fill="#E9F6FC"/>
<mask id="mask0_11503_1745" style="mask-type:alpha" maskUnits="userSpaceOnUse" x="37" y="0" width="136" height="192">
<path d="M37.7525 119.999C38.1755 128.048 39.0935 136.063 40.5014 143.999C42.3132 153.724 44.9087 161.627 48.4242 167.999C58.5351 186.327 76.2558 192 104.823 192C133.39 192 151.11 186.327 161.22 167.999C164.735 161.627 167.33 153.724 169.141 143.998C170.549 136.062 171.467 128.047 171.89 119.999C172.329 112.708 172.536 104.73 172.536 95.9989C172.536 87.2694 172.328 79.2906 171.886 71.9981C171.46 63.9488 170.536 55.9336 169.12 47.9984C167.298 38.279 164.691 30.3742 161.159 23.9976C151.038 5.73102 133.334 -1.71354e-06 104.823 -2.95981e-06C76.3116 -4.20609e-06 58.607 5.73102 48.4842 23.9997C44.9527 30.3753 42.3443 38.2801 40.5228 48.0005C39.1067 55.9357 38.1829 63.9509 37.7568 72.0003C37.3151 79.2917 37.1071 87.2716 37.1071 96C37.1071 104.731 37.314 112.709 37.7525 120.001L37.7525 119.999Z" fill="#E9F6FC"/>
</mask>
<g mask="url(#mask0_11503_1745)">
<path d="M-5.85718 97.7143H215.804V176.49H-5.85718V97.7143Z" fill="#F7F7F7"/>
<path opacity="0.75" d="M8.625 153.053H21.9007V167.376H8.625V153.053ZM30.9808 153.053H44.2565V167.376H30.9808V153.053ZM53.3366 153.053H66.6122V167.376H53.3366V153.053ZM75.6924 153.053H88.968V167.376H75.6924V153.053ZM98.0482 153.053H111.324V167.376H98.0482V153.053ZM120.404 153.053H133.68V167.376H120.404V153.053ZM142.76 153.053H156.035V167.376H142.76V153.053ZM165.116 153.053H178.391V167.376H165.116V153.053ZM8.625 132.057H21.9007V146.38H8.625V132.057ZM30.9808 132.057H44.2565V146.38H30.9808V132.057ZM53.3366 132.057H66.6122V146.38H53.3366V132.057ZM75.6924 132.057H88.968V146.38H75.6924V132.057ZM98.0482 132.057H111.324V146.38H98.0482V132.057ZM120.404 132.057H133.68V146.38H120.404V132.057ZM142.76 132.057H156.035V146.38H142.76V132.057ZM165.116 132.057H178.391V146.38H165.116V132.057ZM8.625 111.061H21.9007V125.384H8.625V111.061ZM30.9808 111.061H44.2565V125.384H30.9808V111.061ZM53.3366 111.061H66.6122V125.384H53.3366V111.061ZM75.6924 111.061H88.968V125.384H75.6924V111.061ZM98.0482 111.061H111.324V125.384H98.0482V111.061ZM120.404 111.061H133.68V125.384H120.404V111.061ZM142.76 111.061H156.035V125.384H142.76V111.061ZM165.116 111.061H178.391V125.384H165.116V111.061Z" fill="#AAE1F8"/>
<path d="M43 176.759H104.666V191.972H43V176.759Z" fill="#DBDBDB"/>
<path d="M90.0913 162.977H152.292V191.972H90.0913V162.977Z" fill="#DBDBDB"/>
<path d="M132.514 150.052H194.714V191.973H132.514V150.052Z" fill="#DBDBDB"/>
</g>
<path d="M125.705 39.3598H85.4282C85.4282 34.2245 87.1929 32.1644 94.2521 32.1644H100.538C100.538 24.8412 103.055 21.9034 113.122 21.9034C120.965 21.9034 122.926 24.1928 122.926 29.8982C132.208 29.8982 134.529 32.6077 134.529 39.3598H119.477" fill="white"/>
<path d="M159.498 14.1927C170.443 14.1927 173.18 17.3878 173.18 25.3493H84.8213C84.8213 19.2564 86.9152 16.8116 95.291 16.8116H117.033C117.033 12.528 118.506 10.8088 124.395 10.8088H128.837C128.837 3.09515 131.489 0.000244141 142.092 0.000244141C156.017 0.000244141 159.498 4.06407 159.498 14.1927Z" fill="#C2DEEC"/>
<path d="M79.597 164.172L74.5557 173.569C74.4501 173.946 74.4985 174.349 74.6902 174.69C74.8819 175.032 75.2012 175.283 75.5778 175.388L100.283 182.316L100.742 180.746C100.911 180.165 100.899 179.547 100.706 178.974C100.513 178.401 100.148 177.901 99.6622 177.543L85.7618 167.277L79.597 164.172Z" fill="black"/>
<path d="M69.0001 94.1426L52.4548 109.472L62.981 114.017L87.681 128.162L76.6945 166.259L90.3963 170.7C90.3963 170.7 100.129 140.912 104.183 128.349C105.213 125.156 103.502 119.947 100.861 117.879L69.0001 94.1426Z" fill="#ABABAB"/>
<path d="M37.5613 181.271V190.269C37.5578 190.661 37.7097 191.037 37.9836 191.317C38.2575 191.596 38.6311 191.755 39.0221 191.759L64.6777 192L64.6932 190.366C64.6988 189.768 64.5229 189.183 64.1888 188.687C63.8547 188.192 63.378 187.809 62.822 187.591L46.7399 181.271H37.5613Z" fill="black"/>
<path d="M48.1894 90.7411L49.9358 102.08L47.5877 134.091L36.7087 183.279L51.6395 182.891L64.6603 136.926L73.4207 97.5585L48.1894 90.7411Z" fill="#CFCFCF"/>
<path d="M80.1749 16.9454C80.6552 20.1701 80.4328 22.1759 79.6663 23.4908C78.4418 25.6104 75.813 25.9396 72.461 26.6672L70.815 34.6973L58.9589 25.248L59.7087 19.5235C59.7042 19.5235 54.3474 10.9794 56.7 5.629C58.9162 0.587154 69.7435 -0.828715 72.9607 0.435631C75.6206 1.4813 77.5139 5.30264 78.5488 8.71105C78.6436 8.9123 78.7185 9.12236 78.7723 9.33823L81.2863 13.6225L82.2524 15.2692L80.1749 16.9454Z" fill="#6B4A3E"/>
<path d="M63.1339 2.43479C57.1177 3.74353 54.3702 6.159 55.521 11.4573C56.9851 18.1969 57.8048 18.8746 59.5945 20.1989C60.4624 20.7678 62.9343 19.4563 62.1872 16.0162C62.1651 15.9152 61.7253 13.8849 61.7036 13.7795C61.3803 12.2343 61.7425 11.4029 63.5881 10.955C65.984 10.3739 66.3689 12.0384 66.6922 13.3554L69.4619 12.7527C69.6229 11.1551 69.5391 9.5423 69.2134 7.97005C68.9087 6.51214 68.3388 5.12274 67.5319 3.87119C66.4221 2.37263 65.1044 2.00631 63.1339 2.43479ZM76.3316 11.6243L75.7105 11.7592C75.6537 11.7716 75.5951 11.7727 75.538 11.7624C75.4808 11.7521 75.4262 11.7306 75.3774 11.6991C75.3286 11.6677 75.2864 11.6269 75.2533 11.5791C75.2203 11.5313 75.197 11.4775 75.1847 11.4206L75.0494 10.799C75.0247 10.6844 75.0464 10.5647 75.1099 10.4661C75.1733 10.3676 75.2732 10.2983 75.3877 10.2734L76.0088 10.138C76.1233 10.1132 76.243 10.135 76.3415 10.1985C76.4399 10.262 76.5092 10.362 76.534 10.4765L76.6688 11.0982C76.6937 11.2126 76.6722 11.3323 76.6089 11.4308C76.5457 11.5294 76.446 11.5993 76.3316 11.6243Z" fill="black"/>
<path d="M71.7851 35.9531L72.6692 36.7373C73.2782 37.2779 73.7583 37.9482 74.0744 38.6989C74.3904 39.4496 74.5343 40.2617 74.4955 41.0754L74.1316 48.707L70.9072 40.441L71.7851 35.9531Z" fill="#FF5E4B"/>
<path d="M59.1496 23.7966L71.0551 34.3565C71.4925 34.7447 71.7936 35.2635 71.9136 35.8362L73.1536 41.7477L58.2295 26.035L59.1496 23.7966Z" fill="#AAE1F8"/>
<path d="M39.3038 57.1575L38.0005 86.8497L48.9937 87.3747L50.5155 60.4777L46.2174 55.8699L44.1038 100.168L73.7247 101.583L76.1089 51.6062C76.217 49.341 75.853 47.078 75.0402 44.9611C74.2275 42.8442 72.9836 40.9196 71.3877 39.3096L58.2288 26.0351L51.496 29.8537C49.1724 31.1714 47.4135 33.2975 46.5534 35.828L39.3038 57.1575Z" fill="#0D2F49"/>
<path d="M50.1605 62.9172L55.921 50.1111L48.9941 87.3754L50.1605 62.9172Z" fill="#00243F"/>
<path d="M65.328 107.481L23.1492 105.466C21.6467 105.394 20.3706 106.555 20.2988 108.059L19.1296 132.572C19.0578 134.076 20.2177 135.353 21.7202 135.425L63.899 137.44C65.4015 137.512 66.6777 136.351 66.7494 134.847L67.9187 110.334C67.9904 108.83 66.8305 107.553 65.328 107.481Z" fill="#545454"/>
<path d="M20.4284 105.336L68.0482 107.611L67.4437 120.29C67.4266 120.647 67.3393 120.998 67.1868 121.321C67.0343 121.645 66.8196 121.936 66.5548 122.176C66.2901 122.417 65.9806 122.603 65.644 122.724C65.3074 122.845 64.9503 122.899 64.593 122.881L22.4144 120.867C22.0572 120.85 21.7067 120.762 21.3831 120.61C21.0596 120.457 20.7692 120.242 20.5286 119.977C20.2881 119.713 20.102 119.403 19.9811 119.066C19.8602 118.729 19.8068 118.371 19.8239 118.014L20.4284 105.336Z" fill="#878787"/>
<path d="M27.7963 119.262L31.8027 119.454L31.6906 121.805C31.6822 121.984 31.6386 122.159 31.5624 122.321C31.4861 122.483 31.3788 122.628 31.2464 122.749C31.1141 122.869 30.9593 122.962 30.7909 123.023C30.6226 123.083 30.444 123.11 30.2653 123.101L28.9787 123.04C28.8001 123.032 28.6249 122.988 28.4631 122.912C28.3013 122.835 28.1562 122.728 28.0359 122.596C27.9157 122.463 27.8227 122.308 27.7622 122.14C27.7018 121.971 27.6751 121.793 27.6837 121.614L27.7963 119.262ZM55.3824 120.58L59.3888 120.771L59.2767 123.123C59.2682 123.302 59.2246 123.477 59.1483 123.639C59.0721 123.801 58.9647 123.946 58.8323 124.066C58.7 124.187 58.5452 124.28 58.3769 124.34C58.2086 124.401 58.0301 124.428 57.8514 124.419L56.5648 124.358C56.3861 124.349 56.211 124.306 56.0492 124.229C55.8874 124.153 55.7423 124.046 55.622 123.913C55.5018 123.781 55.4088 123.626 55.3483 123.457C55.2879 123.289 55.2612 123.11 55.2698 122.932L55.3824 120.58Z" fill="#EDEDED"/>
<path d="M51.2904 103.963L51.1545 106.805L49.0515 106.705L49.158 104.47L39.5302 104.01L39.4237 106.245L37.3235 106.145L37.4588 103.302C37.4673 103.124 37.5109 102.948 37.5871 102.786C37.6633 102.624 37.7707 102.479 37.903 102.359C38.0354 102.238 38.1902 102.145 38.3585 102.085C38.5268 102.024 38.7055 101.997 38.8841 102.006L49.9949 102.537C50.1735 102.546 50.3487 102.589 50.5104 102.666C50.6722 102.742 50.8174 102.849 50.9376 102.982C51.0579 103.114 51.1509 103.269 51.2113 103.438C51.2717 103.606 51.2984 103.785 51.2898 103.963H51.2904Z" fill="#878787"/>
<path d="M39.2595 93.2483L43.5793 91.6954L54.9928 98.7131C55.1173 98.7897 55.2191 98.8984 55.2874 99.0277C55.3556 99.1571 55.388 99.3024 55.381 99.4485L55.36 99.8881C55.3496 100.105 55.2538 100.308 55.0935 100.454C54.9332 100.6 54.7217 100.676 54.5053 100.666L50.3825 100.469L49.0936 104.543C49.003 104.83 48.8202 105.078 48.5736 105.25C48.327 105.422 48.0305 105.508 47.7304 105.493L40.8956 105.166C40.5537 105.15 40.2304 105.006 39.9902 104.761C39.75 104.517 39.6105 104.192 39.5995 103.849L39.2595 93.2483Z" fill="#6B4A3E"/>
<path d="M38.0005 86.8505L48.9937 87.3755L48.6798 93.9537L39.047 93.4935C38.8684 93.485 38.6932 93.4413 38.5315 93.365C38.3697 93.2887 38.2246 93.1813 38.1043 93.0488C37.984 92.9163 37.891 92.7615 37.8306 92.593C37.7702 92.4246 37.7435 92.2459 37.7521 92.0671L38.0005 86.8505Z" fill="#AAE1F8"/>
</svg>
