<svg width="193" height="192" viewBox="0 0 193 192" fill="none" xmlns="http://www.w3.org/2000/svg">
<path d="M168.196 119.999C167.771 128.048 166.848 136.063 165.433 143.999C163.612 153.724 161.003 161.627 157.469 167.999C147.305 186.327 129.491 192 100.775 192C72.058 192 54.2456 186.327 44.0828 167.999C40.549 161.627 37.9409 153.724 36.1196 143.998C34.7045 136.062 33.7817 128.047 33.3563 119.999C32.9155 112.708 32.7075 104.73 32.7075 95.999C32.7075 87.2695 32.9166 79.2906 33.3606 71.9982C33.7891 63.9488 34.7177 55.9336 36.1411 47.9984C37.9721 38.2791 40.5931 30.3743 44.1442 23.9976C54.3178 5.73108 72.114 5.93216e-05 100.775 5.80753e-05C129.435 5.68291e-05 147.233 5.73108 157.408 23.9998C160.958 30.3753 163.58 38.2801 165.412 48.0006C166.835 55.9357 167.764 63.951 168.192 72.0003C168.636 79.2917 168.845 87.2716 168.845 96C168.845 104.731 168.637 112.709 168.196 120.001L168.196 119.999Z" fill="#E9F6FC"/>
<mask id="mask0_11503_1788" style="mask-type:alpha" maskUnits="userSpaceOnUse" x="32" y="0" width="137" height="192">
<path d="M168.196 119.999C167.771 128.048 166.848 136.063 165.433 143.999C163.612 153.724 161.003 161.627 157.469 167.999C147.305 186.327 129.491 192 100.775 192C72.058 192 54.2456 186.327 44.0828 167.999C40.549 161.627 37.9409 153.724 36.1196 143.998C34.7045 136.062 33.7817 128.047 33.3563 119.999C32.9155 112.708 32.7075 104.729 32.7075 95.9989C32.7075 87.2694 32.9166 79.2906 33.3606 71.9981C33.7891 63.9488 34.7177 55.9336 36.1411 47.9984C37.9721 38.279 40.5931 30.3742 44.1442 23.9976C54.3178 5.73102 72.114 -1.71354e-06 100.775 -2.95981e-06C129.435 -4.20609e-06 147.233 5.73102 157.408 23.9997C160.958 30.3753 163.58 38.2801 165.412 48.0005C166.835 55.9357 167.764 63.9509 168.192 72.0002C168.636 79.2916 168.845 87.2715 168.845 96C168.845 104.731 168.637 112.709 168.196 120.001L168.196 119.999Z" fill="#E9F6FC"/>
</mask>
<g mask="url(#mask0_11503_1788)">
<path d="M168.953 150.857H22.4757V200.571H168.953V150.857Z" fill="#F3F3F3"/>
<g style="mix-blend-mode:multiply" opacity="0.6">
<path d="M-227.644 51.628V28.1783H-205.234V84.1535H-176.304V69.5975H-154.132V82.6566H-133.099V43.7272H-116.282V75.1089H-86.9103V51.628H-67.3352V62.5595H-48.4009V17.9138H-16.8773V43.1052H22.2005V65.0392H41.7831V83.8235H70.2005V47.4589H88.6354V65.0389H131.167V25.6909H165.35V104.4H183.126V46.6878H215.988V85.3975H240.972V52.434H260.343V62.5592H275.488V-1.14423H299.921V150.857H-251.337V51.628H-227.644Z" fill="#EAF6FC"/>
</g>
</g>
<path d="M119.924 111.52C122.493 111.52 124.579 109.445 124.579 106.888V77.6372C124.579 75.0737 122.493 73 119.924 73H81.7772C79.2038 73 77.117 75.0737 77.117 77.6372V106.888C77.117 109.445 79.2038 111.52 81.7772 111.52H119.924Z" fill="#E0E5E8"/>
<path d="M85.4799 136.504V134.536H115.136V136.504C115.136 137.026 114.927 137.526 114.556 137.896C114.185 138.265 113.682 138.472 113.158 138.472H87.458C86.9334 138.472 86.4302 138.265 86.0593 137.896C85.6883 137.526 85.4799 137.026 85.4799 136.504ZM102.383 108.807H98.2328V129.327H102.383V108.807ZM119.729 188.407C119.729 188.837 119.814 189.262 119.98 189.659C120.145 190.055 120.387 190.416 120.692 190.719C120.997 191.023 121.36 191.263 121.758 191.428C122.157 191.592 122.585 191.676 123.016 191.676C123.448 191.676 123.875 191.592 124.274 191.427C124.673 191.263 125.035 191.022 125.34 190.719C125.645 190.415 125.887 190.054 126.052 189.658C126.217 189.261 126.302 188.836 126.302 188.407C126.302 187.54 125.956 186.708 125.339 186.095C124.723 185.482 123.887 185.138 123.015 185.138C122.144 185.138 121.308 185.482 120.692 186.096C120.075 186.709 119.729 187.54 119.729 188.407ZM74.3137 188.407C74.3138 188.837 74.3988 189.262 74.564 189.659C74.7292 190.055 74.9714 190.415 75.2766 190.719C75.5818 191.023 75.9441 191.263 76.3428 191.428C76.7415 191.592 77.1688 191.676 77.6004 191.676C78.032 191.676 78.4593 191.592 78.858 191.427C79.2567 191.263 79.6189 191.022 79.9241 190.718C80.2292 190.415 80.4712 190.054 80.6363 189.658C80.8014 189.261 80.8863 188.836 80.8863 188.407C80.8862 187.54 80.5398 186.708 79.9234 186.095C79.307 185.482 78.4711 185.138 77.5996 185.138C76.728 185.138 75.8921 185.483 75.2759 186.096C74.6597 186.709 74.3136 187.54 74.3137 188.407Z" fill="#D5D5D5"/>
<path d="M103.9 131.639H97.9291V176.612H103.9V131.639Z" fill="#D5D5D5"/>
<path d="M101.01 174.08L121.674 179.971C122.263 180.139 122.781 180.492 123.149 180.979C123.518 181.465 123.717 182.058 123.717 182.667V184.48L101.01 181.333L78.3013 184.48V182.667C78.3013 182.058 78.5006 181.465 78.8693 180.979C79.2379 180.492 79.7558 180.138 80.3446 179.971L101.01 174.08Z" fill="#D5D5D5"/>
<path d="M131.472 131.635V135.945H69.9486V131.635C69.9486 129.254 71.8883 127.325 74.2812 127.325H127.139C129.532 127.325 131.472 129.254 131.472 131.635Z" fill="#E0E5E8"/>
<path d="M22.1649 113.146H170.351L176.943 189.759H172.072C172.072 189.759 158.139 138.974 154.823 127.236C154.075 124.587 152.901 123.029 149.605 123.029H42.9102C39.614 123.029 38.4406 124.587 37.6925 127.235C34.3762 138.973 20.4438 189.76 20.4438 189.76H15.5723L22.1649 113.146Z" fill="#DBDBDB"/>
<path d="M14.5137 108.889C14.5137 111.981 15.2605 113.513 21.3037 113.513H170.949C176.993 113.513 178 113.216 178 108.889H14.5137Z" fill="#CCCCCC"/>
<path d="M62.4417 101.325H30.4704V108.807H62.4417V101.325Z" fill="#FFEEE9"/>
<path d="M62.4417 102.864H34.0846V107.27H62.4417V102.864Z" fill="white"/>
<path d="M62.4419 86.3133H30.4707V93.7952H62.4419V86.3133Z" fill="#8A9AA6"/>
<path d="M62.4417 88.1288H34.0846V91.9825H62.4417V88.1288Z" fill="white"/>
<path d="M56.844 93.8074H24.8728V101.289H56.844V93.8074Z" fill="#BFDDDA"/>
<path d="M53.2297 95.8213H24.8727V99.2778H53.2297V95.8213Z" fill="white"/>
<path d="M171.096 184.889V190.506C171.096 191.331 170.38 192 169.496 192H141.654V188.287L161.228 181.306L171.096 184.889Z" fill="#00243D"/>
<path d="M140.95 93.7352L147.057 137.586L156.016 181.775L172.895 186.593L166.485 136.466L164.689 103.513L168.803 93.8582L140.95 93.7352Z" fill="#545454"/>
<path d="M157.657 184.889V192H128.214V190.345C128.214 189.106 129.033 187.995 130.273 187.553L147.789 181.306L157.657 184.889Z" fill="#193A50"/>
<path d="M168.803 93.8582L164.696 103.513L159.429 135.641L158.779 186.654L143.327 182.892L140.683 134.576L140.949 93.7352L168.803 93.8582H168.803Z" fill="#878787"/>
<path d="M111.648 43.0429L103.702 40.4699C103.344 40.3541 102.963 40.3309 102.593 40.4026L95.0206 41.8725C94.827 41.9101 94.647 41.9985 94.4993 42.1286C94.3516 42.2587 94.2416 42.4256 94.1805 42.6122L93.9097 43.439L109.831 48.5942L111.648 43.0429Z" fill="#DCA48C"/>
<path d="M110.674 42.5752L107.636 48.3716L137.331 60.5882C138.461 60.7917 139.628 60.6363 140.665 60.1413L155.648 49.0569L150.314 38.416L134.362 46.502L110.674 42.5752Z" fill="#00243D"/>
<path d="M155.551 23.7121L148.182 32.7054L146.146 35.1887L145.911 34.6577L144.724 31.9865L142.891 27.8674C138.561 27.8674 135.518 28.25 134.169 24.2859C134.02 23.8407 133.89 23.3427 133.781 22.7854C133.635 22.0368 133.532 21.176 133.466 20.1933L131.119 19.5535L132.395 15.3652L133.224 12.6477C133.224 11.8134 133.234 10.702 133.35 9.52136C133.499 8.04392 133.821 6.45435 134.514 5.17477C134.911 4.43275 135.435 3.79296 136.121 3.33786C138.946 1.46796 139.291 3.15318 139.291 3.15318L148.769 7.59212L153.012 12.9281L153.642 18.4091L153.864 19.0258L155.592 23.1594L155.551 23.7121Z" fill="#FFCCB4"/>
<path d="M148.283 0.771738C150.882 0.0831425 152.404 1.2031 152.813 2.3313C154.788 2.5206 155.517 3.8381 155.318 5.28719C156.444 6.34118 156.973 7.32923 155.977 9.16383C157.371 10.8207 156.643 12.2038 155.873 13.0441C156.907 14.3778 156.311 15.6953 155.458 16.0758C155.914 17.7373 155.252 18.4618 153.89 19.0281C150.82 18.6759 150.531 16.7522 150.531 15.5762C150.531 15.4753 150.529 13.4478 150.528 13.3426C150.516 11.8015 149.995 11.0835 148.131 11.0393C145.71 10.9826 145.689 12.65 145.653 13.9731H142.87V9.5421C136.609 9.5421 138.282 5.15593 135.376 5.15593C134.878 5.15593 134.495 5.17374 134.495 5.17374C134.216 3.64023 134.745 1.00523 137.923 1.33271C138.718 0.742063 139.823 -0.707356 142.868 0.527366C144.657 0.0175158 146.643 -0.443857 148.283 0.771738ZM135.632 14.1479H136.257C136.496 14.1479 136.69 13.955 136.69 13.7162V13.0956C136.69 12.9811 136.645 12.8714 136.563 12.7905C136.482 12.7096 136.372 12.664 136.257 12.6639H135.632C135.517 12.6639 135.407 12.7095 135.325 12.7904C135.244 12.8713 135.198 12.9811 135.198 13.0956V13.7162C135.198 13.955 135.393 14.1479 135.632 14.1479Z" fill="#00243D"/>
<path d="M155.592 23.1591L142.785 33.5623C142.226 34.018 141.826 34.6383 141.644 35.3342L140.073 41.337L156.659 25.5606L155.592 23.1591Z" fill="#42B0D5"/>
<path d="M137.547 51.4319L138.991 92.2041L169.259 89.8323L169.122 82.4718L168.885 71.63L168.648 66.179L168.456 51.7363L168.446 51.2683L168.266 42.9765C168.209 40.3179 167.224 37.7617 165.481 35.7456L156.659 25.5601L143.348 36.8642C141.274 38.6488 139.663 40.905 138.653 43.4412C137.644 45.9774 137.264 48.7186 137.547 51.4319Z" fill="#F7F7F7"/>
<path d="M137.325 51.3689L137.868 63.0483L138.066 67.4279L138.272 71.8078L138.47 76.1874L138.295 94.8843C138.278 96.7295 138.643 98.5584 139.369 100.257C140.094 101.955 141.164 103.486 142.511 104.754C143.706 105.878 145.304 106.483 146.948 106.483H165.767C167.745 106.483 169.348 104.887 169.348 102.92V82.5892L169.209 76.1877L169.113 71.8078V71.7494L168.929 67.4279L168.878 66.2967L168.834 63.0483L168.687 51.858L168.673 51.3907L168.496 43.0985C168.44 40.4381 167.454 37.8802 165.708 35.8643L156.66 25.5601C156.66 25.5601 136.753 45.8651 137.325 51.3689Z" fill="#00243D"/>
<path d="M138.72 61.8206L151.36 42.6712C151.874 41.9447 152.497 41.1334 153.195 40.3663C155.152 38.2161 158.397 37.6762 160.872 39.2088C160.975 39.2727 161.072 39.3361 161.16 39.3984C164.25 41.5793 164.685 45.9978 162.319 48.9404L161.54 49.909L145.654 70.5906C144.701 72.5212 142.285 73.7229 140.775 73.4829L139.213 65.5L138.56 61.8206H138.72Z" fill="#00243D"/>
<path d="M111.581 54.1271C112.091 54.3388 112.488 54.7309 112.705 55.3219C112.96 55.9858 113.609 56.615 113.609 56.615C113.533 56.2569 115.261 58.4559 115.261 58.4559L112.017 63.3044C112.017 63.3044 109.403 60.9699 109.207 60.7347L109.177 60.7195C108.932 60.4326 104.033 56.4544 103.922 56.3433L99.1889 49.7139C98.8143 49.3867 98.5152 49.3112 98.8547 48.6635C99.2383 47.9324 100.128 48.1022 100.617 48.3558L105.039 51.4489L111.581 54.1271Z" fill="#FFCCB4"/>
<path d="M114.92 66.4178L117.791 57.3665L112.781 54.9327L109.498 62.5953C109.215 63.2743 109.537 64.0787 110.249 64.3497L114.919 66.4175L114.92 66.4178Z" fill="#00243D"/>
<path d="M115.609 56.8165L116.593 54.8787C116.625 54.8173 116.6 54.7423 116.538 54.7112L88.1827 40.4619C88.1209 40.4309 88.0455 40.4555 88.0143 40.517L87.0303 42.4548C86.9991 42.5162 87.0239 42.5912 87.0857 42.6222L115.441 56.8716C115.503 56.9026 115.578 56.878 115.609 56.8165Z" fill="#545454"/>
<path d="M138.56 61.8209L117.791 57.3665L114.919 66.4178L140.614 73.4828L140.954 73.1013C144.169 69.496 142.966 63.8254 138.56 61.8209ZM133.07 9.51506L133.36 9.52263L133.329 11.4743L145.688 11.7962C145.143 12.0946 145.065 12.7549 145.065 12.7549L133.314 12.4492L133.261 15.7935L133.013 15.7869C132.305 15.7688 132.308 14.9592 132.308 14.9592L132.381 10.3643C132.381 10.3643 132.445 9.4989 133.07 9.51506Z" fill="#00243D"/>
<path d="M118.011 26.1369C118.818 26.1369 119.473 25.4763 119.473 24.6614V8.40194C119.473 7.58703 118.818 6.92615 118.011 6.92615H83.4211C82.6139 6.92615 81.9595 7.58703 81.9595 8.40194V24.6614C81.9595 25.476 82.6139 26.1369 83.4215 26.1369H118.011Z" fill="#B2DFEE"/>
<path d="M112.092 30.0625V24.0004H103.839L110.501 30.728C111.088 31.3203 112.092 30.9008 112.092 30.0625Z" fill="#B2DFEE"/>
<path d="M87.7197 17.2325H105.004V18.1223H87.7197V17.2325ZM87.7197 12.6488H113.562V13.5386H87.7197V12.6488ZM87.7197 14.9405H114.221V15.8303H87.7197V14.9405ZM87.7197 19.5245H109.641V20.4143H87.7197V19.5245Z" fill="#42B0D5"/>
</svg>
