<svg width="193" height="192" viewBox="0 0 193 192" fill="none" xmlns="http://www.w3.org/2000/svg">
<path d="M30.9666 119.999C31.3896 128.048 32.3077 136.063 33.7155 143.999C35.5273 153.724 38.1229 161.627 41.6383 167.999C51.7492 186.327 69.4699 192 98.0371 192C126.604 192 144.324 186.327 154.434 167.999C157.949 161.627 160.544 153.724 162.355 143.998C163.763 136.062 164.681 128.047 165.104 119.999C165.543 112.708 165.75 104.73 165.75 95.9989C165.75 87.2694 165.542 79.2906 165.1 71.9981C164.674 63.9488 163.75 55.9336 162.334 47.9984C160.513 38.279 157.905 30.3742 154.373 23.9976C144.252 5.73102 126.548 -1.71354e-06 98.0371 -2.95982e-06C69.5257 -4.20609e-06 51.8211 5.73102 41.6983 23.9997C38.1668 30.3753 35.5584 38.2801 33.7369 48.0005C32.3208 55.9357 31.397 63.9509 30.9709 72.0003C30.5292 79.2917 30.3212 87.2716 30.3212 96C30.3212 104.731 30.5281 112.709 30.9666 120.001L30.9666 119.999Z" fill="#E9F6FC"/>
<mask id="mask0_11503_1847" style="mask-type:alpha" maskUnits="userSpaceOnUse" x="30" y="0" width="136" height="192">
<path d="M30.9666 119.999C31.3896 128.048 32.3077 136.063 33.7155 143.999C35.5273 153.724 38.1229 161.627 41.6383 167.999C51.7492 186.327 69.4699 192 98.0371 192C126.604 192 144.324 186.327 154.434 167.999C157.949 161.627 160.544 153.724 162.355 143.998C163.763 136.062 164.681 128.047 165.104 119.999C165.543 112.708 165.75 104.73 165.75 95.9989C165.75 87.2694 165.542 79.2906 165.1 71.9981C164.674 63.9488 163.75 55.9336 162.334 47.9984C160.513 38.279 157.905 30.3742 154.373 23.9976C144.252 5.73102 126.548 -1.71354e-06 98.0371 -2.95982e-06C69.5257 -4.20609e-06 51.8211 5.73102 41.6983 23.9997C38.1668 30.3753 35.5584 38.2801 33.7369 48.0005C32.3208 55.9357 31.397 63.9509 30.9709 72.0003C30.5292 79.2917 30.3212 87.2716 30.3212 96C30.3212 104.731 30.5281 112.709 30.9666 120.001L30.9666 119.999Z" fill="#E9F6FC"/>
</mask>
<g mask="url(#mask0_11503_1847)">
<path d="M28.4998 159.429H163.071V192H28.4998V159.429Z" fill="#CFCFCF"/>
<path d="M104.443 14.4266V120.812H-126.015V26.6405H-106.013V53.6351H-100.88V38.3234H-75.4803V62.5742H-72.1172V5.75293H-49.9919V21.3301H-38.6637V40.7131H-35.3006V28.4992H-15.2108V64.9639H-9.2812V35.3142H9.0386V12.8335H21.5173V0H36.0316V56.8213H40.8991V33.1015H64.706V67.0881H67.9806V39.3855H92.1415V14.4266H104.443Z" fill="#B0D4E7"/>
<path d="M-123.625 30.0043H-120.262V35.1377H-123.625V30.0043ZM-117.696 30.0043H-114.333V35.1377H-117.696V30.0043ZM-111.855 30.0043H-108.492V35.1377H-111.855V30.0043ZM-123.625 37.7929H-120.262V42.9262H-123.625V37.7929ZM-117.696 37.7929H-114.333V42.9262H-117.696V37.7929ZM-111.855 37.7929H-108.492V42.9262H-111.855V37.7929ZM-123.625 45.5814H-120.262V50.7148H-123.625V45.5814ZM-117.696 45.5814H-114.333V50.7148H-117.696V45.5814ZM-111.855 45.5814H-108.492V50.7148H-111.855V45.5814ZM-123.625 53.2815H-120.262V58.4149H-123.625V53.2815ZM-117.696 53.2815H-114.333V58.4149H-117.696V53.2815ZM-111.855 53.2815H-108.492V58.4149H-111.855V53.2815ZM-6.44955 39.0319H-3.0865V43.3688H-6.44955V39.0319ZM-0.608444 39.0319H2.7546V43.3688H-0.608444V39.0319ZM5.23267 39.0319H8.5957V43.3688H5.23267V39.0319ZM-6.44955 45.4929H-3.0865V49.8298H-6.44955V45.4929ZM-0.608444 45.4929H2.7546V49.8298H-0.608444V45.4929ZM5.23267 45.4929H8.5957V49.8298H5.23267V45.4929ZM-6.44955 51.9539H-3.0865V56.2908H-6.44955V51.9539ZM-0.608444 51.9539H2.7546V56.2908H-0.608444V51.9539ZM5.23267 51.9539H8.5957V56.2908H5.23267V51.9539ZM-6.44955 58.5034H-3.0865V62.8403H-6.44955V58.5034ZM-0.608444 58.5034H2.7546V62.8403H-0.608444V58.5034ZM5.23267 58.5034H8.5957V62.8403H5.23267V58.5034ZM-6.44955 65.1414H-3.0865V69.4783H-6.44955V65.1414ZM-0.608444 65.1414H2.7546V69.4783H-0.608444V65.1414ZM5.23267 65.1414H8.5957V69.4783H5.23267V65.1414ZM-6.44955 71.7794H-3.0865V76.1163H-6.44955V71.7794ZM-0.608444 71.7794H2.7546V76.1163H-0.608444V71.7794ZM5.23267 71.7794H8.5957V76.1163H5.23267V71.7794ZM-6.44955 78.4174H-3.0865V82.7543H-6.44955V78.4174ZM-0.608444 78.4174H2.7546V82.7543H-0.608444V78.4174ZM5.23267 78.4174H8.5957V82.7543H5.23267V78.4174ZM-6.44955 85.0554H-3.0865V89.3923H-6.44955V85.0554ZM-0.608444 85.0554H2.7546V89.3923H-0.608444V85.0554ZM5.23267 85.0554H8.5957V89.3923H5.23267V85.0554ZM-98.0486 41.5986H-78.5782V44.7849H-98.0486V41.5986ZM-98.0486 47.8826H-78.5782V51.0689H-98.0486V47.8826ZM-98.0486 54.1666H-78.5782V57.3528H-98.0486V54.1666ZM-98.0486 60.4506H-78.5782V63.6368H-98.0486V60.4506ZM-98.0486 66.7345H-78.5782V69.9208H-98.0486V66.7345ZM-98.0486 72.93H-78.5782V76.1163H-98.0486V72.93ZM-98.0486 79.214H-78.5782V82.4002H-98.0486V79.214ZM-98.0486 85.498H-78.5782V88.6842H-98.0486V85.498ZM43.7308 36.1112H61.6081V39.2975H43.7308V36.1112ZM43.7308 42.3952H61.6081V45.5814H43.7308V42.3952ZM43.7308 48.6792H61.6081V51.8654H43.7308V48.6792ZM43.7308 54.9632H61.6081V58.1494H43.7308V54.9632ZM43.7308 61.2471H61.6081V64.4334H43.7308V61.2471ZM43.7308 67.4426H61.6081V70.6288H43.7308V67.4426ZM43.7308 73.7266H61.6081V76.9128H43.7308V73.7266ZM43.7308 80.0105H61.6081V83.1968H43.7308V80.0105ZM43.7308 85.9405H61.6081V89.1267H43.7308V85.9405ZM43.7308 91.959H61.6081V95.1452H43.7308V91.959ZM43.7308 97.8889H61.6081V101.075H43.7308V97.8889ZM43.7308 103.819H61.6081V107.005H43.7308V103.819ZM43.7308 109.749H61.6081V112.935H43.7308V109.749ZM71.6972 43.7228H90.6366V46.909H71.6972V43.7228ZM71.6972 50.0068H90.6366V53.193H71.6972V50.0068ZM71.6972 56.2908H90.6366V59.477H71.6972V56.2908ZM71.6972 62.4862H90.6366V65.6725H71.6972V62.4862ZM71.6972 68.7702H90.6366V71.9564H71.6972V68.7702ZM71.6972 75.0542H90.6366V78.2404H71.6972V75.0542ZM71.6972 81.3382H90.6366V84.5244H71.6972V81.3382ZM71.6972 87.5336H90.6366V90.7199H71.6972V87.5336ZM71.6972 93.198H90.6366V96.3843H71.6972V93.198ZM71.6972 98.774H90.6366V101.96H71.6972V98.774ZM71.6972 104.438H90.6366V107.625H71.6972V104.438ZM-29.3714 73.8151H-23.3533V76.9128H-29.3714V73.8151ZM-21.2293 73.8151H-15.2112V76.9128H-21.2293V73.8151ZM-68.7546 9.02818H-62.471V13.9846H-68.7546V9.02818ZM-59.4619 9.02818H-53.1783V13.9846H-59.4619V9.02818ZM-68.7546 16.1972H-62.471V21.1536H-68.7546V16.1972ZM-59.4619 16.1972H-53.1783V21.1536H-59.4619V16.1972ZM-68.7546 23.4548H-62.471V28.4111H-68.7546V23.4548ZM-59.4619 23.4548H-53.1783V28.4111H-59.4619V23.4548ZM-68.7546 30.7123H-62.471V35.6687H-68.7546V30.7123ZM-59.4619 30.7123H-53.1783V35.6687H-59.4619V30.7123ZM-68.7546 37.8814H-62.471V42.8377H-68.7546V37.8814ZM-59.4619 37.8814H-53.1783V42.8377H-59.4619V37.8814ZM-68.7546 45.1389H-62.471V50.0953H-68.7546V45.1389ZM-59.4619 45.1389H-53.1783V50.0953H-59.4619V45.1389ZM-68.7546 52.3079H-62.471V57.2643H-68.7546V52.3079ZM-59.4619 52.3079H-53.1783V57.2643H-59.4619V52.3079ZM-68.7546 59.5655H-62.471V64.5219H-68.7546V59.5655ZM-59.4619 59.5655H-53.1783V64.5219H-59.4619V59.5655ZM-47.8682 23.4548H-41.5846V28.4111H-47.8682V23.4548ZM-47.8682 30.7123H-41.5846V35.6687H-47.8682V30.7123ZM-47.8682 37.8814H-41.5846V42.8377H-47.8682V37.8814ZM-47.8682 45.1389H-41.5846V50.0953H-47.8682V45.1389ZM-47.8682 52.3079H-41.5846V57.2643H-47.8682V52.3079ZM-47.8682 59.5655H-41.5846V64.5219H-47.8682V59.5655ZM-68.7546 66.7345H-62.471V71.6909H-68.7546V66.7345ZM-59.4619 66.7345H-53.1783V71.6909H-59.4619V66.7345ZM-47.8682 66.7345H-41.5846V71.6909H-47.8682V66.7345ZM-68.7546 73.8151H-62.471V78.7715H-68.7546V73.8151ZM-59.4619 73.8151H-53.1783V78.7715H-59.4619V73.8151ZM-47.8682 73.8151H-41.5846V78.7715H-47.8682V73.8151ZM-68.7546 80.9841H-62.471V85.9405H-68.7546V80.9841ZM-59.4619 80.9841H-53.1783V85.9405H-59.4619V80.9841ZM-47.8682 80.9841H-41.5846V85.9405H-47.8682V80.9841ZM-68.7546 88.1532H-62.471V93.1095H-68.7546V88.1532ZM-59.4619 88.1532H-53.1783V93.1095H-59.4619V88.1532ZM-47.8682 88.1532H-41.5846V93.1095H-47.8682V88.1532ZM-68.7546 95.2337H-62.471V100.19H-68.7546V95.2337ZM-59.4619 95.2337H-53.1783V100.19H-59.4619V95.2337ZM-47.8682 95.2337H-41.5846V100.19H-47.8682V95.2337ZM11.6048 16.0202H14.9678V20.357H11.6048V16.0202ZM17.4458 16.0202H20.8089V20.357H17.4458V16.0202ZM11.6048 22.4812H14.9678V26.818H11.6048V22.4812ZM17.4458 22.4812H20.8089V26.818H17.4458V22.4812ZM11.6048 28.9422H14.9678V33.279H11.6048V28.9422ZM17.4458 28.9422H20.8089V33.279H17.4458V28.9422ZM11.6048 35.4917H14.9678V39.8285H11.6048V35.4917ZM17.4458 35.4917H20.8089V39.8285H17.4458V35.4917ZM11.6048 42.1297H14.9678V46.4665H11.6048V42.1297ZM17.4458 42.1297H20.8089V46.4665H17.4458V42.1297ZM11.6048 48.7677H14.9678V53.1045H11.6048V48.7677ZM17.4458 48.7677H20.8089V53.1045H17.4458V48.7677ZM11.6048 55.4057H14.9678V59.7425H11.6048V55.4057ZM17.4458 55.4057H20.8089V59.7425H17.4458V55.4057ZM11.6048 62.0437H14.9678V66.3805H11.6048V62.0437ZM17.4458 62.0437H20.8089V66.3805H17.4458V62.0437ZM11.6048 68.7702H14.9678V73.107H11.6048V68.7702ZM17.4458 68.7702H20.8089V73.107H17.4458V68.7702ZM11.6048 75.4082H14.9678V79.745H11.6048V75.4082ZM17.4458 75.4082H20.8089V79.745H17.4458V75.4082ZM11.6048 82.1347H14.9678V86.4715H11.6048V82.1347ZM17.4458 82.1347H20.8089V86.4715H17.4458V82.1347ZM11.6048 88.8612H14.9678V93.198H11.6048V88.8612ZM17.4458 88.8612H20.8089V93.198H17.4458V88.8612ZM94.1766 16.7283H97.5397V21.7731H94.1766V16.7283ZM100.106 16.7283H103.469V21.7731H100.106V16.7283ZM94.1766 24.3398H97.5397V29.3847H94.1766V24.3398ZM100.106 24.3398H103.469V29.3847H100.106V24.3398ZM94.1766 31.9514H97.5397V36.9963H94.1766V31.9514ZM100.106 31.9514H103.469V36.9963H100.106V31.9514ZM94.1766 39.6515H97.5397V44.6964H94.1766V39.6515ZM100.106 39.6515H103.469V44.6964H100.106V39.6515ZM94.1766 47.4401H97.5397V52.485H94.1766V47.4401ZM100.106 47.4401H103.469V52.485H100.106V47.4401ZM94.1766 55.2287H97.5397V60.2736H94.1766V55.2287ZM100.106 55.2287H103.469V60.2736H100.106V55.2287ZM94.1766 63.1058H97.5397V68.1507H94.1766V63.1058ZM100.106 63.1058H103.469V68.1507H100.106V63.1058ZM94.1766 70.8944H97.5397V75.9392H94.1766V70.8944ZM100.106 70.8944H103.469V75.9392H100.106V70.8944ZM94.1766 78.86H97.5397V83.9048H94.1766V78.86ZM100.106 78.86H103.469V83.9048H100.106V78.86ZM94.1766 86.7371H97.5397V91.7819H94.1766V86.7371ZM100.106 86.7371H103.469V91.7819H100.106V86.7371ZM94.1766 94.6142H97.5397V99.659H94.1766V94.6142ZM100.106 94.6142H103.469V99.659H100.106V94.6142ZM94.1766 102.58H97.5397V107.625H94.1766V102.58ZM100.106 102.58H103.469V107.625H100.106V102.58ZM24.172 16.0202H27.535V20.357H24.172V16.0202ZM30.0131 16.0202H33.3761V20.357H30.0131V16.0202ZM24.172 9.3822H27.535V13.719H24.172V9.3822ZM30.0131 9.3822H33.3761V13.719H30.0131V9.3822ZM24.172 2.7442H27.535V7.08103H24.172V2.7442ZM30.0131 2.7442H33.3761V7.08103H30.0131V2.7442ZM24.172 22.4812H27.535V26.818H24.172V22.4812ZM30.0131 22.4812H33.3761V26.818H30.0131V22.4812ZM24.172 28.9422H27.535V33.279H24.172V28.9422ZM30.0131 28.9422H33.3761V33.279H30.0131V28.9422ZM24.172 35.4917H27.535V39.8285H24.172V35.4917ZM30.0131 35.4917H33.3761V39.8285H30.0131V35.4917ZM24.172 42.1297H27.535V46.4665H24.172V42.1297ZM30.0131 42.1297H33.3761V46.4665H30.0131V42.1297ZM24.172 48.7677H27.535V53.1045H24.172V48.7677ZM30.0131 48.7677H33.3761V53.1045H30.0131V48.7677ZM24.172 55.4057H27.535V59.7425H24.172V55.4057ZM30.0131 55.4057H33.3761V59.7425H30.0131V55.4057ZM24.172 62.0437H27.535V66.3805H24.172V62.0437ZM30.0131 62.0437H33.3761V66.3805H30.0131V62.0437ZM24.172 68.7702H27.535V73.107H24.172V68.7702ZM30.0131 68.7702H33.3761V73.107H30.0131V68.7702ZM24.172 75.4082H27.535V79.745H24.172V75.4082ZM30.0131 75.4082H33.3761V79.745H30.0131V75.4082ZM24.172 82.1347H27.535V86.4715H24.172V82.1347ZM30.0131 82.1347H33.3761V86.4715H30.0131V82.1347ZM24.172 88.8612H27.535V93.198H24.172V88.8612ZM30.0131 88.8612H33.3761V93.198H30.0131V88.8612Z" fill="white"/>
<path d="M235.071 120.812H68.1575V26.6411H88.1588V53.6357H93.2919V38.324H118.692V62.5748H122.055V5.75354H144.18V21.3307H155.508V40.7137H158.96V28.4998H179.05V64.9645H184.891V35.3148H203.299V12.8341H215.778L230.204 12.9226V56.8219H235.071V120.812Z" fill="#B0D4E7"/>
<path d="M70.6357 30.0041H73.9988V35.1375H70.6357V30.0041ZM76.4768 30.0041H79.8399V35.1375H76.4768V30.0041ZM82.3179 30.0041H85.681V35.1375H82.3179V30.0041ZM70.6357 37.7927H73.9988V42.9261H70.6357V37.7927ZM76.4768 37.7927H79.8399V42.9261H76.4768V37.7927ZM82.3179 37.7927H85.681V42.9261H82.3179V37.7927ZM70.6357 45.5813H73.9988V50.7147H70.6357V45.5813ZM76.4768 45.5813H79.8399V50.7147H76.4768V45.5813ZM82.3179 45.5813H85.681V50.7147H82.3179V45.5813ZM70.6357 53.2814H73.9988V58.4147H70.6357V53.2814ZM76.4768 53.2814H79.8399V58.4147H76.4768V53.2814ZM82.3179 53.2814H85.681V58.4147H82.3179V53.2814ZM187.723 39.0318H191.086V43.3686H187.723V39.0318ZM193.564 39.0318H196.927V43.3686H193.564V39.0318ZM199.494 39.0318H202.857V43.3686H199.494V39.0318ZM187.723 45.4928H191.086V49.8296H187.723V45.4928ZM193.564 45.4928H196.927V49.8296H193.564V45.4928ZM199.494 45.4928H202.857V49.8296H199.494V45.4928ZM187.723 51.9538H191.086V56.2906H187.723V51.9538ZM193.564 51.9538H196.927V56.2906H193.564V51.9538ZM199.494 51.9538H202.857V56.2906H199.494V51.9538ZM187.723 58.5032H191.086V62.8401H187.723V58.5032ZM193.564 58.5032H196.927V62.8401H193.564V58.5032ZM199.494 58.5032H202.857V62.8401H199.494V58.5032ZM187.723 65.1412H191.086V69.4781H187.723V65.1412ZM193.564 65.1412H196.927V69.4781H193.564V65.1412ZM199.494 65.1412H202.857V69.4781H199.494V65.1412ZM187.723 71.7792H191.086V76.1161H187.723V71.7792ZM193.564 71.7792H196.927V76.1161H193.564V71.7792ZM199.494 71.7792H202.857V76.1161H199.494V71.7792ZM187.723 78.4173H191.086V82.7541H187.723V78.4173ZM193.564 78.4173H196.927V82.7541H193.564V78.4173ZM199.494 78.4173H202.857V82.7541H199.494V78.4173ZM187.723 85.0553H191.086V89.3921H187.723V85.0553ZM193.564 85.0553H196.927V89.3921H193.564V85.0553ZM199.494 85.0553H202.857V89.3921H199.494V85.0553ZM96.2127 41.5985H115.683V44.7847H96.2127V41.5985ZM96.2127 47.8824H115.683V51.0687H96.2127V47.8824ZM96.2127 54.1664H115.683V57.3527H96.2127V54.1664ZM96.2127 60.4504H115.683V63.6366H96.2127V60.4504ZM96.2127 66.7344H115.683V69.9206H96.2127V66.7344ZM96.2127 72.9298H115.683V76.1161H96.2127V72.9298ZM96.2127 79.2138H115.683V82.4H96.2127V79.2138ZM96.2127 85.4978H115.683V88.684H96.2127V85.4978ZM125.418 9.02802H131.702V13.9844H125.418V9.02802ZM134.799 9.02802H141.083V13.9844H134.799V9.02802ZM125.418 16.1971H131.702V21.1534H125.418V16.1971ZM134.799 16.1971H141.083V21.1534H134.799V16.1971ZM125.418 23.4546H131.702V28.411H125.418V23.4546ZM134.799 23.4546H141.083V28.411H134.799V23.4546ZM125.418 30.7122H131.702V35.6685H125.418V30.7122ZM134.799 30.7122H141.083V35.6685H134.799V30.7122ZM125.418 37.8812H131.702V42.8376H125.418V37.8812ZM134.799 37.8812H141.083V42.8376H134.799V37.8812ZM125.418 45.1387H131.702V50.0951H125.418V45.1387ZM134.799 45.1387H141.083V50.0951H134.799V45.1387ZM125.418 52.3078H131.702V57.2642H125.418V52.3078ZM134.799 52.3078H141.083V57.2642H134.799V52.3078ZM125.418 59.5653H131.702V64.5217H125.418V59.5653ZM134.799 59.5653H141.083V64.5217H134.799V59.5653ZM146.393 23.4546H152.677V28.411H146.393V23.4546ZM146.393 30.7122H152.677V35.6685H146.393V30.7122ZM146.393 37.8812H152.677V42.8376H146.393V37.8812ZM146.393 45.1387H152.677V50.0951H146.393V45.1387ZM146.393 52.3078H152.677V57.2642H146.393V52.3078ZM146.393 59.5653H152.677V64.5217H146.393V59.5653ZM125.418 66.7344H131.702V71.6908H125.418V66.7344ZM134.799 66.7344H141.083V71.6908H134.799V66.7344ZM146.393 66.7344H152.677V71.6908H146.393V66.7344ZM125.418 73.8149H131.702V78.7713H125.418V73.8149ZM134.799 73.8149H141.083V78.7713H134.799V73.8149ZM146.393 73.8149H152.677V78.7713H146.393V73.8149ZM125.418 80.9839H131.702V85.9403H125.418V80.9839ZM134.799 80.9839H141.083V85.9403H134.799V80.9839ZM146.393 80.9839H152.677V85.9403H146.393V80.9839ZM125.418 88.153H131.702V93.1094H125.418V88.153ZM134.799 88.153H141.083V93.1094H134.799V88.153ZM146.393 88.153H152.677V93.1094H146.393V88.153ZM125.418 95.2335H131.702V100.19H125.418V95.2335ZM134.799 95.2335H141.083V100.19H134.799V95.2335ZM146.393 95.2335H152.677V100.19H146.393V95.2335ZM205.866 16.02H209.229V20.3569H205.866V16.02ZM211.707 16.02H215.07V20.3569H211.707V16.02ZM205.866 22.481H209.229V26.8179H205.866V22.481ZM211.707 22.481H215.07V26.8179H211.707V22.481ZM205.866 28.942H209.229V33.2788H205.866V28.942ZM211.707 28.942H215.07V33.2788H211.707V28.942ZM205.866 35.4915H209.229V39.8283H205.866V35.4915ZM211.707 35.4915H215.07V39.8283H211.707V35.4915ZM205.866 42.1295H209.229V46.4663H205.866V42.1295ZM211.707 42.1295H215.07V46.4663H211.707V42.1295ZM205.866 48.7675H209.229V53.1043H205.866V48.7675ZM211.707 48.7675H215.07V53.1043H211.707V48.7675ZM205.866 55.4055H209.229V59.7423H205.866V55.4055ZM211.707 55.4055H215.07V59.7423H211.707V55.4055ZM205.866 62.0435H209.229V66.3803H205.866V62.0435ZM211.707 62.0435H215.07V66.3803H211.707V62.0435ZM205.866 68.77H209.229V73.1068H205.866V68.77ZM211.707 68.77H215.07V73.1068H211.707V68.77ZM205.866 75.408H209.229V79.7449H205.866V75.408ZM211.707 75.408H215.07V79.7449H211.707V75.408ZM205.866 82.1345H209.229V86.4714H205.866V82.1345ZM211.707 82.1345H215.07V86.4714H211.707V82.1345ZM205.866 88.861H209.229V93.1979H205.866V88.861ZM211.707 88.861H215.07V93.1979H211.707V88.861ZM218.345 16.02H221.708V20.3569H218.345V16.02ZM224.186 16.02H227.549V20.3569H224.186V16.02ZM218.345 22.481H221.708V26.8179H218.345V22.481ZM224.186 22.481H227.549V26.8179H224.186V22.481ZM218.345 28.942H221.708V33.2788H218.345V28.942ZM224.186 28.942H227.549V33.2788H224.186V28.942ZM218.345 35.4915H221.708V39.8283H218.345V35.4915ZM224.186 35.4915H227.549V39.8283H224.186V35.4915ZM218.345 42.1295H221.708V46.4663H218.345V42.1295ZM224.186 42.1295H227.549V46.4663H224.186V42.1295ZM218.345 48.7675H221.708V53.1043H218.345V48.7675ZM224.186 48.7675H227.549V53.1043H224.186V48.7675ZM218.345 55.4055H221.708V59.7423H218.345V55.4055ZM224.186 55.4055H227.549V59.7423H224.186V55.4055ZM218.345 62.0435H221.708V66.3803H218.345V62.0435ZM224.186 62.0435H227.549V66.3803H224.186V62.0435ZM218.345 68.77H221.708V73.1068H218.345V68.77ZM224.186 68.77H227.549V73.1068H224.186V68.77ZM218.345 75.408H221.708V79.7449H218.345V75.408ZM224.186 75.408H227.549V79.7449H224.186V75.408ZM218.345 82.1345H221.708V86.4714H218.345V82.1345ZM224.186 82.1345H227.549V86.4714H224.186V82.1345ZM218.345 88.861H221.708V93.1979H218.345V88.861ZM224.186 88.861H227.549V93.1979H224.186V88.861Z" fill="white"/>
<path d="M95.9624 128.691H101.936V173.787H95.9624V128.691Z" fill="#ABB7C0"/>
<path d="M113.737 133.573V131.605H84.1602V133.573C84.1602 134.665 85.0344 135.54 86.1271 135.54H111.77C112.863 135.612 113.737 134.665 113.737 133.573ZM96.8361 105.815H100.989V126.433H96.8361V105.815Z" fill="#ABB7C0"/>
<path d="M79.9354 108.51C77.3857 108.51 75.273 106.397 75.273 103.848V74.4872C75.273 71.9373 77.3857 69.8245 79.9354 69.8245H118.036C120.586 69.8245 122.698 71.9373 122.698 74.4872V103.848C122.698 106.397 120.586 108.51 118.036 108.51H79.9354ZM68.2065 128.691V132.989H129.619V128.691C129.619 126.287 127.652 124.392 125.321 124.392H72.5775C70.1735 124.392 68.2065 126.36 68.2065 128.691Z" fill="#FFAEA4"/>
<path d="M98.9491 171.311L78.3325 177.212C77.0941 177.576 76.2927 178.669 76.2927 179.908V181.729L98.9491 178.596L121.605 181.729V179.908C121.605 178.669 120.804 177.576 119.566 177.212L98.9491 171.311Z" fill="#ABB7C0"/>
<path d="M172.892 112.08H25.006L18.4495 188.941H23.3304C23.3304 188.941 37.2448 138.016 40.523 126.214C41.2515 123.591 42.4172 121.988 45.6954 121.988H152.202C155.481 121.988 156.646 123.518 157.375 126.214C160.653 138.016 174.567 188.941 174.567 188.941H179.448L172.892 112.08Z" fill="#A9A9A9"/>
<path d="M180.541 107.855C180.541 110.988 179.813 112.518 173.766 112.518H24.4234C18.3768 112.518 17.3569 112.226 17.3569 107.855H180.541Z" fill="#7F919F"/>
<path d="M31.927 84.6135C31.927 80.7522 33.0197 79.8051 35.8609 79.8051C38.6292 79.8051 39.722 80.7522 39.722 84.6135C39.722 88.4748 38.5564 89.4219 35.8609 89.4219C33.0926 89.4219 31.927 88.4748 31.927 84.6135ZM39.8677 78.1294C39.8677 75.2881 40.669 74.5596 42.7817 74.5596C44.8215 74.5596 45.6228 75.2881 45.6228 78.1294C45.6228 80.9708 44.7486 81.6993 42.7817 81.6993C40.7419 81.6265 39.8677 80.9708 39.8677 78.1294Z" fill="#7FBCB5"/>
<path d="M29.1589 80.0969C29.1589 77.6198 29.8874 76.9641 31.7087 76.9641C33.5299 76.9641 34.2584 77.5469 34.2584 80.0969C34.2584 82.6468 33.5299 83.2296 31.7087 83.2296C29.8874 83.2296 29.1589 82.5739 29.1589 80.0969ZM41.1064 89.2037C41.1064 86.7995 41.762 86.2166 43.5104 86.2166C45.186 86.2166 45.9145 86.7995 45.9145 89.2037C45.9145 91.6079 45.186 92.1907 43.5104 92.1907C41.762 92.1907 41.1064 91.6079 41.1064 89.2037ZM38.848 98.0919H37.9009V83.3024C37.9009 82.3553 38.3381 81.4082 39.0666 80.8254L41.1064 79.0769L41.762 79.8054L39.7222 81.5539C39.2123 81.9911 38.9208 82.6468 38.9208 83.3024L38.848 98.0919Z" fill="#7FBCB5"/>
<path d="M41.2514 108.146H35.3505C34.9134 108.146 34.5492 107.854 34.4763 107.417L32.4365 95.6877H44.1654L42.1256 107.417C42.0528 107.854 41.6885 108.146 41.2514 108.146Z" fill="#A8B4BE"/>
<path d="M120.367 79.5871H151.401C153.441 79.5871 155.044 81.1899 155.044 83.2298V104.139C155.044 106.179 153.441 107.782 151.401 107.782H120.367C118.327 107.782 116.724 106.179 116.724 104.139V83.2298C116.724 81.1899 118.327 79.5871 120.367 79.5871Z" fill="#CFCFCF"/>
</g>
<path d="M72.9195 66.4209L77.9602 65.7562C78.2925 65.7008 78.6249 65.8116 78.9018 65.9777L83.8317 69.3015C84.2749 69.5785 84.4965 70.1324 84.4411 70.631L84.2749 71.9051C84.2195 72.459 83.7764 72.9022 83.2224 73.0684L77.6832 74.3979C77.2955 74.5086 76.9631 74.3979 76.6308 74.2317L72.0332 71.3511L72.9195 66.4209Z" fill="#B4816B"/>
<path fill-rule="evenodd" clip-rule="evenodd" d="M74.4706 69.244C74.1937 69.521 74.0275 69.8534 74.0275 70.2411C74.0275 70.5181 73.4182 71.0167 73.4736 71.4044C73.529 72.0138 74.6368 72.4016 75.1907 72.5124C74.803 72.457 70.9809 72.3462 70.5932 72.3462C68.2667 72.0138 65.9402 72.0138 63.6138 72.2908L66.6603 66.1973L74.1937 66.3081H74.3045C74.2491 66.3635 74.1937 66.3635 74.1937 66.4189C72.9197 67.5822 75.08 68.6901 74.4706 69.244Z" fill="#B4816B"/>
<path d="M62.7266 63.4838L69.3182 64.3701L68.0996 73.178C67.9888 73.8427 67.3795 74.2859 66.7148 74.2305L61.2864 73.5103" fill="#AAE1F8"/>
<path d="M45.1121 57.9438L63.2807 62.5416L61.8959 72.5682L44.7244 70.1862" fill="#00243F"/>
<path d="M61.0098 182.473V186.351C61.0098 187.68 62.0622 188.788 63.447 188.788L85.4377 188.843C85.4377 186.849 84.2191 185.076 82.3912 184.356L69.2632 179.315L61.0098 182.473Z" fill="#545454"/>
<path d="M33.812 90.5715L48.8233 135.83L58.5723 184.024L71.6449 180.201L65.3302 133.337C64.9978 131.176 64.5547 128.961 64.0008 126.856L57.4091 91.5133L33.812 90.5715Z" fill="#00243F"/>
<path d="M27.2209 185.685V190.006C27.2209 191.114 28.1072 192 29.2151 192H51.6489V190.837C51.6489 189.563 50.8734 188.399 49.6548 187.956L35.419 182.527L27.2209 185.685Z" fill="#545454"/>
<path d="M31.4861 90.5715L33.0371 98.5485L32.0955 131.343L27.2209 185.686L42.0107 184.079L46.9406 134.223C47.3837 133.115 47.7161 132.007 47.9376 130.844L55.0832 91.5133L31.4861 90.5715Z" fill="#405B6F"/>
<path d="M60.2893 3.10069C57.5197 1.27264 57.1873 2.60213 57.1873 2.60213L47.8814 6.97837L43.727 12.2409L43.1177 17.6697L41.2344 22.9323L50.4849 34.2883L54.0854 25.8128L63.0035 19.6085V19.0546L65.2746 18.1682L63.8344 12.8503C63.8344 6.70139 63.0589 4.98413 60.2893 3.10069Z" fill="#DCA48C"/>
<path d="M42.8408 18.2805C41.4006 16.674 40.7913 15.1784 40.7913 8.5309C40.7913 1.88345 45.3334 0 52.3128 0C59.403 0 61.1756 1.49567 62.0619 4.59782H57.0212C55.3594 4.59782 54.1408 5.48415 54.1408 7.75536V16.5632C54.1408 18.1697 55.4148 19.4992 57.0212 19.4992H63.0035C63.0035 19.4992 63.2251 21.4934 62.3388 21.9366C63.0035 22.7121 63.1143 23.2661 63.0035 25.1495C62.8928 27.2546 61.5633 27.5869 56.9658 27.5869C51.4266 27.5869 50.9834 26.1466 51.0388 21.6042C51.0388 20.1639 50.9834 13.8489 50.928 12.6302C50.8726 11.3007 50.8726 10.2482 48.4908 10.3036C46.6628 10.3589 46.1643 11.0791 46.1643 12.5748V14.7906C46.1089 16.0093 45.1118 19.2222 42.8408 18.2805Z" fill="#CFCFCF"/>
<path d="M61.0647 13.1829H60.4553C60.2338 13.1829 60.0122 13.0167 60.0122 12.7397V12.1304C60.0122 11.9088 60.1784 11.6872 60.4553 11.6872H61.0647C61.2862 11.6872 61.5078 11.8534 61.5078 12.1304V12.7397C61.4524 12.9613 61.2862 13.1829 61.0647 13.1829Z" fill="#00243F"/>
<path d="M41.4009 22.6575L52.147 29.5819L53.3102 35.5647L40.4038 24.8733L41.4009 22.6575ZM62.7822 21.4942L60.345 21.6604C60.345 21.6604 60.6773 22.8237 62.7822 22.7129V21.4942Z" fill="#DCA48C"/>
<path d="M53.5324 35.5646L54.4741 36.2848C55.7481 37.3373 56.5236 38.8884 56.5236 40.5502V48.1948L52.9231 40.1071L53.5324 35.5646Z" fill="#FF5E4B"/>
<path d="M40.6811 24.0413L52.7566 34.0124C53.1997 34.4002 53.532 34.8988 53.6428 35.4527L55.1938 41.3246L39.5178 26.3125L40.6811 24.0413Z" fill="#AAE1F8"/>
<path d="M62.45 100.653L56.5784 74.0634L57.5755 50.9635C58.074 45.7009 55.9691 40.5492 51.9809 37.1146L39.4623 26.2571L31.652 31.2981C29.3809 32.7384 27.7745 35.0096 27.0544 37.6132L19.1887 66.585C18.6902 68.4685 19.1887 70.4627 20.5735 71.8476L29.824 76.8886L27.2206 99.9331L62.45 100.653Z" fill="#00243F"/>
<path fill-rule="evenodd" clip-rule="evenodd" d="M62.9488 76.9996C62.6165 77.2766 62.4503 77.7197 62.5057 78.1629C62.5057 78.4953 62.5611 78.9384 62.6165 79.3816C62.7273 80.0463 63.2258 80.5449 63.8905 80.6557C63.4474 80.6003 63.0042 80.5449 62.6165 80.4895C60.013 80.2125 57.4096 80.3233 54.8616 80.7111L57.9635 73.7313L66.3278 73.5651H66.4939L66.3278 73.7313C64.9983 75.0053 63.6689 76.3348 62.9488 76.9996Z" fill="#DCA48C"/>
<path d="M79.2343 78.6612C78.5142 79.2706 77.7387 79.8246 76.9078 80.2123C73.6397 81.708 71.3686 81.9296 67.4358 81.2648H67.325C67.2142 81.2648 67.048 81.2094 66.9372 81.2094C66.3833 81.0986 65.774 80.9879 65.1093 80.8771C64.7215 80.7663 64.3338 80.7109 63.8907 80.6555C63.226 80.5447 62.7274 80.0461 62.6166 79.3814C62.5612 78.9382 62.5059 78.4951 62.5059 78.1627C62.4505 77.7195 62.6166 77.3318 62.949 76.9994C63.6137 76.3346 64.9431 75.0605 66.3279 73.7311L66.4941 73.5649H66.6049C66.8818 73.2325 67.1588 72.9555 67.4358 72.6785C67.4912 72.6231 67.5466 72.6231 67.5466 72.5677L68.2113 71.903L68.322 71.7922C69.6515 70.4627 70.8147 69.4656 71.0363 69.244C71.3132 68.8562 71.9225 68.8009 72.3103 69.0778C72.5318 69.244 72.6426 69.521 72.6426 69.798C72.6426 69.8534 72.5872 69.9088 72.5872 69.9642C72.4764 70.3519 71.8117 72.7893 71.8117 72.7893C71.7564 73.1217 71.9225 73.4541 72.2549 73.5649C72.4765 73.6757 73.3627 74.008 74.4706 74.3958C75.3568 74.7282 76.3539 75.1159 77.1294 75.5037C77.7941 75.7253 78.4588 76.0023 79.1235 76.3346C79.7882 76.8332 79.899 77.7749 79.4005 78.4397C79.3451 78.4951 79.2897 78.6058 79.2343 78.6612Z" fill="#DCA48C"/>
<path d="M55.5263 70.3521L62.7826 71.46L61.2871 81.1542C61.1763 81.8743 60.5116 82.3729 59.7915 82.2621L53.8645 81.3757" fill="#AAE1F8"/>
<path d="M37.0255 67.5264L55.8589 70.407L54.1971 81.4307L35.3638 78.5501" fill="#00243F"/>
<path d="M141.294 88.1192L134.321 147.171L168.561 148.486C167.818 142.827 167.017 137.167 166.389 131.508C165.36 122.361 162.501 114.187 163.759 105.44C164.274 101.896 164.902 98.6949 164.445 95.0934C164.216 93.6071 161.987 84.5178 159.643 84.918L141.294 88.1192Z" fill="#007A6B"/>
<path fill-rule="evenodd" clip-rule="evenodd" d="M130.662 70.2262C130.948 70.4548 131.177 70.7978 131.177 71.1408C131.234 71.4267 131.234 71.7697 131.234 72.1698C131.234 72.7415 130.891 73.256 130.377 73.4275C130.72 73.3131 131.12 73.1988 131.406 73.1416C133.521 72.57 135.75 72.2841 137.922 72.2841L134.378 66.9106L127.347 67.8824H127.233C127.29 67.9396 127.347 67.9396 127.347 67.9967C128.719 68.8542 130.034 69.7689 130.662 70.2262Z" fill="#FFCCB4"/>
<path d="M115.914 76.5718C116.772 76.9148 117.744 77.1435 118.658 77.2007C122.316 77.4293 124.489 76.8577 127.976 74.7997C127.976 74.7997 128.033 74.7426 128.09 74.7426C128.204 74.6854 128.319 74.5711 128.433 74.5139C128.947 74.2281 129.462 73.8851 130.033 73.5421C130.376 73.3134 130.719 73.0848 131.119 72.9133C131.691 72.5703 131.977 71.8843 131.863 71.2555C131.748 70.7981 131.634 70.398 131.52 70.055C131.405 69.6548 131.062 69.3118 130.662 69.1403C129.805 68.7402 128.033 67.997 126.261 67.2539C126.204 67.2539 126.146 67.1967 126.089 67.1967H126.032C125.632 67.0252 125.289 66.8537 124.946 66.6822C124.889 66.6822 124.832 66.625 124.774 66.625C124.489 66.5107 124.203 66.3964 123.917 66.2249C123.86 66.2249 123.86 66.1677 123.803 66.1677C122.031 65.4246 120.602 64.8529 120.316 64.6814C119.859 64.3956 119.344 64.5671 119.058 64.9673C118.887 65.1959 118.887 65.4817 119.001 65.7676L119.115 65.8819C119.344 66.2249 120.83 68.2829 120.83 68.2829C121.002 68.5687 120.945 68.9688 120.716 69.1975C120.544 69.369 119.801 69.9978 118.887 70.741C118.144 71.3698 117.401 72.1129 116.772 72.7418C116.2 73.1991 115.686 73.7136 115.171 74.2281C114.714 74.9141 114.943 75.8859 115.686 76.286C115.743 76.4575 115.8 76.5147 115.914 76.5718Z" fill="#FFCCB4"/>
<path d="M156.157 36.8417L159.186 65.8246C159.415 67.9397 158.386 69.9405 156.557 71.0267L127.404 76L127.347 64.9099L148.611 64.0525L146.496 52.6765L156.157 36.8417Z" fill="#004F3F"/>
<path d="M154.384 90.9203L152.041 94.979L147.754 92.8068L149.983 88.3478L154.384 90.9203Z" fill="#FFCCB4"/>
<path d="M159.358 59.7077L155.299 55.3632L159.358 69.5974V59.7077Z" fill="#00B2D9"/>
<path d="M163.016 101.038L159.701 109.67L157.814 174.61H149.412L141.066 88.119L159.644 84.8606L162.33 90.0627C164.159 93.4926 164.388 97.4942 163.016 101.038Z" fill="#007A6B"/>
<path d="M139.122 44.3875L144.839 34.2692L144.496 30.1533C143.581 30.039 142.724 29.8103 141.866 29.5245C140.266 28.9528 139.237 27.981 138.951 25.8087C138.894 25.5229 138.894 25.1799 138.894 24.7798C138.894 23.9794 138.894 23.1791 138.951 22.3788L137.407 21.064L140.323 16.3764L140.666 14.49C140.952 12.7178 141.58 11.06 142.495 9.51656C143.524 7.74443 145.239 6.42963 147.297 5.85797L152.613 11.0029L153.642 20.2637L153.699 20.5495L154.385 26.8377L155.414 33.6404L155.871 36.7274L139.122 44.3875Z" fill="#FFCCB4"/>
<path d="M142.209 18.7773L142.838 18.8917C143.067 18.9488 143.295 18.7774 143.353 18.5487L143.467 17.9199C143.524 17.6912 143.353 17.4625 143.124 17.4054L142.495 17.291C142.266 17.2339 142.038 17.4054 141.981 17.634L141.866 18.2629C141.809 18.5487 141.981 18.7202 142.209 18.7773Z" fill="#00243F"/>
<path d="M154.156 5.68625C149.411 4.82877 144.267 4.71444 142.38 9.51634L153.584 20.3206L153.356 21.7498C153.07 23.4076 153.07 24.4937 151.241 24.2079C150.955 29.0098 152.269 31.3536 155.299 33.7545C158.214 32.4397 161.701 29.1241 162.673 23.6934L163.016 21.6926C164.445 13.3464 164.388 7.51555 154.156 5.68625Z" fill="#47CCC3"/>
<path d="M159.337 56.9468L159.737 85.0722L141.16 88.3307L138.816 63.2922L136.129 59.6907C134.243 57.1754 134.014 53.7455 135.558 50.9444L139.159 44.5419L155.793 36.9388L159.337 56.9468Z" fill="#007A6B"/>
<path d="M155.757 36.7843L172.962 60.2793C174.22 61.9943 174.334 64.2238 173.305 66.053L157.414 93.8355L146.153 87.8331L162.845 64.1094L155.299 55.3631L155.757 36.7843Z" fill="#007A6B"/>
<path d="M155.413 92.8637L152.269 98.2945L150.898 97.4941C148.382 96.0078 147.525 92.7494 148.954 90.2341L149.411 89.491L155.413 92.8637ZM154.27 186.615L157.871 184.1V174.61H149.183L149.926 181.585L144.381 184.614L151.984 186.958C152.727 187.244 153.584 187.073 154.27 186.615Z" fill="#FFCCB4"/>
<path d="M159.358 60.0507L155.299 55.3632L159.186 69.7689L159.358 60.0507Z" fill="#004F3F"/>
<path d="M144.438 30.1532C144.438 30.1532 149.069 30.6677 156.557 26.3231C156.557 26.3231 153.413 37.0702 151.184 39.071L139.122 44.4446L144.839 34.3263L144.438 30.1532Z" fill="#7FDBD5"/>
<path d="M150.612 26.2659C150.097 25.5799 150.04 24.6081 150.383 23.865C150.669 23.179 151.584 22.6073 151.698 21.8642C151.698 21.6355 151.698 21.3497 151.584 21.121C151.012 18.7201 150.44 16.3191 149.697 13.9181C148.897 11.2314 146.325 8.71609 144.61 6.42947C144.61 6.42947 150.669 2.71371 159.243 6.71529C159.243 6.71529 170.104 11.5744 164.102 27.2949C164.102 27.2949 162.673 40.9003 160.215 43.2441L155.013 37.1273C154.499 36.8415 150.669 40.1 151.412 37.699C151.812 36.4985 151.412 28.1524 150.898 27.0091C150.841 26.7232 150.726 26.4946 150.612 26.2659Z" fill="#7FDBD5"/>
<path d="M157.7 11.117C157.7 11.117 157.7 14.8328 155.356 17.4052C155.356 17.4624 158.386 14.9471 157.7 11.117ZM159.929 15.5187C159.929 15.5187 157.128 21.6926 150.955 24.4366C150.955 24.4366 157.471 23.4076 159.929 15.5187ZM163.988 21.3496C163.988 21.3496 159.929 25.1797 154.842 25.2369C154.899 25.2369 160.158 26.8947 163.988 21.3496ZM151.126 31.5251C149.697 32.4969 147.982 33.0686 146.21 33.1829C148.04 33.5259 149.869 32.8971 151.126 31.5251ZM151.355 35.0694C149.926 36.0412 148.211 36.6128 146.439 36.7272C148.325 37.0702 150.155 36.4413 151.355 35.0694ZM160.387 34.3262C160.387 34.3262 156.614 29.3528 154.385 29.0098C154.385 29.0098 158.5 29.5243 160.387 34.3262Z" fill="#47CCC3"/>
<path d="M146.439 147.571L149.926 181.585L157.871 182.271L158.614 147.972L146.439 147.571Z" fill="black"/>
<path d="M138.837 24.6655L141.352 24.837C141.352 24.837 141.009 26.0375 138.837 25.9232V24.6655Z" fill="white"/>
<path d="M157.871 181.585V190.674C157.871 191.417 157.3 191.989 156.557 191.989H136.093C135.349 191.989 134.778 191.417 134.778 190.674C134.778 190.159 135.064 189.759 135.464 189.531L149.983 181.585H157.871Z" fill="black"/>
</svg>
