<svg width="193" height="192" viewBox="0 0 193 192" fill="none" xmlns="http://www.w3.org/2000/svg">
<path d="M168.321 119.999C167.898 128.048 166.98 136.063 165.573 143.999C163.761 153.724 161.165 161.627 157.65 167.999C147.539 186.327 129.818 192 101.251 192C72.6838 192 54.9642 186.327 44.8543 167.999C41.3389 161.627 38.7444 153.724 36.9326 143.998C35.5249 136.062 34.6069 128.047 34.1837 119.999C33.7452 112.708 33.5383 104.73 33.5383 95.9989C33.5383 87.2694 33.7463 79.2906 34.188 71.9981C34.6142 63.9488 35.538 55.9336 36.954 47.9984C38.7755 38.2791 41.3829 30.3743 44.9154 23.9976C55.036 5.73108 72.7396 5.93216e-05 101.251 5.80753e-05C129.762 5.68291e-05 147.467 5.73108 157.59 23.9998C161.121 30.3753 163.73 38.2801 165.551 48.0006C166.967 55.9357 167.891 63.951 168.317 72.0003C168.759 79.2917 168.967 87.2716 168.967 96C168.967 104.731 168.76 112.709 168.321 120.001L168.321 119.999Z" fill="#E9F6FC"/>
<mask id="mask0_11553_2467" style="mask-type:alpha" maskUnits="userSpaceOnUse" x="33" y="0" width="136" height="192">
<path d="M168.322 119.999C167.899 128.048 166.981 136.063 165.573 143.999C163.761 153.724 161.165 161.627 157.65 167.999C147.539 186.327 129.818 192 101.251 192C72.6841 192 54.9645 186.327 44.8546 167.999C41.3392 161.627 38.7447 153.724 36.9328 143.998C35.5251 136.062 34.6071 128.047 34.184 119.999C33.7455 112.708 33.5386 104.73 33.5386 95.9989C33.5386 87.2694 33.7466 79.2906 34.1883 71.9981C34.6145 63.9488 35.5382 55.9336 36.9543 47.9984C38.7758 38.2791 41.3831 30.3743 44.9157 23.9976C55.0363 5.73108 72.7398 5.93216e-05 101.251 5.80753e-05C129.763 5.68291e-05 147.467 5.73108 157.59 23.9998C161.121 30.3753 163.73 38.2801 165.551 48.0006C166.967 55.9357 167.891 63.951 168.317 72.0003C168.759 79.2917 168.967 87.2716 168.967 96C168.967 104.731 168.76 112.709 168.322 120.001L168.322 119.999Z" fill="#E9F6FC"/>
</mask>
<g mask="url(#mask0_11553_2467)">
<path d="M197 109H5.00024V192H197V109Z" fill="#F3F3F3"/>
<path d="M21.6189 61.0745H162.481C171.101 61.0745 178.1 68.0732 178.1 76.6935V93.5624C178.1 102.183 171.101 109.181 162.481 109.181H6V76.6935C6 68.0732 12.9986 61.0745 21.6189 61.0745Z" fill="#D2ECEA"/>
<path d="M182.381 61.0745H104.59C95.9643 61.0745 88.9714 68.0674 88.9714 76.6935V93.5624C88.9714 102.189 95.9643 109.181 104.59 109.181H182.381C191.007 109.181 198 102.189 198 93.5624V76.6935C198 68.0674 191.007 61.0745 182.381 61.0745Z" fill="#D2ECEA"/>
<path d="M127.472 22H110.603C101.977 22 94.9836 28.9928 94.9836 37.6189V54.4879C94.9836 63.114 101.977 70.1068 110.603 70.1068H127.472C136.098 70.1068 143.091 63.114 143.091 54.4879V37.6189C143.091 28.9928 136.098 22 127.472 22Z" fill="#D2ECEA"/>
<path d="M66.878 32.616H46.1149C35.4975 32.616 26.8904 41.223 26.8904 51.8404V72.6035C26.8904 83.2209 35.4975 91.828 46.1149 91.828H66.878C77.4954 91.828 86.1025 83.2209 86.1025 72.6035V51.8404C86.1025 41.223 77.4954 32.616 66.878 32.616Z" fill="#D2ECEA"/>
<path d="M140.119 40.5007H119.356C108.738 40.5007 100.131 49.1079 100.131 59.7253V80.4883C100.131 91.1057 108.738 99.7128 119.356 99.7128H140.119C150.736 99.7128 159.343 91.1057 159.343 80.4883V59.7253C159.343 49.1079 150.736 40.5007 140.119 40.5007Z" fill="#D2ECEA"/>
<path d="M91.6715 46.0534H70.7562C60.061 46.0534 51.3909 54.7236 51.3909 65.4188V86.334C51.3909 97.0293 60.061 105.699 70.7562 105.699H91.6715C102.367 105.699 111.037 97.0293 111.037 86.334V65.4188C111.037 54.7236 102.367 46.0534 91.6715 46.0534Z" fill="#D2ECEA"/>
</g>
<path d="M186 60.9299V122.16C186 125.792 183.056 128.736 179.425 128.736H14.885C9.97796 128.736 6 124.758 6 119.851V106.319C6 102.579 7.95093 99.1106 11.1466 97.1683L27.2762 87.3649L55.0835 60.3458C60.6398 54.947 68.0818 51.9269 75.8291 51.9269H176.997C181.969 51.9269 186 55.9577 186 60.9299Z" fill="#42B0D5"/>
<mask id="mask1_11553_2467" style="mask-type:luminance" maskUnits="userSpaceOnUse" x="6" y="51" width="180" height="78">
<path d="M186 60.9299V122.16C186 125.792 183.056 128.736 179.425 128.736H14.885C9.97796 128.736 6 124.758 6 119.851V106.319C6 102.579 7.95093 99.1106 11.1466 97.1683L27.2762 87.3649L55.0835 60.3458C60.6398 54.947 68.0818 51.9269 75.8291 51.9269H176.997C181.969 51.9269 186 55.9577 186 60.9299Z" fill="white"/>
</mask>
<g mask="url(#mask1_11553_2467)">
<path d="M203.705 130.03L-11.7058 130.03L-11.7058 115.354L203.705 115.354V130.03Z" fill="#878787"/>
</g>
<path d="M64.4858 128.656C64.1827 110.118 58.2776 105.359 44.5785 105.359C30.2329 105.359 24.4764 108.966 24.4764 128.703" fill="#545454"/>
<path d="M172.712 128.69C172.712 108.861 166.811 105.359 152.739 105.359C138.869 105.359 133.028 110.509 132.656 128.654" fill="#545454"/>
<path d="M60.094 125.682C60.094 134.304 53.1042 141.293 44.4852 141.293C35.8671 141.293 28.8789 134.304 28.8789 125.682C28.8789 117.062 35.8671 110.079 44.4852 110.079C53.1042 110.079 60.094 117.062 60.094 125.682Z" fill="#00243D"/>
<path d="M53.2891 125.682C53.2891 130.544 49.3498 134.486 44.4846 134.486C39.6197 134.486 35.6805 130.544 35.6805 125.682C35.6805 120.82 39.6197 116.879 44.4846 116.879C49.3498 116.879 53.2891 120.82 53.2891 125.682Z" fill="#CFCFCF"/>
<path d="M168.257 125.682C168.257 134.304 161.267 141.293 152.648 141.293C144.03 141.293 137.042 134.304 137.042 125.682C137.042 117.062 144.03 110.079 152.648 110.079C161.267 110.079 168.257 117.062 168.257 125.682Z" fill="#00243D"/>
<path d="M161.453 125.682C161.453 130.544 157.513 134.486 152.648 134.486C147.783 134.486 143.844 130.544 143.844 125.682C143.844 120.82 147.783 116.879 152.648 116.879C157.513 116.879 161.453 120.82 161.453 125.682Z" fill="#CFCFCF"/>
<path d="M56.1123 65.2647H72.4014C73.8257 65.2647 74.9802 66.4193 74.9802 67.8435V85.3117C74.9802 86.7352 73.8262 87.8892 72.4027 87.8892H40.9824C38.1404 87.8892 36.7249 84.446 38.7452 82.4472L56.1123 65.2647Z" fill="white"/>
<path d="M186 110.079H180.032V94.9807H186V110.079Z" fill="#FA6A55"/>
<path d="M87.3704 65H121.11C124.626 65 127.48 67.8545 127.48 71.3704V150.395H81V71.3704C81 67.8545 83.8545 65 87.3704 65Z" fill="#007A6B"/>
<path d="M118.875 71.7397H89.3407C88.1041 71.7397 87.1016 72.7422 87.1016 73.9788V97.5399C87.1016 98.7765 88.1041 99.779 89.3407 99.779H118.875C120.111 99.779 121.114 98.7765 121.114 97.5399V73.9788C121.114 72.7422 120.111 71.7397 118.875 71.7397Z" fill="#7FDBD5"/>
<path d="M117.592 77.8178H100.648V83.3049H117.592V77.8178Z" fill="white"/>
<path d="M117.592 88.2137H100.648V93.7008H117.592V88.2137Z" fill="white"/>
<path d="M94.9364 77.8178H90.6228V83.3049H94.9364V77.8178Z" fill="white"/>
<path d="M94.9364 88.2137H90.6228V93.7008H94.9364V88.2137Z" fill="white"/>
<path d="M101.853 110.528H107.536C107.717 110.528 107.835 110.739 107.753 110.917L104.097 118.849C104.015 119.027 104.133 119.237 104.314 119.237H110.787C110.973 119.237 111.09 119.459 110.997 119.638L104.618 131.932C104.488 132.183 104.139 132.059 104.166 131.772L104.946 123.306C104.96 123.148 104.848 123.011 104.704 123.011H98.2431C98.0774 123.011 97.9603 122.833 98.0126 122.659L101.622 110.711C101.655 110.602 101.748 110.528 101.853 110.528Z" fill="white"/>
<path d="M134.215 147.49H74V156.056H134.215V147.49Z" fill="#878787"/>
<path d="M124.407 188.646C123.987 187.808 123.987 186.55 124.407 185.712C125.245 184.873 126.503 184.035 127.341 184.035C128.18 184.035 130.276 183.615 130.276 183.615C130.695 184.454 131.114 185.292 131.114 186.55C131.114 187.388 131.114 187.808 131.114 188.646V189.484L123.987 189.065L124.407 188.646Z" fill="#545454"/>
<path d="M130.694 184.035L132.79 183.616C132.79 183.616 133.209 184.035 132.79 184.035C132.79 184.454 132.79 184.454 133.209 184.454H133.628V184.035C133.628 184.035 133.209 183.616 133.209 183.196L134.886 182.358C134.886 182.777 135.305 182.777 134.886 183.196C134.886 183.196 134.886 183.616 135.305 183.616C135.724 183.616 135.724 183.616 135.724 183.196C135.724 182.777 135.724 182.777 135.724 182.777L135.305 182.358C135.724 181.939 136.144 181.939 136.563 181.52C136.982 181.52 136.982 181.939 136.982 182.358L137.401 182.777C137.401 182.777 137.82 182.777 137.82 182.358C137.82 182.358 137.82 181.939 137.401 181.939C136.982 181.939 136.982 181.52 136.982 181.1L138.659 180.262C138.659 180.681 139.078 180.681 139.078 181.1C139.078 181.52 139.497 181.52 139.497 181.52C139.497 181.52 139.917 181.52 139.917 181.1V180.681C139.497 180.262 139.497 180.262 139.497 179.843C139.917 179.424 140.336 179.424 140.755 179.843C141.174 179.843 141.593 180.262 142.013 180.262C143.689 180.681 145.786 181.1 147.462 180.681C147.882 180.681 148.301 180.262 148.72 180.262C148.72 180.262 148.72 180.262 149.139 180.262C149.558 180.262 150.397 180.262 150.397 181.1C150.816 181.939 150.816 182.777 150.816 183.616C150.816 184.873 151.235 186.131 151.235 187.389C151.235 187.808 151.235 187.808 151.235 188.227C148.72 188.227 145.786 188.227 143.27 188.227C142.432 188.227 141.593 188.227 140.755 188.646C139.917 188.646 139.497 189.065 138.659 189.065C137.82 189.065 136.563 189.485 135.724 189.485C134.467 189.485 133.209 189.485 131.532 189.904C131.532 189.485 131.532 189.065 131.532 188.646C131.532 187.808 131.532 186.969 131.113 186.55C131.113 184.873 130.694 184.454 130.694 184.035Z" fill="#FFAC26"/>
<path d="M139.498 179.004C139.498 179.423 139.918 179.423 139.918 179.843C139.918 179.843 140.337 180.262 139.918 180.262C139.918 180.681 139.498 180.681 139.498 180.681C139.498 180.681 139.079 180.681 139.079 180.262C139.079 179.843 139.079 179.843 138.66 179.423C139.079 179.004 139.079 179.004 139.498 179.004Z" fill="black"/>
<path d="M135.724 181.52C135.724 181.52 135.724 181.939 136.143 181.939V182.358C136.143 182.777 136.143 182.777 135.724 182.777C135.724 182.777 135.305 182.777 135.305 182.358C135.305 181.939 135.305 181.939 135.305 181.52C135.305 181.52 134.886 181.1 135.305 181.1C135.305 181.52 135.724 181.52 135.724 181.52Z" fill="black"/>
<path d="M137.82 180.681C137.82 181.1 138.24 181.1 138.24 181.519L138.659 181.938L138.24 182.358C138.24 182.358 137.82 182.358 137.82 181.938C137.82 181.519 137.401 181.519 137.401 181.1V180.681C137.401 180.262 137.401 180.262 137.82 180.681C137.401 180.681 137.401 180.681 137.82 180.681Z" fill="black"/>
<path d="M133.628 182.777C133.628 183.197 134.047 183.197 134.047 183.616V184.035H133.628L133.209 183.616V183.197V182.777C133.628 182.358 133.628 182.777 133.628 182.777Z" fill="black"/>
<path d="M146.624 186.131C146.204 184.873 146.624 183.615 147.462 183.196C148.3 182.358 149.139 182.358 150.396 181.939C150.396 181.939 150.816 184.873 150.816 185.712C150.816 186.55 150.816 188.227 150.816 188.227L146.204 187.808L146.624 186.131Z" fill="#545454"/>
<path d="M131.533 188.646C132.79 188.646 134.048 188.646 135.725 188.227C136.563 188.227 137.821 188.227 138.659 187.808C139.498 187.808 139.917 187.389 140.755 187.389C141.594 187.389 142.432 186.969 143.271 186.969C145.786 186.969 148.721 186.969 151.236 186.969C151.655 186.969 151.655 186.969 151.655 187.389C151.655 188.646 151.655 189.904 151.655 191.581C151.236 191.581 151.236 191.581 150.817 191.581C150.817 191.581 150.817 191.581 150.397 191.162H149.978C149.978 191.162 149.978 191.162 149.978 191.581C149.559 191.581 148.721 191.581 148.301 191.581C148.301 191.162 147.882 191.162 147.882 191.162C147.463 191.162 147.463 191.162 147.044 191.581C147.044 191.581 147.044 191.581 146.624 191.581C146.205 191.581 145.786 191.581 145.367 191.581H144.948C144.948 191.162 144.528 191.162 144.528 191.162C144.109 191.162 144.109 191.162 144.109 191.581C144.109 192 144.109 192 143.69 192C143.69 192 143.69 192 143.271 192C142.852 192 142.852 192 142.852 191.581C142.852 191.162 142.852 190.742 142.852 190.323C142.432 190.742 141.594 191.162 141.175 191.162C139.917 191.581 139.079 192 137.821 192H137.402C137.402 191.581 136.983 191.581 136.983 191.581C136.563 191.581 136.563 191.581 136.563 192C136.563 192 136.563 192 136.144 192C135.725 192 134.886 192 134.467 192C134.467 192 134.467 192 134.048 192C134.048 191.581 133.629 191.581 133.629 191.581C133.21 191.581 133.21 191.581 133.21 192C133.21 192 133.21 192 132.79 192C132.371 192 131.952 192 131.533 192C131.114 192 131.114 192 130.694 191.581H130.275C130.275 191.581 130.275 191.581 130.275 192H128.179V191.581H127.76C127.76 192 127.76 192 127.341 192C126.921 192 126.921 192 126.502 192H126.083C126.083 192 126.083 192 126.083 191.581V191.162V190.742V189.904C126.083 189.904 126.083 189.904 126.083 189.485V189.066C126.921 188.646 129.437 188.646 131.533 188.646Z" fill="black"/>
<path d="M166.327 182.358L167.584 186.55C167.584 192 166.327 191.162 164.65 191.162H157.523C155.846 191.162 154.589 191.162 154.589 186.55L155.846 182.358C155.846 180.681 156.265 179.424 157.523 179.424H158.361C160.038 179.004 161.715 179.004 163.811 179.424H164.65C165.907 179.424 166.327 180.681 166.327 182.358Z" fill="#FFAC26"/>
<path d="M162.136 183.616C161.298 183.197 160.04 183.197 159.202 183.616H158.782C158.782 183.616 158.782 183.197 159.202 183.197C160.459 182.777 161.298 182.777 162.555 183.197C162.975 183.197 162.975 183.616 162.975 183.616C162.555 183.616 162.136 183.616 162.136 183.616Z" fill="black"/>
<path d="M162.136 182.358C161.298 181.939 160.04 181.939 159.202 182.358H158.782C158.782 182.358 158.782 181.939 159.202 181.939C160.459 181.52 161.298 181.52 162.555 181.939C162.975 181.939 162.975 182.358 162.975 182.358C162.555 182.358 162.136 182.358 162.136 182.358Z" fill="black"/>
<path d="M162.136 181.1C161.298 180.681 160.04 180.681 159.202 181.1H158.782C158.782 181.1 158.782 180.681 159.202 180.681C160.459 180.262 161.298 180.262 162.555 180.681C162.975 180.681 162.975 181.1 162.975 181.1C162.555 181.1 162.136 181.1 162.136 181.1Z" fill="black"/>
<path d="M162.136 179.843C161.298 179.424 160.04 179.424 159.202 179.843H158.782C158.782 179.843 158.782 179.424 159.202 179.424C160.459 179.004 161.298 179.004 162.555 179.424C162.975 179.424 162.975 179.843 162.975 179.843C162.555 179.843 162.136 179.843 162.136 179.843Z" fill="black"/>
<path d="M167.167 186.55V188.227C167.167 189.065 165.909 188.646 164.232 188.646H157.106C155.429 188.646 154.171 189.065 154.171 188.227V186.55C154.171 185.712 154.59 185.292 156.267 184.454C156.686 184.035 157.525 184.035 157.944 184.035C159.621 184.035 161.717 184.035 163.394 184.035C163.813 184.035 164.651 184.035 165.071 184.454C166.748 185.292 167.167 185.712 167.167 186.55Z" fill="#545454"/>
<path d="M154.171 189.485C154.171 189.066 154.59 189.066 155.01 189.066C158.782 189.066 163.394 189.066 166.748 189.066C167.167 189.066 167.167 189.066 167.167 189.485C167.167 190.742 167.167 190.323 167.167 192C166.748 192 166.328 192 165.909 192C165.49 192 165.49 192 165.49 191.581C165.071 191.581 165.071 191.581 164.651 191.581C164.651 191.581 164.651 191.581 164.651 192C163.813 192 162.975 192 162.136 192C162.136 191.581 161.717 191.581 161.298 191.581C160.879 191.581 160.459 191.581 160.459 192C160.459 192 160.459 192 160.04 192C159.621 192 158.782 192 158.363 192C157.944 192 157.944 192 157.944 191.581C157.944 191.162 157.525 191.162 157.106 191.162C156.686 191.162 156.267 191.162 156.267 191.581C156.267 192 155.848 192 155.848 192H155.429C154.59 192 154.59 192 154.59 191.581C154.59 191.162 154.59 190.742 154.59 190.323L154.171 189.485Z" fill="black"/>
<path d="M134.048 93.0654H167.586L170.939 104.803L169.682 143.371V144.209L166.747 177.747C166.747 178.585 165.909 179.423 165.489 179.423H157.524C156.686 179.843 155.428 179.004 155.428 178.166V177.747V140.437L152.913 104.803L149.978 140.437L152.075 180.681C152.075 181.52 151.655 182.358 150.817 182.358H150.398L141.175 179.423C140.756 179.423 140.337 178.585 140.337 178.166L135.725 142.533C135.725 142.113 135.725 141.694 135.725 141.275L134.048 93.0654Z" fill="#3B576C"/>
<path d="M134.048 93.0654H167.586L170.939 104.803V130.795H133.629L134.048 93.0654Z" fill="white"/>
<path d="M134.048 95.1615V101.45L145.786 102.288C148.301 102.288 150.397 100.611 151.236 98.096L152.493 93.0654L153.332 95.5807C154.17 98.5152 156.686 100.192 159.62 99.3537C160.039 99.3537 160.458 98.9344 160.878 98.9344L168.843 94.7423L168.424 58.6899L171.358 67.9126C171.777 69.1702 172.616 70.0087 173.873 70.4279L176.808 71.2663C178.904 71.6855 180.581 70.4279 181 68.751C181 67.9126 181 67.4934 181 66.6549L173.454 44.0174C172.616 41.5021 170.52 39.406 168.004 38.1484L158.362 33.537L156.266 32.2794L151.236 37.31L150.397 44.0174L149.559 37.31L144.109 31.8602L142.432 33.537L134.886 36.8907C131.533 38.1484 129.437 41.0829 129.017 44.8558" fill="white"/>
<path d="M169.681 83.4232L158.362 62.4625C157.524 60.3664 155.008 59.9472 152.912 60.7856L139.078 68.3314C136.982 69.1699 136.563 71.6852 137.401 73.7812L148.72 94.742C149.559 96.838 152.074 97.2572 154.17 96.4188L168.004 88.8729C170.1 87.6153 170.519 85.1 169.681 83.4232Z" fill="#878787"/>
<path d="M160.459 81.7464L157.105 86.777L151.655 88.873C151.236 88.873 150.398 88.873 150.398 88.4538L148.721 86.3577C148.302 85.9385 148.302 85.5193 148.721 84.6809L152.075 79.2311L157.105 77.135L160.459 81.7464Z" fill="#FFCCB4"/>
<path d="M181 68.3315C180.162 70.0084 178.904 71.6852 177.227 72.5237L160.458 83.4232L155.428 75.8774L171.777 64.5586L181 68.3315Z" fill="white"/>
<path d="M150.817 56.5938L158.363 33.537L156.686 31.8602L150.817 38.1484L144.529 31.8602L142.852 33.537L150.817 56.5938Z" fill="#AAE1F8"/>
<path d="M155.009 53.6591H164.231V57.4321H155.009V53.6591Z" fill="#AAE1F8"/>
<path d="M135.306 56.5936C135.306 56.5936 132.372 68.3317 131.114 73.3622C129.856 77.1352 121.053 71.2662 121.053 71.2662C121.053 68.7509 121.472 66.6548 122.311 64.1395L129.856 42.7596C130.695 40.2443 132.791 38.1482 134.887 36.8906" fill="white"/>
<path d="M107.218 76.2969L102.187 79.6506H98.4143C97.9951 79.6506 97.5758 79.2314 97.1566 78.8122L94.6413 74.62C94.6413 74.2008 94.6413 73.3624 95.0606 73.3624L97.5758 72.1048C97.5758 72.1048 96.3182 70.8471 96.3182 70.4279C96.3182 70.0087 96.3182 70.0087 96.7374 69.5895C97.1566 69.5895 97.1566 69.5895 97.5758 69.5895L101.768 70.4279L105.541 70.8471L107.218 76.2969Z" fill="#FFCCB4"/>
<path d="M131.533 72.524C130.276 73.7816 128.18 74.62 126.503 75.0392L106.8 79.2314L105.123 70.0087L124.826 65.3973L131.533 72.524Z" fill="white"/>
<path d="M98.8343 75.4581C98.8343 75.4581 101.35 77.5542 101.769 77.135C102.188 76.7158 100.092 74.2005 100.092 74.2005L87.5155 61.2049C87.0963 60.7856 86.6771 60.7856 86.6771 61.2049C86.2579 61.6241 86.2579 62.0433 86.6771 62.0433L98.8343 75.4581Z" fill="#545454"/>
<path d="M161.296 13.8341C161.296 6.70742 158.362 4.19214 150.397 4.19214C142.431 4.19214 140.335 7.12665 140.335 15.0917C139.916 17.607 141.174 20.5415 143.27 22.2183C143.27 21.3799 143.689 15.9301 143.689 15.9301L158.362 12.9956C158.362 15.9301 158.362 18.8646 158.781 21.7991C160.458 19.2839 161.296 16.7686 161.296 13.8341Z" fill="#00243F"/>
<path d="M158.782 10.0607V18.8642H159.201C160.04 18.8642 160.459 19.2834 160.459 20.9603C160.459 23.0564 160.04 23.4756 158.782 23.4756V25.1524C158.782 26.8293 157.944 28.5062 156.686 29.7638V32.2791L150.398 40.6634L144.11 32.2791V29.7638C142.852 28.5062 142.014 27.2485 142.014 25.5717C142.014 24.7332 142.014 24.7332 142.014 23.8948C140.756 23.8948 140.337 23.0564 140.337 21.3795C140.337 19.2834 141.175 19.2834 141.594 19.2834H142.014V15.0913L158.782 10.0607Z" fill="#FFCCB4"/>
<path d="M148.302 26.8293H152.914C153.333 28.0869 148.302 28.5061 148.302 26.8293Z" fill="white"/>
<path d="M154.169 20.1223H154.589C155.008 20.1223 155.008 20.1223 155.008 19.7031V19.2838C155.008 18.8646 155.008 18.8646 154.589 18.8646H154.169C153.75 18.8646 153.75 18.8646 153.75 19.2838V19.7031C153.75 20.1223 154.169 20.1223 154.169 20.1223Z" fill="#00243F"/>
<path d="M146.624 20.1223H147.044C147.463 20.1223 147.463 20.1223 147.463 19.7031V19.2838C147.463 18.8646 147.463 18.8646 147.044 18.8646H146.624C146.205 18.8646 146.205 18.8646 146.205 19.2838V19.7031C146.205 20.1223 146.205 20.1223 146.624 20.1223Z" fill="#00243F"/>
<path d="M144.528 29.7642V32.2795L148.3 37.31C152.912 37.31 157.104 29.345 157.104 29.345C152.073 33.9563 149.139 34.3756 144.528 29.7642Z" fill="#E0AD98"/>
<path d="M152.912 0.838432V0H148.3V0.838432C141.174 1.67686 138.658 6.28821 138.658 12.5764V14.2533H163.392V12.5764C162.554 5.03057 159.619 1.67686 152.912 0.838432Z" fill="#FF9E00"/>
<path d="M161.716 14.2529H139.497C139.497 14.2529 139.917 16.7681 150.397 16.7681C160.458 16.7681 161.716 14.2529 161.716 14.2529Z" fill="#FFC566"/>
<path d="M152.912 0.838196V7.96484L155.008 1.2574C154.169 0.838189 153.75 0.838196 152.912 0.838196Z" fill="#FF6D00"/>
</svg>
