<svg width="192" height="192" viewBox="0 0 192 192" fill="none" xmlns="http://www.w3.org/2000/svg">
<mask id="mask0_11532_2320" style="mask-type:alpha" maskUnits="userSpaceOnUse" x="22" y="0" width="137" height="192">
<path d="M157.721 119.999C157.298 128.048 156.38 136.063 154.972 143.999C153.16 153.724 150.565 161.627 147.049 167.999C136.938 186.327 119.218 192 90.6504 192C62.0833 192 44.3636 186.327 34.2538 167.999C30.7383 161.627 28.1439 153.724 26.332 143.998C24.9243 136.062 24.0063 128.047 23.5832 119.999C23.1447 112.708 22.9377 104.73 22.9377 95.9989C22.9377 87.2694 23.1457 79.2906 23.5874 71.9981C24.0136 63.9488 24.9374 55.9336 26.3535 47.9984C28.1749 38.279 30.7823 30.3742 34.3149 23.9976C44.4355 5.73102 62.139 -1.71354e-06 90.6504 -2.95981e-06C119.162 -4.20609e-06 136.866 5.73102 146.989 23.9997C150.521 30.3753 153.129 38.2801 154.951 48.0005C156.367 55.9357 157.29 63.9509 157.717 72.0003C158.158 79.2917 158.366 87.2716 158.366 96C158.366 104.731 158.159 112.709 157.721 120.001L157.721 119.999Z" fill="#E9F6FC"/>
</mask>
<g mask="url(#mask0_11532_2320)">
<path d="M0 124H192V198H0V124Z" fill="#EDEDED"/>
<path d="M-79.1187 0.00158691H272.883V131.812H-79.1187V0.00158691Z" fill="#E1F3FB"/>
<path opacity="0.6" d="M297.96 76.8212V67.2933H288.902V90.0368H277.208V84.1225H268.247V89.4287H259.745V73.611H252.948V86.3619H241.076V76.8212H233.163V81.2626H225.51V63.1226H212.768V73.3582H196.973V82.2702H189.058V89.9026H177.572V75.1272H170.12V82.2702H152.929V66.2824H139.112V98.2632H131.928V74.814H118.644V90.5423H108.546V77.1488H100.716V81.2628H94.5949V55.3792H84.7192V133.64H307.537V76.8212H297.96Z" fill="#ACDFF7"/>
<path opacity="0.6" d="M75.1426 76.8212V67.2933H66.0846V90.0368H54.391V84.1225H45.4294V89.4287H36.9279V73.611H30.1302V86.3619H18.2582V76.8212H10.3461V81.2626H2.69278V63.1226H-10.049V73.3582H-25.8441V82.2702H-33.7594V89.9026H-45.2456V75.1272H-52.6969V82.2702H-69.8883V66.2824H-83.7047V98.2632H-90.89V74.814H-104.173V90.5423H-114.271V77.1488H-122.101V81.2628H-128.222V55.3792H-138.098V136.822H84.7192V76.8214L75.1426 76.8212Z" fill="#ACDFF7"/>
<path d="M17.51 0.00158691H22.8003V136.043H17.51V0.00158691ZM156.86 0.00158691H162.15V136.043H156.86V0.00158691Z" fill="#FBFBFB"/>
<path d="M0 131.818H192V137.207H0V131.818Z" fill="#FBFBFB"/>
</g>
<path d="M37.8035 134.223H44.3252V183.604H37.8035V134.223Z" fill="#80919E"/>
<path d="M57.2615 140.725V138.565H24.8682V140.725C24.8683 141.009 24.9242 141.29 25.0329 141.552C25.1416 141.814 25.3008 142.052 25.5016 142.253C25.7023 142.453 25.9406 142.612 26.2028 142.721C26.465 142.829 26.746 142.885 27.0297 142.885H55.1014C55.6742 142.885 56.2236 142.657 56.6286 142.252C57.0337 141.847 57.2613 141.298 57.2615 140.725Z" fill="#80919E"/>
<path d="M38.7988 109.152H43.3314V131.684H38.7988V109.152Z" fill="#FBFBFB"/>
<path d="M11 135.383V140.115H71.1298V135.383C71.1298 132.768 69.0105 130.649 66.3965 130.649H15.7333C13.1193 130.649 11 132.768 11 135.383Z" fill="#1F3E54"/>
<path d="M41.0653 178.921L18.4922 185.388C17.8493 185.573 17.2838 185.961 16.8812 186.495C16.4786 187.03 16.2606 187.68 16.2603 188.349V190.34L41.0653 186.884L65.8682 190.34V188.349C65.8682 187.681 65.6506 187.03 65.2483 186.496C64.846 185.962 64.2807 185.573 63.638 185.388L41.0653 178.921Z" fill="#80919E"/>
<path d="M26.41 183.179C26.41 183.179 25.0487 185.377 23.8194 188.964C22.59 192.551 24.5526 192.221 24.5526 192.221H39.9379C40.5279 192.221 41.0386 191.766 41.1687 191.122L41.1776 191.082C41.3809 190.072 41.2451 188.992 40.718 188.14C40.6686 188.06 40.6164 187.982 40.5616 187.906L36.0419 181.686L26.4103 183.179H26.41ZM55.6065 182.03L55.4881 189.478C55.4624 189.857 55.5883 190.231 55.838 190.517C56.0877 190.803 56.4409 190.978 56.8198 191.004L77.3407 192.244C79.5812 191.903 80.5298 189.089 78.8527 187.561C78.7165 187.436 78.5772 187.34 78.4411 187.278L64.9075 180.421L55.6065 182.03Z" fill="#00243D"/>
<path d="M57.2758 133.049C57.017 133.064 56.7665 133.079 56.5223 133.079H26.5976C21.7427 133.079 17.8044 129.14 17.8044 124.281C17.8044 123.87 17.8293 123.473 17.888 123.062L18.5917 107.79L59.2391 107.8L59.7931 116.866L66.1201 121.033C66.5313 125.422 61.6651 132.638 57.2758 133.049Z" fill="#545454"/>
<path d="M36.7876 133.051C36.7876 133.051 34.0758 133.08 33.8306 133.08H26.598C24.2274 133.08 22.0736 132.141 20.4956 130.613C19.6433 129.794 18.9655 128.811 18.5031 127.723C18.0407 126.636 17.8033 125.465 17.8052 124.283C17.8052 123.871 17.8301 123.473 17.8869 123.064L18.5942 107.789L37.0932 113.738L43.0783 124.23C43.4906 128.619 36.7876 133.051 36.7876 133.051Z" fill="#6A6A6A"/>
<path d="M46.6545 130.649L49.3478 125.778L56.5225 133.078L36.7866 133.049L46.6545 130.649Z" fill="#333333"/>
<path d="M32.3414 133.078H26.598C24.2274 133.078 22.0736 132.14 20.4956 130.612C19.6433 129.793 18.9655 128.81 18.5031 127.722C18.0407 126.634 17.8033 125.464 17.8052 124.282C17.8052 123.87 17.8301 123.472 17.8869 123.063L18.9176 125.558C19.6924 127.441 21.0394 129.037 22.7667 130.121L23.609 130.647L25.9796 127.299L32.3414 133.078ZM67.711 181.631L54.4979 183.36L49.3331 127.312C48.9539 123.467 51.736 120.038 55.5457 119.663C55.6718 119.647 55.7888 119.642 55.9132 119.627L61.2934 119.392C65.1993 119.219 68.4985 122.274 68.6595 126.219C68.6652 126.357 68.661 126.504 68.6667 126.641L67.711 181.631Z" fill="#545454"/>
<path d="M25.3242 183.166L39.0195 183.548L43.5403 127.638C43.8634 123.752 40.9626 120.342 37.0666 120.031C36.9379 120.018 36.8185 120.015 36.6898 120.001L33.3828 119.859C29.3912 119.752 26.0748 122.893 25.9792 126.874C25.976 127.013 25.9821 127.161 25.9792 127.3L25.3242 183.166Z" fill="#6A6A6A"/>
<path d="M74.3759 90.1188L66.0906 65.6038C65.6133 64.1825 64.8569 62.8708 63.866 61.7457C62.875 60.6205 61.6694 59.7045 60.3199 59.0514L49.9882 54.0356L48.027 52.6423L48.2687 56.3948L41.4761 65.3756L35.0102 58.1423L34.4831 52.8136L32.8205 53.8937L20.0727 59.5213C17.4295 60.686 15.5679 63.145 15.1698 66.0018L13.1106 80.7108L17.0425 92.6358L17.249 121.153L24.3884 121.244C25.7805 121.261 27.1681 121.087 28.5126 120.727L32.4768 119.663C33.7859 119.312 34.9448 118.543 35.7779 117.474C36.611 116.405 37.0729 115.093 37.0936 113.738H47.8561L47.8667 115.075C47.8691 115.383 47.9338 115.688 48.057 115.97C48.1801 116.253 48.359 116.508 48.5831 116.719C48.8072 116.931 49.0718 117.095 49.361 117.202C49.6501 117.308 49.9579 117.355 50.2657 117.34L62.1684 118.43L61.4718 113.192L67.5748 114.047L74.6599 96.3434C75.142 94.2821 75.0437 92.1276 74.3759 90.1188ZM61.0968 109.152L60.0928 82.7568L64.2436 93.8847L61.0968 109.152Z" fill="#42B0D5"/>
<path d="M37.1406 113.781L47.8846 113.738L49.9876 54.0366L47.8846 52.2727C47.8846 52.2727 47.5008 52.6426 41.7314 52.6426C35.9607 52.6426 34.8091 51.9183 34.8091 51.9183L32.8345 53.9076L37.1406 113.781Z" fill="#E7E7E7"/>
<path d="M13.2372 79.2462L12.2289 96.7828C12.1571 98.0488 11.0404 104.585 14.3262 105.371C17.612 106.157 31.0944 102.839 31.0944 102.839L31.2817 92.1184L23.6831 96.1154L25.4174 78.2511L13.2376 79.2462H13.2372Z" fill="#42B0D5"/>
<path d="M27.776 94.9645C27.776 94.9645 27.5397 97.9951 29.4379 100.998C31.0728 99.8919 32.2293 99.9175 32.2293 99.9175C36.6267 100.705 39.2131 98.5541 39.7256 97.4402C40.3269 96.1331 39.1487 94.7136 37.3223 93.8339C37.8874 93.8926 38.7304 94.361 39.1971 94.5554C40.5156 95.1045 40.8803 96.9601 41.9373 96.4785C42.995 95.9973 41.5051 94.0916 40.2071 93.1139C38.9088 92.1365 38.0925 91.9126 36.3972 91.4306C33.0325 90.2773 27.776 94.9645 27.776 94.9645Z" fill="#B4816B"/>
<path d="M54.9469 28.2613C52.1118 26.4096 51.7838 28.1046 51.7838 28.1046L42.3679 32.6456L38.1848 38.0368L37.6083 43.5385L34.8091 51.917L42.8889 55.1647L43.5585 64.5347L45.7706 55.2585L48.4244 52.926C53.8746 52.8748 57.2887 53.4552 57.7575 45.1418L60.0918 44.4754L57.9256 37.5719C57.9021 35.0752 57.7774 30.1108 54.9473 28.2613H54.9469Z" fill="#B4816B"/>
<path d="M42.7899 25.8014C40.1908 25.135 38.6817 26.2724 38.2855 27.4079C36.3158 27.6162 35.6014 28.9443 35.8132 30.3958C34.7001 31.4634 34.1808 32.4597 35.1927 34.29C33.8172 35.9647 34.5572 37.3455 35.3331 38.1807C34.313 39.528 34.9204 40.8438 35.7756 41.2176C35.3359 42.8881 36.0034 43.6088 37.3671 44.164C40.4278 43.7819 40.6973 41.8496 40.6866 40.6703C40.6855 40.569 40.6681 38.5354 40.6678 38.4302C40.6653 36.8841 41.1788 36.1591 43.038 36.0973C45.4526 36.018 45.4903 37.6902 45.5383 39.017L48.3154 38.9907L48.2735 34.5466C54.5198 34.488 52.8085 30.1047 55.7087 30.0774C56.2052 30.0727 56.5872 30.087 56.5872 30.087C56.852 28.5466 56.2986 25.9088 53.1312 26.267C52.3323 25.6817 51.2166 24.2387 48.19 25.5054C46.4005 25.0107 44.4141 24.5671 42.7899 25.8014ZM55.5377 39.0983L54.9147 39.104C54.8578 39.1046 54.8014 39.0939 54.7486 39.0727C54.6958 39.0514 54.6478 39.02 54.6072 38.9801C54.5666 38.9403 54.5342 38.8928 54.512 38.8405C54.4897 38.7881 54.478 38.7319 54.4775 38.675L54.4718 38.0524C54.4708 37.9376 54.5154 37.8272 54.5957 37.7452C54.6761 37.6633 54.7857 37.6167 54.9004 37.6156L55.5235 37.6099C55.5803 37.6093 55.6367 37.62 55.6895 37.6412C55.7422 37.6624 55.7902 37.6938 55.8308 37.7337C55.8714 37.7735 55.9038 37.8209 55.9261 37.8732C55.9483 37.9255 55.9601 37.9817 55.9606 38.0385L55.9663 38.6612C55.9669 38.718 55.9562 38.7744 55.935 38.8272C55.9138 38.8799 55.8823 38.9279 55.8425 38.9685C55.8027 39.0091 55.7553 39.0415 55.703 39.0638C55.6507 39.086 55.5945 39.0978 55.5377 39.0983Z" fill="#00243D"/>
<path d="M57.0939 48.1932C57.7493 49.0074 57.8445 49.5675 57.6921 51.5592C57.5264 53.7422 56.1965 56.5609 51.4237 56.402C45.6647 56.2112 45.1877 52.2022 45.3658 47.525C45.4166 46.1823 45.5122 40.6649 45.531 38.718C45.5197 38.4766 45.4921 38.2363 45.4486 37.9986C45.3786 37.6169 45.2574 37.2604 45.0221 36.974C44.672 36.5159 44.0675 36.2294 43.0176 36.2614C39.9824 36.1405 40.695 38.9405 40.6442 40.8941L35.6677 41.4475C34.8023 41.0722 34.185 39.7423 35.216 38.3739C34.4331 37.5281 33.6824 36.1341 35.076 34.4349C34.0513 32.5833 34.5731 31.5778 35.6994 30.4959C35.4833 29.026 36.2087 27.6768 38.2004 27.4671C38.6013 26.3153 40.1285 25.1634 42.7631 25.838C44.4051 24.5844 46.4157 25.0362 48.2293 25.5323C51.2901 24.2471 52.4231 25.7107 53.231 26.3025C56.4382 25.9336 56.9983 28.6062 56.731 30.1651C52.8685 29.4589 54.9362 34.1933 48.9931 34.6578C48.9687 35.3558 48.939 36.0536 48.9039 36.7511C48.8847 37.1076 48.8658 37.4513 48.8466 37.7822C48.433 45.5013 48.2549 45.6029 57.8317 45.6602C57.8317 45.6602 58.0038 47.7095 57.0939 48.1932Z" fill="#00243D"/>
<path d="M57.5668 47.6512L55.5779 47.6093C55.5779 47.6093 55.6803 48.4096 57.3183 48.5404L57.5671 47.6512H57.5668Z" fill="white"/>
<path d="M59.1046 35.224L58.6912 39.8123C58.6912 39.8123 58.6084 40.6205 57.9083 40.5693L57.6602 40.5441L57.9595 37.2032L48.8468 37.7825L45.4487 37.9986C45.3787 37.6169 45.2575 37.2604 45.0222 36.974L48.904 36.7515L58.0487 36.2294L58.2203 34.2825L58.5128 34.3077C59.1302 34.3525 59.1046 35.224 59.1046 35.224Z" fill="#335064"/>
<path d="M26.4063 93.3853C27.276 93.2218 28.1386 93.7108 28.4805 94.5268L28.8181 95.3329L31.0945 102.839L26.7952 104.508L23.6096 94.3893L25.6411 93.6081C25.8899 93.5086 26.1458 93.434 26.4063 93.3853Z" fill="#E7E7E7"/>
<path d="M38.1162 73.2825H76.5032C76.9246 73.2825 77.3418 73.3655 77.7311 73.5267C78.1203 73.688 78.474 73.9243 78.772 74.2223C79.0699 74.5202 79.3062 74.8739 79.4674 75.2632C79.6286 75.6525 79.7115 76.0697 79.7115 76.4911V102.996C79.7115 103.847 79.3735 104.663 78.7718 105.264C78.1702 105.866 77.3541 106.204 76.5032 106.204H38.1162C37.6949 106.204 37.2777 106.121 36.8885 105.96C36.4992 105.799 36.1456 105.562 35.8477 105.264C35.5497 104.966 35.3134 104.613 35.1522 104.223C34.9909 103.834 34.908 103.417 34.908 102.996V76.4911C34.9079 76.0697 34.9909 75.6525 35.1521 75.2632C35.3133 74.8739 35.5496 74.5202 35.8475 74.2223C36.1454 73.9243 36.4991 73.688 36.8884 73.5267C37.2777 73.3655 37.6949 73.2825 38.1162 73.2825Z" fill="#D9D9D9"/>
<path d="M51.2324 90.9476V87.9085H52.041L53.066 90.1785L54.0761 87.9085H54.8508V90.9476H54.1834V89.1795L53.4143 90.9476H52.7035L51.9233 89.1883V90.9476H51.2324ZM55.9334 90.9476H55.148L56.4967 87.9067H57.4631L58.8208 90.9476H58.046L57.7794 90.3413H56.1925L55.9334 90.9476ZM57.5352 89.7701L56.9772 88.4811L56.4317 89.7701H57.5352ZM59.1339 90.9476V87.9085H62.0361V88.5145H59.8347V89.1183H61.7223V89.7122H59.8347V90.3388H62.0411V90.9476H59.1339ZM62.6055 90.9465V87.9067H65.0347C65.3589 87.9067 65.5472 88.0951 65.5472 88.4164V89.4385C65.5472 89.6724 65.3397 89.886 64.9359 89.886H64.8663L65.5735 90.9465H64.7927L64.1224 89.9077H63.3167V90.9465H62.6059H62.6055ZM63.3167 89.3024H64.8421V88.5155H63.3167V89.3024ZM66.8267 90.949H66.5861C66.2719 90.949 66.1205 90.7671 66.1205 90.5026V90.106H66.8263V90.3413H68.3265V89.7186H66.6056C66.3309 89.7186 66.1333 89.5338 66.1333 89.2783V88.3748C66.1333 88.1011 66.3487 87.9092 66.6102 87.9092H68.5781C68.844 87.9092 69.0277 88.1075 69.0277 88.3947V88.7572H68.3265V88.517H66.8267V89.1155H68.543C68.796 89.1155 69.0277 89.2836 69.0277 89.6059V90.4735C69.0277 90.7699 68.8639 90.949 68.5568 90.949H66.8267ZM69.7055 90.949V87.9092H70.4263V89.1247L71.7989 87.9092H72.7748L71.1367 89.3202L72.8342 90.949H71.823L70.4263 89.5658V90.949H69.7055Z" fill="black"/>
<path d="M48.3248 92.0902C48.3248 92.5238 47.973 92.8763 47.5386 92.8763H42.5729C42.4695 92.8764 42.3672 92.8562 42.2718 92.8167C42.1763 92.7773 42.0895 92.7193 42.0164 92.6463C41.9433 92.5733 41.8853 92.4866 41.8457 92.3912C41.8061 92.2958 41.7857 92.1935 41.7856 92.0902V86.7633C41.7856 86.3286 42.1375 85.9764 42.5729 85.9764H47.5386C47.9726 85.9764 48.3252 86.3286 48.3252 86.7633L48.3248 92.0902Z" fill="#42B0D5"/>
<path d="M46.0972 89.2473L47.3874 87.6291L47.3838 87.6238L45.5186 88.5226L45.0577 86.5039H45.052L44.591 88.5226L42.7258 87.6238L42.7216 87.6291L44.0124 89.2473L42.1472 90.1451L42.1493 90.1511H44.2185L43.7583 92.1698L43.7643 92.1727L45.0545 90.5545L46.345 92.1727L46.351 92.1688L45.8907 90.1511H47.9606L47.9621 90.1451L46.0972 89.2473Z" fill="white"/>
<path d="M143.437 129.172H150.48V182.507H143.437V129.172Z" fill="#80919E"/>
<path d="M129.465 134.941V132.607H164.452V134.941C164.452 135.248 164.391 135.551 164.274 135.834C164.157 136.117 163.985 136.375 163.768 136.591C163.551 136.808 163.294 136.98 163.011 137.097C162.728 137.214 162.424 137.275 162.118 137.275H131.798C131.179 137.275 130.586 137.029 130.148 136.591C129.71 136.153 129.465 135.56 129.465 134.941Z" fill="#80919E"/>
<path d="M174.151 100.285L168.244 64.84C168.244 62.4097 166.358 60.4436 164.036 60.4436H129.546C127.22 60.4436 125.333 62.4097 125.333 64.84L118.961 102.758M179.43 129.171V134.283H114.486V129.171C114.486 126.347 116.774 124.059 119.597 124.059H174.318C177.142 124.059 179.43 126.348 179.43 129.171Z" fill="#FB8877"/>
<path d="M146.958 179.504L171.338 186.49C172.033 186.689 172.644 187.109 173.078 187.686C173.513 188.262 173.748 188.965 173.748 189.688V191.838L146.958 188.105L120.168 191.838V189.688C120.169 188.965 120.404 188.262 120.838 187.686C121.273 187.109 121.884 186.689 122.578 186.49L146.958 179.504Z" fill="#80919E"/>
<path d="M117.863 96.683L122.669 72.2494C122.997 70.5834 123.703 69.0149 124.732 67.6644C125.761 66.314 127.086 65.2177 128.606 64.4599L140.029 58.7627H151.73L165.147 65.3292C166.491 65.9871 167.656 66.9595 168.544 68.164C169.432 69.3684 170.016 70.7693 170.246 72.2476L174.468 99.5643L162.117 105.886L131.45 105.831L117.863 96.683Z" fill="#F68F3E"/>
<path d="M134.072 127.248L158.682 131.231C163.351 131.231 166.943 127.104 166.3 122.479L164.442 109.124H126.954L134.072 127.248Z" fill="#00243D"/>
<path d="M132.53 131.231H138.576L126.955 109.124L125.583 123.595C125.196 127.691 128.416 131.231 132.53 131.231ZM168.791 167.056L179.847 164.62C181.226 164.316 181.805 162.669 180.919 161.569L172.803 151.498L166.49 162.016L168.791 167.056Z" fill="#00243D"/>
<path d="M160.207 148.333L166.489 162.016L179.039 159.25L166.878 144.133L160.207 148.333Z" fill="#FFBAA6"/>
<path d="M134.538 191.907L123.76 191.966C122.078 191.976 120.983 190.201 121.745 188.702L127.342 177.691L136.757 181.635L134.538 191.907ZM142.629 173.426L131.808 168.893L149.027 113.111L165.302 119.927L142.629 173.426Z" fill="#00243D"/>
<path d="M131.807 168.894L138.877 171.854L135.944 185.449C135.944 185.449 133.039 186.35 129.962 186.13C126.885 185.91 124.526 183.244 124.526 183.244L131.807 168.894Z" fill="#DCA48C"/>
<path d="M166.489 162.015C166.489 162.015 174.361 160.452 176.047 155.53L179.749 160.117L166.489 162.015V162.015Z" fill="#00243D"/>
<path d="M159.612 152.71L167.934 144.439L133.356 107.461C131.049 104.875 127.044 104.755 124.586 107.198L121.245 110.518C118.723 113.025 118.833 117.139 121.486 119.507L159.612 152.709L159.612 152.71Z" fill="#304E62"/>
<path d="M139.232 59.1602L138.558 68.0195C138.449 69.6187 138.736 71.2202 139.394 72.6817C140.052 74.1433 141.061 75.4197 142.331 76.3975L145.193 79.2152L148.519 76.2664C150.831 74.3436 152.335 71.4254 152.234 68.4197L151.875 58.8329L145.193 79.2156L139.232 59.1602Z" fill="white"/>
<path d="M145.289 79.2525L139.232 59.1599L139.189 56.5099C138.038 56.356 136.688 56.2736 135.804 55.9967C133.967 55.4227 132.752 54.3587 132.299 51.8349C132.235 51.4546 132.188 51.0715 132.159 50.6869C132.1 49.8904 132.098 48.9785 132.15 47.9289L130.343 46.5098L133.459 40.9999L133.764 38.8259C134.116 36.4841 134.763 34.5691 135.642 33.0299C136.961 30.7282 138.452 28.8076 140.621 28.1483L155.708 39.289L149.996 52.4522L151.439 60.2385L151.439 60.2456L151.447 60.2531L150.065 64.518L145.289 79.2525Z" fill="#FFBAA6"/>
<path d="M135.809 43.6663L136.511 43.764C136.575 43.773 136.64 43.7692 136.703 43.7529C136.766 43.7366 136.825 43.7081 136.876 43.669C136.928 43.63 136.971 43.5811 137.004 43.5253C137.037 43.4694 137.058 43.4077 137.067 43.3436L137.165 42.6413C137.183 42.5119 137.149 42.3807 137.07 42.2764C136.991 42.1722 136.874 42.1035 136.745 42.0854L136.043 41.9877C135.913 41.9698 135.782 42.0039 135.678 42.0827C135.573 42.1615 135.505 42.2784 135.486 42.4078L135.389 43.1101C135.351 43.3802 135.54 43.629 135.809 43.6663Z" fill="black"/>
<path d="M134.005 50.8611L132.158 50.6393C132.179 50.9837 132.231 51.3714 132.292 51.7855C132.814 51.7283 133.865 51.177 134.005 50.8611Z" fill="white"/>
<path d="M152.992 30.8695C157.309 33.6257 159.571 38.5378 158.769 46.8551C158.603 48.5728 158.26 50.5975 159.584 51.9246C161.583 53.9281 161.628 58.0035 159.292 59.6374C158.337 60.3055 157.435 61.5928 157.173 62.1839C156.059 64.6895 152.63 65.5236 150.906 65.2784C143.559 64.2335 146.477 49.939 150.34 46.4766C150.342 46.4755 152.678 42.0315 151.515 36.9566L152.992 30.8691V30.8695Z" fill="#00243D"/>
<path d="M139.134 28.6116C141.707 27.4089 145.134 27.7587 147.945 28.6315C154.651 30.7142 158.451 33.9001 156.463 40.3C154.474 46.6998 153.423 47.9331 151.577 49.0629C148.778 47.8265 149.072 49.2556 149.42 48.1385L150.078 46.0146C150.521 44.546 150.24 43.7105 148.49 43.1208C146.218 42.356 145.529 45.464 145.105 46.7112L143.205 46.3899L144.177 41.9675C137.689 42.2128 135.642 33.0304 135.642 33.0301C136.214 30.759 137.503 29.3736 139.134 28.6116Z" fill="#00243D"/>
<path d="M161.785 82.1517L163.615 95.3502L160.565 96.5149L161.785 82.1517Z" fill="#F58229"/>
<path d="M129.232 82.1517L127.401 95.3502L130.452 96.5149L129.232 82.1517Z" fill="#00786B"/>
<path d="M135.915 104.265L136.054 104.827L154.9 104.879L152.141 100.214L147.049 99.3012C146.519 99.2061 145.973 99.2496 145.464 99.4274L136.918 102.412C136.549 102.54 136.242 102.801 136.057 103.144C135.871 103.487 135.821 103.887 135.915 104.265Z" fill="#DCA48C"/>
<path d="M163.077 96.0721L151.47 100.065L150.693 106.054L170.733 104.328C173.121 104.121 174.837 101.936 174.468 99.5661L173.597 93.9648L163.077 96.0721Z" fill="#F68F3E"/>
<path d="M158.088 105.633L157.95 106.195L139.104 106.247L141.863 101.581L146.955 100.669C147.485 100.574 148.031 100.617 148.539 100.795L157.086 103.78C157.454 103.908 157.761 104.169 157.947 104.512C158.132 104.855 158.183 105.254 158.088 105.633Z" fill="#FFC1AF"/>
<path d="M108.208 72.6791H146.595C147.016 72.6791 147.434 72.7621 147.823 72.9233C148.212 73.0846 148.566 73.3209 148.864 73.6189C149.162 73.9168 149.398 74.2705 149.559 74.6598C149.72 75.0491 149.803 75.4663 149.803 75.8877V102.392C149.803 103.243 149.465 104.059 148.864 104.661C148.262 105.263 147.446 105.601 146.595 105.601H108.208C107.357 105.601 106.541 105.263 105.939 104.661C105.338 104.059 105 103.243 105 102.392V75.8877C105 75.4663 105.083 75.0491 105.244 74.6598C105.405 74.2705 105.641 73.9168 105.939 73.6189C106.237 73.3209 106.591 73.0846 106.98 72.9233C107.369 72.7621 107.787 72.6791 108.208 72.6791Z" fill="#D9D9D9"/>
<path d="M121.324 90.3431V87.304H122.133L123.158 89.574L124.168 87.304H124.943V90.3431H124.275V88.575L123.506 90.3431H122.795L122.015 88.5838V90.3431H121.324ZM126.025 90.3431H125.24L126.589 87.3022H127.555L128.913 90.3431H128.138L127.871 89.7368H126.284L126.025 90.3431ZM127.627 89.1656L127.069 87.8766L126.524 89.1656H127.627ZM129.225 90.3431V87.304H132.128V87.91H129.927V88.5138H131.814V89.1077H129.927V89.7343H132.133V90.3431H129.225ZM132.697 90.342V87.3022H135.127C135.451 87.3022 135.639 87.4906 135.639 87.8119V88.8341C135.639 89.0679 135.431 89.2815 135.028 89.2815H134.958L135.665 90.342H134.885L134.214 89.3032H133.409V90.342H132.697ZM133.409 88.6979H134.934V87.911H133.409V88.6979ZM136.918 90.3445H136.678C136.364 90.3445 136.212 90.1626 136.212 89.8981V89.5015H136.918V89.7368H138.418V89.1141H136.698C136.423 89.1141 136.225 88.9293 136.225 88.6738V87.7703C136.225 87.4966 136.44 87.3047 136.702 87.3047H138.67C138.936 87.3047 139.12 87.503 139.12 87.7902V88.1527H138.418V87.9125H136.918V88.511H138.635C138.888 88.511 139.12 88.6791 139.12 89.0015V89.869C139.12 90.1654 138.955 90.3445 138.649 90.3445H136.918ZM139.797 90.3445V87.3047H140.518V88.5202L141.891 87.3047H142.867L141.229 88.7157L142.926 90.3445H141.915L140.518 88.9613V90.3445H139.797Z" fill="black"/>
<path d="M118.416 91.4868C118.416 91.9204 118.064 92.273 117.63 92.273H112.664C112.56 92.2731 112.458 92.2528 112.363 92.2134C112.267 92.174 112.18 92.1161 112.107 92.0431C112.034 91.9701 111.976 91.8834 111.936 91.7879C111.897 91.6925 111.876 91.5901 111.876 91.4868V86.1599C111.876 85.7253 112.228 85.373 112.664 85.373H117.63C118.064 85.373 118.416 85.7253 118.416 86.1599V91.4868Z" fill="#42B0D5"/>
<path d="M116.189 88.6437L117.479 87.0255L117.475 87.0202L115.61 87.919L115.149 85.9003H115.143L114.682 87.919L112.817 87.0202L112.813 87.0255L114.104 88.6437L112.238 89.5414L112.241 89.5475H114.31L113.85 91.5662L113.856 91.569L115.146 89.9509L116.436 91.569L116.442 91.5651L115.982 89.5475H118.052L118.054 89.5414L116.189 88.6437Z" fill="white"/>
<path d="M183.284 108.754H9.76537L1.04346 190.024H4.84708C4.84708 190.024 19.329 129.076 21.9369 119.839C22.4804 117.774 23.4582 116.47 26.0665 116.47H166.765C169.373 116.47 170.243 117.665 170.895 119.839C173.503 129.076 187.196 190.024 187.196 190.024H191L183.284 108.754Z" fill="#CFCFCF"/>
<path d="M189.261 105.385C189.261 107.776 188.718 109.08 183.936 109.08H9.33047C4.54899 109.08 3.78833 108.863 3.78833 105.385H189.261Z" fill="#545454"/>
</svg>
