<svg width="192" height="192" viewBox="0 0 192 192" fill="none" xmlns="http://www.w3.org/2000/svg">
<path d="M25.429 119.998C25.8521 128.047 26.7701 136.063 28.1779 143.999C29.9897 153.724 32.5853 161.626 36.1007 167.999C46.2116 186.326 63.9323 191.999 92.4994 191.999C121.066 191.999 138.786 186.326 148.896 167.999C152.411 161.626 155.006 153.724 156.818 143.998C158.225 136.062 159.143 128.047 159.567 119.998C160.005 112.708 160.212 104.729 160.212 95.9986C160.212 87.2691 160.004 79.2903 159.562 71.9979C159.136 63.9486 158.212 55.9333 156.796 47.9982C154.975 38.2788 152.367 30.374 148.835 23.9974C138.714 5.73089 121.011 -0.000123784 92.4994 -0.00012503C63.9881 -0.000126276 46.2835 5.73088 36.1607 23.9996C32.6292 30.3751 30.0208 38.2799 28.1993 48.0003C26.7832 55.9355 25.8594 63.9507 25.4333 72C24.9916 79.2914 24.7836 87.2713 24.7836 95.9997C24.7836 104.73 24.9905 112.709 25.429 120L25.429 119.998Z" fill="#E9F6FC"/>
<mask id="mask0_11503_2190" style="mask-type:alpha" maskUnits="userSpaceOnUse" x="24" y="-1" width="137" height="193">
<path d="M25.429 119.998C25.8521 128.047 26.7701 136.063 28.1779 143.999C29.9897 153.724 32.5853 161.626 36.1007 167.999C46.2116 186.326 63.9323 191.999 92.4994 191.999C121.066 191.999 138.786 186.326 148.896 167.999C152.411 161.626 155.006 153.724 156.818 143.998C158.225 136.062 159.143 128.047 159.567 119.998C160.005 112.708 160.212 104.729 160.212 95.9986C160.212 87.2691 160.004 79.2903 159.562 71.9979C159.136 63.9486 158.212 55.9333 156.796 47.9982C154.975 38.2788 152.367 30.374 148.835 23.9974C138.714 5.73089 121.011 -0.000123784 92.4994 -0.00012503C63.9881 -0.000126276 46.2835 5.73088 36.1607 23.9996C32.6292 30.3751 30.0208 38.2799 28.1993 48.0003C26.7832 55.9355 25.8594 63.9507 25.4333 72C24.9916 79.2914 24.7836 87.2713 24.7836 95.9997C24.7836 104.73 24.9905 112.709 25.429 120L25.429 119.998Z" fill="#E9F6FC"/>
</mask>
<g mask="url(#mask0_11503_2190)">
<path d="M-1.0376 153.428H186.676V224.571H-1.0376V153.428Z" fill="#ABB7C0"/>
</g>
<path d="M167.819 163.888V124.272C167.818 123.675 167.7 123.084 167.471 122.532C167.242 121.981 166.906 121.48 166.484 121.058C166.061 120.636 165.559 120.302 165.007 120.074C164.455 119.846 163.864 119.729 163.267 119.73H18.556C17.3497 119.729 16.1924 120.207 15.3381 121.058C14.4839 121.91 14.0026 123.066 14 124.272V163.888H167.819Z" fill="#EDEDED"/>
<path d="M22.4598 157.203C22.2454 157.203 22.0331 157.161 21.8351 157.078C21.6371 156.996 21.4573 156.876 21.3059 156.724C21.1544 156.572 21.0345 156.392 20.9528 156.194C20.8711 155.996 20.8293 155.783 20.8298 155.569V128.036C20.8298 127.603 21.0019 127.188 21.3081 126.882C21.6143 126.576 22.0297 126.404 22.4627 126.404C22.8958 126.404 23.3111 126.576 23.6174 126.882C23.9236 127.188 24.0956 127.603 24.0956 128.036V155.569C24.0956 155.784 24.0533 155.996 23.9711 156.195C23.8888 156.393 23.7683 156.573 23.6164 156.725C23.4645 156.877 23.2841 156.997 23.0857 157.079C22.8872 157.161 22.6745 157.203 22.4598 157.203ZM30.0636 157.203C29.8495 157.203 29.6374 157.161 29.4396 157.079C29.2417 156.997 29.0619 156.877 28.9105 156.726C28.7591 156.575 28.6391 156.395 28.5572 156.197C28.4754 155.999 28.4334 155.787 28.4337 155.573V128.038C28.4337 127.606 28.6054 127.192 28.9111 126.886C29.2168 126.58 29.6313 126.408 30.0636 126.408C30.4959 126.408 30.9105 126.58 31.2162 126.886C31.5219 127.192 31.6936 127.606 31.6936 128.038V155.575C31.6938 155.789 31.6519 156.001 31.57 156.199C31.4882 156.397 31.3682 156.577 31.2168 156.728C31.0654 156.879 30.8856 156.999 30.6877 157.081C30.4898 157.163 30.2777 157.203 30.0636 157.203ZM37.6694 157.203C37.4553 157.203 37.2433 157.161 37.0454 157.079C36.8475 156.997 36.6677 156.877 36.5163 156.726C36.3649 156.575 36.2449 156.395 36.163 156.197C36.0812 155.999 36.0392 155.787 36.0395 155.573V128.038C36.0395 127.606 36.2114 127.191 36.5175 126.884C36.8235 126.578 37.2386 126.407 37.6714 126.407C38.1042 126.407 38.5193 126.578 38.8253 126.884C39.1314 127.191 39.3033 127.606 39.3033 128.038V155.575C39.3031 155.789 39.2606 156.001 39.1784 156.199C39.0961 156.397 38.9757 156.577 38.824 156.728C38.6722 156.88 38.4922 157 38.2941 157.081C38.096 157.163 37.8837 157.203 37.6694 157.203ZM45.2811 157.203H45.2772C45.0631 157.203 44.851 157.161 44.6531 157.079C44.4553 156.997 44.2755 156.877 44.1241 156.726C43.9727 156.575 43.8526 156.395 43.7708 156.197C43.689 155.999 43.647 155.787 43.6473 155.573V128.038C43.6473 127.606 43.8192 127.191 44.1252 126.884C44.4313 126.578 44.8464 126.407 45.2792 126.407C45.712 126.407 46.1271 126.578 46.4331 126.884C46.7392 127.191 46.9111 127.606 46.9111 128.038V155.575C46.9111 155.789 46.8689 156.001 46.787 156.199C46.7051 156.396 46.585 156.576 46.4337 156.727C46.2823 156.879 46.1026 156.999 45.9049 157.081C45.7071 157.163 45.4952 157.203 45.2811 157.203ZM52.8869 157.203H52.881C52.6674 157.203 52.4556 157.162 52.258 157.08C52.0604 156.999 51.8808 156.88 51.7294 156.729C51.578 156.578 51.4579 156.399 51.3758 156.201C51.2937 156.004 51.2513 155.792 51.2511 155.579V128.038C51.2511 127.605 51.4231 127.19 51.7294 126.884C52.0356 126.578 52.4509 126.406 52.884 126.406C53.3171 126.406 53.7324 126.578 54.0386 126.884C54.3449 127.19 54.5169 127.605 54.5169 128.038V155.575C54.5172 155.789 54.4752 156.001 54.3933 156.199C54.3115 156.397 54.1915 156.577 54.0401 156.728C53.8887 156.879 53.7089 156.999 53.511 157.081C53.3131 157.163 53.1011 157.203 52.8869 157.203ZM60.4849 157.203C60.2708 157.203 60.0587 157.161 59.8608 157.079C59.6629 156.997 59.4832 156.877 59.3318 156.726C59.1803 156.575 59.0603 156.395 58.9785 156.197C58.8967 155.999 58.8547 155.787 58.8549 155.573V128.038C58.8549 127.606 59.0267 127.192 59.3323 126.886C59.638 126.58 60.0526 126.408 60.4849 126.408H60.4908C60.7049 126.408 60.917 126.45 61.1148 126.532C61.3127 126.614 61.4925 126.734 61.6439 126.885C61.7953 127.037 61.9154 127.216 61.9972 127.414C62.079 127.612 62.121 127.824 62.1207 128.038V155.575C62.1205 155.789 62.0779 156.002 61.9956 156.2C61.9132 156.398 61.7926 156.578 61.6407 156.729C61.4888 156.88 61.3085 157 61.1101 157.082C60.9118 157.164 60.6994 157.203 60.4849 157.203ZM68.0985 157.203C67.8841 157.203 67.6716 157.162 67.4733 157.08C67.275 156.998 67.0947 156.878 66.9428 156.727C66.7908 156.576 66.6702 156.396 66.5879 156.198C66.5055 156 66.463 155.787 66.4627 155.573V128.038C66.4627 127.605 66.6347 127.19 66.941 126.884C67.2472 126.578 67.6625 126.406 68.0956 126.406C68.5287 126.406 68.944 126.578 69.2502 126.884C69.5565 127.19 69.7285 127.605 69.7285 128.038V155.575C69.7288 155.789 69.6868 156.001 69.605 156.199C69.5231 156.397 69.4031 156.577 69.2517 156.728C69.1003 156.879 68.9205 156.999 68.7226 157.081C68.5247 157.163 68.3127 157.203 68.0985 157.203ZM75.6965 157.203C75.4824 157.203 75.2703 157.161 75.0724 157.079C74.8746 156.997 74.6948 156.877 74.5434 156.726C74.392 156.575 74.2719 156.395 74.1901 156.197C74.1083 155.999 74.0663 155.787 74.0665 155.573V128.038C74.0665 127.606 74.2383 127.192 74.544 126.886C74.8496 126.58 75.2642 126.408 75.6965 126.408H75.7024C76.1347 126.408 76.5493 126.58 76.8549 126.886C77.1606 127.192 77.3324 127.606 77.3324 128.038V155.575C77.3321 155.789 77.2896 156.002 77.2072 156.2C77.1248 156.398 77.0042 156.578 76.8523 156.729C76.7004 156.88 76.5201 157 76.3218 157.082C76.1234 157.164 75.911 157.203 75.6965 157.203ZM83.3082 157.203C83.0937 157.203 82.8813 157.162 82.6829 157.08C82.4846 156.998 82.3043 156.878 82.1524 156.727C82.0005 156.576 81.8799 156.396 81.7975 156.198C81.7151 156 81.6726 155.787 81.6724 155.573V128.038C81.6724 127.606 81.8443 127.191 82.1503 126.884C82.4564 126.578 82.8714 126.407 83.3043 126.407C83.7371 126.407 84.1522 126.578 84.4582 126.884C84.7643 127.191 84.9362 127.606 84.9362 128.038V155.575C84.9362 155.789 84.894 156.001 84.8121 156.199C84.7302 156.396 84.6102 156.576 84.4588 156.727C84.3074 156.879 84.1278 156.999 83.93 157.081C83.7322 157.163 83.5203 157.205 83.3062 157.205M90.9101 157.203C90.696 157.203 90.4839 157.161 90.286 157.079C90.0881 156.997 89.9083 156.877 89.7569 156.726C89.6055 156.575 89.4855 156.395 89.4037 156.197C89.3219 155.999 89.2799 155.787 89.2801 155.573V128.038C89.2801 127.606 89.4519 127.192 89.7575 126.886C90.0632 126.58 90.4778 126.408 90.9101 126.408H90.914C91.1281 126.408 91.3402 126.45 91.5381 126.532C91.7359 126.614 91.9157 126.734 92.0671 126.885C92.2185 127.037 92.3386 127.216 92.4204 127.414C92.5023 127.612 92.5442 127.824 92.544 128.038V155.575C92.544 155.789 92.5017 156.002 92.4195 156.2C92.3374 156.398 92.2169 156.577 92.0652 156.729C91.9134 156.88 91.7333 157 91.535 157.082C91.3368 157.164 91.1245 157.203 90.9101 157.203ZM98.5198 157.203C98.3054 157.203 98.0929 157.162 97.8945 157.08C97.6962 156.998 97.516 156.878 97.364 156.727C97.2121 156.576 97.0915 156.396 97.0091 156.198C96.9268 156 96.8842 155.787 96.884 155.573V128.038C96.884 127.605 97.056 127.19 97.3622 126.884C97.6685 126.578 98.0838 126.406 98.5169 126.406C98.9499 126.406 99.3653 126.578 99.6715 126.884C99.9777 127.19 100.15 127.605 100.15 128.038V155.575C100.15 155.789 100.108 156.001 100.026 156.199C99.9444 156.397 99.8243 156.577 99.6729 156.728C99.5215 156.879 99.3418 156.999 99.1439 157.081C98.946 157.163 98.7339 157.203 98.5198 157.203ZM106.118 157.203C105.904 157.203 105.692 157.161 105.494 157.079C105.296 156.997 105.116 156.877 104.965 156.726C104.813 156.575 104.693 156.395 104.611 156.197C104.53 155.999 104.488 155.787 104.488 155.573V128.038C104.488 127.824 104.53 127.612 104.612 127.415C104.694 127.217 104.814 127.037 104.965 126.886C105.117 126.735 105.296 126.614 105.494 126.533C105.692 126.451 105.904 126.408 106.118 126.408H106.13C106.343 126.409 106.555 126.451 106.752 126.533C106.949 126.615 107.129 126.735 107.279 126.887C107.43 127.038 107.55 127.218 107.631 127.415C107.713 127.613 107.754 127.825 107.754 128.038V155.575C107.753 155.789 107.711 156.002 107.628 156.2C107.546 156.398 107.425 156.578 107.274 156.729C107.122 156.88 106.941 157 106.743 157.082C106.545 157.164 106.332 157.203 106.118 157.203ZM113.727 157.203H113.722C113.508 157.203 113.296 157.161 113.098 157.079C112.9 156.997 112.72 156.877 112.569 156.725C112.418 156.574 112.298 156.394 112.216 156.197C112.134 155.999 112.092 155.787 112.092 155.573V128.038C112.092 127.605 112.264 127.19 112.57 126.884C112.876 126.578 113.291 126.406 113.725 126.406C114.158 126.406 114.573 126.578 114.879 126.884C115.185 127.19 115.357 127.605 115.357 128.038V155.569C115.358 155.783 115.316 155.996 115.234 156.194C115.153 156.392 115.033 156.572 114.881 156.724C114.73 156.876 114.55 156.996 114.352 157.078C114.154 157.161 113.942 157.203 113.727 157.203ZM121.335 157.203H121.329C121.115 157.203 120.903 157.161 120.705 157.079C120.507 156.997 120.328 156.877 120.176 156.726C120.025 156.575 119.905 156.395 119.823 156.197C119.741 155.999 119.699 155.787 119.699 155.573V128.038C119.699 127.605 119.871 127.19 120.178 126.884C120.484 126.578 120.899 126.406 121.332 126.406C121.765 126.406 122.181 126.578 122.487 126.884C122.793 127.19 122.965 127.605 122.965 128.038V155.575C122.965 155.789 122.924 156.001 122.842 156.199C122.76 156.397 122.64 156.577 122.488 156.728C122.337 156.879 122.157 156.999 121.959 157.081C121.761 157.163 121.549 157.203 121.335 157.203ZM128.935 157.203C128.721 157.203 128.509 157.161 128.311 157.079C128.113 156.997 127.933 156.877 127.782 156.726C127.631 156.575 127.511 156.395 127.429 156.197C127.347 155.999 127.305 155.787 127.305 155.573V128.038C127.305 127.824 127.347 127.612 127.429 127.414C127.511 127.216 127.631 127.037 127.782 126.885C127.933 126.734 128.113 126.614 128.311 126.532C128.509 126.45 128.721 126.408 128.935 126.408H128.941C129.155 126.408 129.367 126.45 129.565 126.532C129.763 126.614 129.943 126.734 130.094 126.885C130.246 127.037 130.366 127.216 130.447 127.414C130.529 127.612 130.571 127.824 130.571 128.038V155.569C130.572 155.784 130.53 155.997 130.448 156.195C130.365 156.394 130.245 156.574 130.093 156.726C129.941 156.878 129.76 156.998 129.562 157.08C129.363 157.162 129.15 157.204 128.935 157.203ZM136.539 157.203C136.325 157.203 136.113 157.161 135.915 157.079C135.717 156.997 135.537 156.877 135.386 156.726C135.234 156.575 135.114 156.395 135.033 156.197C134.951 155.999 134.909 155.787 134.909 155.573V128.038C134.909 127.605 135.081 127.19 135.387 126.884C135.694 126.578 136.109 126.406 136.542 126.406C136.975 126.406 137.39 126.578 137.697 126.884C138.003 127.19 138.175 127.605 138.175 128.038V155.569C138.175 155.784 138.133 155.997 138.051 156.195C137.969 156.394 137.849 156.574 137.697 156.726C137.545 156.878 137.364 156.998 137.165 157.08C136.967 157.162 136.754 157.204 136.539 157.203ZM144.151 157.203C143.936 157.203 143.724 157.161 143.526 157.079C143.328 156.998 143.148 156.878 142.996 156.726C142.844 156.575 142.724 156.395 142.642 156.197C142.56 155.999 142.517 155.787 142.517 155.573V128.038C142.517 127.606 142.689 127.191 142.995 126.884C143.301 126.578 143.716 126.407 144.149 126.407C144.582 126.407 144.997 126.578 145.303 126.884C145.609 127.191 145.781 127.606 145.781 128.038V155.575C145.781 155.789 145.739 156.001 145.657 156.199C145.575 156.397 145.455 156.577 145.304 156.728C145.152 156.879 144.973 156.999 144.775 157.081C144.577 157.163 144.365 157.203 144.151 157.203ZM151.757 157.203C151.542 157.203 151.33 157.161 151.132 157.079C150.934 156.998 150.754 156.878 150.602 156.726C150.45 156.575 150.33 156.395 150.248 156.197C150.165 155.999 150.123 155.787 150.123 155.573V128.038C150.123 127.606 150.295 127.191 150.601 126.884C150.907 126.578 151.322 126.407 151.755 126.407C152.187 126.407 152.602 126.578 152.908 126.884C153.215 127.191 153.386 127.606 153.386 128.038V155.575C153.387 155.789 153.345 156.001 153.263 156.199C153.181 156.397 153.061 156.577 152.91 156.728C152.758 156.879 152.578 156.999 152.381 157.081C152.183 157.163 151.971 157.203 151.757 157.203ZM159.362 157.203C159.148 157.203 158.935 157.162 158.737 157.08C158.539 156.998 158.358 156.878 158.207 156.727C158.055 156.576 157.934 156.396 157.852 156.198C157.769 156 157.727 155.787 157.726 155.573V128.038C157.726 127.824 157.768 127.612 157.85 127.414C157.932 127.216 158.052 127.037 158.203 126.885C158.355 126.734 158.534 126.614 158.732 126.532C158.93 126.45 159.142 126.408 159.356 126.408H159.362C159.576 126.408 159.788 126.45 159.986 126.532C160.184 126.614 160.364 126.734 160.515 126.885C160.667 127.037 160.787 127.216 160.869 127.414C160.951 127.612 160.993 127.824 160.992 128.038V155.575C160.993 155.789 160.951 156.001 160.869 156.199C160.787 156.397 160.667 156.577 160.515 156.728C160.364 156.879 160.184 156.999 159.986 157.081C159.788 157.163 159.576 157.203 159.362 157.203Z" fill="#CFCFCF"/>
<path d="M69.7639 146.487V137.135H72.2501L75.402 144.118L78.5166 137.135H80.9026V146.487H78.8465V141.049L76.4782 146.487H74.2885L71.8907 141.073V146.487H69.7639ZM84.2253 146.485H81.8177L85.9672 137.127H88.9463L93.1194 146.485H90.7334L89.9145 144.619H85.0246L84.2253 146.485ZM89.1643 142.862L87.4401 138.897L85.765 142.864L89.1643 142.862ZM94.0836 146.487V137.135H103.021V139.001H96.2458V140.849H102.053V142.685H96.2458V144.617H103.033V146.487H94.0836ZM104.773 146.489V137.119H112.255C112.466 137.099 112.679 137.126 112.879 137.198C113.079 137.27 113.26 137.385 113.41 137.536C113.56 137.686 113.675 137.868 113.747 138.068C113.818 138.268 113.844 138.481 113.824 138.692V141.846C113.824 142.563 113.186 143.211 111.952 143.211H111.736L113.908 146.489H111.512L109.439 143.29H106.968V146.489H104.773ZM106.968 141.426H111.662V139.007H106.968V141.426ZM117.765 146.495H117.025C116.836 146.517 116.644 146.498 116.464 146.437C116.283 146.377 116.118 146.277 115.981 146.145C115.844 146.013 115.738 145.852 115.67 145.674C115.603 145.496 115.576 145.306 115.591 145.116V143.895H117.765V144.621H122.384V142.697H117.088C116.902 142.711 116.715 142.686 116.539 142.625C116.362 142.563 116.201 142.466 116.064 142.339C115.927 142.212 115.818 142.059 115.744 141.888C115.669 141.717 115.63 141.532 115.63 141.345V138.563C115.63 138.371 115.668 138.182 115.743 138.005C115.817 137.829 115.926 137.67 116.064 137.536C116.201 137.403 116.364 137.299 116.543 137.23C116.721 137.161 116.912 137.129 117.103 137.135H123.164C123.355 137.133 123.545 137.172 123.721 137.248C123.897 137.324 124.056 137.435 124.186 137.576C124.316 137.717 124.415 137.883 124.477 138.065C124.539 138.246 124.563 138.439 124.546 138.63V139.745H122.386V139.011H117.765V140.853H123.052C123.251 140.843 123.45 140.875 123.637 140.947C123.823 141.02 123.992 141.13 124.133 141.272C124.274 141.413 124.383 141.583 124.454 141.769C124.526 141.956 124.557 142.155 124.546 142.355V145.02C124.568 145.217 124.546 145.416 124.481 145.603C124.416 145.79 124.31 145.961 124.171 146.102C124.032 146.243 123.863 146.351 123.677 146.419C123.491 146.486 123.292 146.512 123.095 146.493L117.765 146.495ZM126.632 146.493V137.135H128.845V140.87L133.073 137.135H136.08L131.035 141.481L136.258 146.493H133.152L128.845 142.237V146.493H126.632Z" fill="black"/>
<path d="M43.0976 131.187H58.3956C59.0363 131.187 59.6506 131.441 60.1036 131.894C60.5566 132.347 60.8111 132.961 60.8111 133.602V150.004C60.8111 150.645 60.5562 151.261 60.1025 151.715C59.6488 152.168 59.0334 152.423 58.3917 152.423H43.0976C42.456 152.423 41.8406 152.168 41.3868 151.715C40.9331 151.261 40.6782 150.645 40.6782 150.004V133.606C40.6782 132.964 40.9331 132.349 41.3868 131.895C41.8406 131.442 42.456 131.187 43.0976 131.187Z" fill="#00B2D9"/>
<path d="M53.9555 141.253L57.9263 136.275L57.9145 136.259L52.1743 139.024L50.7584 132.809H50.7349L49.319 139.024L43.5788 136.259L43.567 136.275L47.5378 141.253L41.7976 144.014L41.8035 144.038H48.1701L46.7542 150.253L46.7699 150.265L50.7467 145.281L54.7174 150.265L54.7351 150.253L53.3232 144.038H59.6898L59.6957 144.014L53.9555 141.253Z" fill="white"/>
<path d="M167.819 116.729V77.1135C167.818 76.5163 167.7 75.925 167.471 75.3735C167.242 74.822 166.906 74.3211 166.484 73.8993C166.061 73.4774 165.559 73.143 165.007 72.9152C164.455 72.6873 163.864 72.5704 163.267 72.5712H18.556C17.3497 72.5701 16.1924 73.0479 15.3381 73.8996C14.4839 74.7513 14.0026 75.9072 14 77.1135V116.729H167.819Z" fill="#EDEDED"/>
<path d="M22.4598 110.046C22.2453 110.046 22.0328 110.004 21.8347 109.922C21.6365 109.839 21.4566 109.719 21.3052 109.567C21.1537 109.415 21.0338 109.234 20.9522 109.036C20.8707 108.838 20.8291 108.625 20.8298 108.41V80.874C20.8306 80.4409 21.0034 80.0259 21.3102 79.7202C21.617 79.4145 22.0326 79.2432 22.4657 79.244C22.8988 79.2448 23.3138 79.4176 23.6195 79.7244C23.9251 80.0312 24.0964 80.4468 24.0957 80.8799V108.41C24.0959 108.625 24.0538 108.838 23.9717 109.037C23.8895 109.235 23.769 109.416 23.6171 109.568C23.4651 109.72 23.2847 109.84 23.0861 109.922C22.8875 110.004 22.6747 110.047 22.4598 110.046ZM30.0636 110.046C29.8495 110.047 29.6374 110.005 29.4396 109.923C29.2417 109.841 29.0619 109.721 28.9105 109.569C28.7591 109.418 28.6391 109.238 28.5572 109.04C28.4754 108.842 28.4334 108.63 28.4337 108.416V80.874C28.4337 80.4417 28.6054 80.0271 28.9111 79.7214C29.2168 79.4158 29.6313 79.244 30.0636 79.244C30.4959 79.244 30.9105 79.4158 31.2162 79.7214C31.5219 80.0271 31.6936 80.4417 31.6936 80.874V108.416C31.6939 108.63 31.6519 108.842 31.57 109.04C31.4882 109.238 31.3682 109.418 31.2168 109.569C31.0654 109.721 30.8856 109.841 30.6877 109.923C30.4898 110.005 30.2778 110.047 30.0636 110.046ZM37.6694 110.046C37.4553 110.047 37.2433 110.005 37.0454 109.923C36.8475 109.841 36.6677 109.721 36.5163 109.569C36.3649 109.418 36.2449 109.238 36.163 109.04C36.0812 108.842 36.0392 108.63 36.0395 108.416V80.8779C36.0395 80.4451 36.2114 80.03 36.5175 79.724C36.8235 79.4179 37.2386 79.246 37.6714 79.246C38.1042 79.246 38.5193 79.4179 38.8254 79.724C39.1314 80.03 39.3033 80.4451 39.3033 80.8779V108.414C39.3031 108.629 39.2606 108.841 39.1784 109.039C39.0961 109.237 38.9757 109.416 38.824 109.568C38.6722 109.719 38.4922 109.839 38.2941 109.921C38.096 110.003 37.8837 110.047 37.6694 110.046ZM45.2811 110.046H45.2772C45.0631 110.047 44.851 110.005 44.6532 109.923C44.4553 109.841 44.2755 109.721 44.1241 109.569C43.9727 109.418 43.8526 109.238 43.7708 109.04C43.689 108.842 43.647 108.63 43.6473 108.416V80.874C43.6473 80.4412 43.8192 80.0261 44.1252 79.72C44.4313 79.414 44.8464 79.2421 45.2792 79.2421C45.712 79.2421 46.1271 79.414 46.4331 79.72C46.7392 80.0261 46.9111 80.4412 46.9111 80.874V108.416C46.9111 108.849 46.7394 109.263 46.4337 109.569C46.128 109.875 45.7134 110.046 45.2811 110.046ZM52.8869 110.046H52.8811C52.6674 110.047 52.4557 110.005 52.2581 109.924C52.0604 109.842 51.8808 109.723 51.7294 109.572C51.5781 109.421 51.4579 109.242 51.3758 109.045C51.2937 108.847 51.2514 108.636 51.2511 108.422V80.874C51.2511 80.4409 51.4231 80.0256 51.7294 79.7193C52.0356 79.4131 52.4509 79.2411 52.884 79.2411C53.3171 79.2411 53.7324 79.4131 54.0386 79.7193C54.3449 80.0256 54.5169 80.4409 54.5169 80.874V108.416C54.5172 108.63 54.4752 108.842 54.3934 109.04C54.3115 109.238 54.1915 109.418 54.0401 109.569C53.8887 109.721 53.7089 109.841 53.511 109.923C53.3131 110.005 53.1011 110.047 52.8869 110.046ZM60.4849 110.046C60.2708 110.047 60.0587 110.005 59.8608 109.923C59.663 109.841 59.4832 109.721 59.3318 109.569C59.1804 109.418 59.0603 109.238 58.9785 109.04C58.8967 108.842 58.8547 108.63 58.8549 108.416V80.8779C58.8549 80.4451 59.0265 80.0299 59.332 79.7233C59.6375 79.4167 60.0521 79.2436 60.4849 79.2421H60.4908C60.9231 79.2421 61.3377 79.4138 61.6433 79.7195C61.949 80.0251 62.1208 80.4397 62.1208 80.872V108.414C62.1205 108.629 62.078 108.841 61.9956 109.039C61.9132 109.237 61.7926 109.417 61.6407 109.568C61.4888 109.72 61.3085 109.84 61.1102 109.921C60.9118 110.003 60.6994 110.047 60.4849 110.046ZM68.0986 110.046C67.8841 110.047 67.6716 110.005 67.4733 109.923C67.275 109.842 67.0947 109.722 66.9428 109.57C66.7908 109.419 66.6702 109.239 66.5879 109.041C66.5055 108.843 66.463 108.631 66.4627 108.416V80.874C66.4627 80.4409 66.6347 80.0256 66.941 79.7193C67.2472 79.4131 67.6625 79.2411 68.0956 79.2411C68.5287 79.2411 68.944 79.4131 69.2502 79.7193C69.5565 80.0256 69.7285 80.4409 69.7285 80.874V108.416C69.7288 108.63 69.6868 108.842 69.605 109.04C69.5232 109.238 69.4031 109.418 69.2517 109.569C69.1003 109.721 68.9205 109.841 68.7226 109.923C68.5247 110.005 68.3127 110.047 68.0986 110.046ZM75.6965 110.046C75.4824 110.047 75.2703 110.005 75.0724 109.923C74.8746 109.841 74.6948 109.721 74.5434 109.569C74.392 109.418 74.2719 109.238 74.1901 109.04C74.1083 108.842 74.0663 108.63 74.0666 108.416V80.8779C74.0666 80.4451 74.2381 80.0299 74.5436 79.7233C74.8491 79.4167 75.2637 79.2436 75.6965 79.2421H75.7024C76.1342 79.2436 76.5479 79.4158 76.8532 79.7212C77.1586 80.0265 77.3308 80.4402 77.3324 80.872V108.414C77.3321 108.629 77.2896 108.841 77.2072 109.039C77.1248 109.237 77.0042 109.417 76.8523 109.568C76.7004 109.72 76.5201 109.84 76.3218 109.921C76.1235 110.003 75.911 110.047 75.6965 110.046ZM83.3082 110.046C83.0937 110.047 82.8813 110.005 82.6829 109.923C82.4846 109.842 82.3044 109.722 82.1524 109.57C82.0005 109.419 81.8799 109.239 81.7975 109.041C81.7151 108.843 81.6726 108.631 81.6724 108.416V80.874C81.6724 80.4412 81.8443 80.0261 82.1503 79.72C82.4564 79.414 82.8715 79.2421 83.3043 79.2421C83.7371 79.2421 84.1522 79.414 84.4582 79.72C84.7643 80.0261 84.9362 80.4412 84.9362 80.874V108.416C84.9362 108.849 84.7645 109.263 84.4588 109.569C84.1531 109.875 83.7405 110.046 83.3082 110.046ZM90.9101 110.046C90.696 110.047 90.4839 110.005 90.286 109.923C90.0881 109.841 89.9083 109.721 89.7569 109.569C89.6055 109.418 89.4855 109.238 89.4037 109.04C89.3219 108.842 89.2799 108.63 89.2801 108.416V80.8779C89.2801 80.4451 89.4517 80.0299 89.7572 79.7233C90.0627 79.4167 90.4773 79.2436 90.9101 79.2421H90.914C91.1281 79.2421 91.34 79.2842 91.5378 79.3661C91.7355 79.448 91.9152 79.5681 92.0666 79.7195C92.2179 79.8708 92.338 80.0505 92.4199 80.2483C92.5018 80.446 92.544 80.658 92.544 80.872V108.414C92.544 108.629 92.5017 108.841 92.4195 109.039C92.3374 109.237 92.2169 109.417 92.0652 109.568C91.9134 109.72 91.7333 109.84 91.535 109.921C91.3368 110.003 91.1245 110.047 90.9101 110.046ZM98.5198 110.046C98.3054 110.047 98.0929 110.005 97.8945 109.923C97.6962 109.842 97.516 109.722 97.364 109.57C97.2121 109.419 97.0915 109.239 97.0091 109.041C96.9268 108.843 96.8842 108.631 96.884 108.416V80.8779C96.884 80.4448 97.056 80.0295 97.3622 79.7233C97.6685 79.417 98.0838 79.245 98.5169 79.245C98.9499 79.245 99.3653 79.417 99.6715 79.7233C99.9777 80.0295 100.15 80.4448 100.15 80.8779V108.414C100.15 108.628 100.108 108.841 100.026 109.038C99.9444 109.236 99.8244 109.416 99.673 109.567C99.5215 109.719 99.3418 109.839 99.1439 109.921C98.946 110.003 98.7339 110.047 98.5198 110.046ZM106.118 110.046C105.903 110.046 105.691 110.004 105.493 109.922C105.295 109.839 105.115 109.719 104.963 109.567C104.812 109.415 104.692 109.234 104.61 109.036C104.529 108.838 104.487 108.625 104.488 108.41V80.8779C104.488 80.4454 104.66 80.0307 104.966 79.7245C105.271 79.4183 105.685 79.2456 106.118 79.244H106.13C106.561 79.2456 106.974 79.418 107.278 79.7235C107.583 80.029 107.754 80.4427 107.754 80.874V108.41C107.754 108.625 107.712 108.838 107.63 109.037C107.548 109.235 107.427 109.416 107.275 109.568C107.123 109.72 106.943 109.84 106.744 109.922C106.546 110.004 106.333 110.047 106.118 110.046ZM113.727 110.046H113.722C113.289 110.046 112.875 109.875 112.569 109.569C112.263 109.263 112.092 108.849 112.092 108.416V80.8779C112.091 80.6635 112.133 80.4511 112.215 80.2528C112.297 80.0545 112.416 79.8743 112.568 79.7224C112.719 79.5705 112.899 79.4499 113.097 79.3675C113.295 79.2851 113.507 79.2424 113.722 79.2421C113.936 79.2417 114.148 79.2835 114.347 79.3652C114.545 79.4469 114.725 79.5669 114.877 79.7182C115.029 79.8696 115.15 80.0494 115.232 80.2474C115.314 80.4453 115.357 80.6576 115.357 80.872V108.408C115.358 108.623 115.317 108.836 115.235 109.034C115.154 109.232 115.034 109.413 114.882 109.565C114.731 109.717 114.551 109.837 114.353 109.92C114.154 110.002 113.942 110.046 113.727 110.046ZM121.335 110.046H121.329C121.115 110.047 120.903 110.005 120.705 109.923C120.507 109.841 120.328 109.721 120.176 109.569C120.025 109.418 119.905 109.238 119.823 109.04C119.741 108.842 119.699 108.63 119.699 108.416V80.874C119.699 80.4409 119.871 80.0256 120.178 79.7193C120.484 79.4131 120.899 79.2411 121.332 79.2411C121.765 79.2411 122.181 79.4131 122.487 79.7193C122.793 80.0256 122.965 80.4409 122.965 80.874V108.416C122.965 108.63 122.924 108.842 122.842 109.04C122.76 109.238 122.64 109.418 122.488 109.569C122.337 109.721 122.157 109.841 121.959 109.923C121.761 110.005 121.549 110.047 121.335 110.046ZM128.935 110.046C128.721 110.047 128.509 110.005 128.311 109.923C128.113 109.841 127.933 109.721 127.782 109.569C127.631 109.418 127.511 109.238 127.429 109.04C127.347 108.842 127.305 108.63 127.305 108.416V80.874C127.305 80.4417 127.477 80.0271 127.783 79.7214C128.088 79.4158 128.503 79.244 128.935 79.244H128.941C129.155 79.244 129.367 79.2862 129.565 79.3681C129.763 79.45 129.942 79.5701 130.094 79.7214C130.245 79.8728 130.365 80.0525 130.447 80.2502C130.529 80.448 130.571 80.6599 130.571 80.874V108.41C130.572 108.625 130.53 108.839 130.448 109.037C130.366 109.236 130.246 109.417 130.094 109.569C129.942 109.721 129.761 109.841 129.562 109.923C129.363 110.005 129.15 110.047 128.935 110.046ZM136.539 110.046C136.325 110.047 136.113 110.005 135.915 109.923C135.717 109.841 135.537 109.721 135.386 109.569C135.234 109.418 135.114 109.238 135.033 109.04C134.951 108.842 134.909 108.63 134.909 108.416V80.8779C134.909 80.6635 134.951 80.4511 135.032 80.2528C135.114 80.0545 135.234 79.8743 135.385 79.7224C135.537 79.5705 135.716 79.4499 135.914 79.3675C136.112 79.2851 136.325 79.2424 136.539 79.2421C136.753 79.2417 136.966 79.2835 137.164 79.3652C137.362 79.4469 137.543 79.5669 137.695 79.7182C137.846 79.8696 137.967 80.0494 138.049 80.2474C138.132 80.4453 138.174 80.6576 138.175 80.872V108.408C138.176 108.623 138.134 108.837 138.052 109.035C137.97 109.234 137.85 109.415 137.697 109.567C137.545 109.719 137.365 109.839 137.166 109.921C136.967 110.003 136.754 110.047 136.539 110.046ZM144.151 110.046C143.936 110.047 143.724 110.005 143.526 109.923C143.328 109.841 143.148 109.721 142.996 109.57C142.844 109.418 142.724 109.239 142.642 109.041C142.56 108.843 142.517 108.631 142.517 108.416V80.8779C142.517 80.4451 142.689 80.03 142.995 79.724C143.301 79.4179 143.716 79.246 144.149 79.246C144.582 79.246 144.997 79.4179 145.303 79.724C145.609 80.03 145.781 80.4451 145.781 80.8779V108.414C145.781 108.628 145.739 108.841 145.657 109.038C145.575 109.236 145.455 109.416 145.304 109.567C145.152 109.719 144.973 109.839 144.775 109.921C144.577 110.003 144.365 110.047 144.151 110.046ZM151.757 110.046C151.542 110.047 151.33 110.005 151.132 109.923C150.934 109.841 150.754 109.721 150.602 109.57C150.45 109.418 150.33 109.239 150.248 109.041C150.165 108.843 150.123 108.631 150.123 108.416V80.874C150.123 80.4412 150.295 80.0261 150.601 79.72C150.907 79.414 151.322 79.2421 151.755 79.2421C152.187 79.2421 152.602 79.414 152.909 79.72C153.215 80.0261 153.386 80.4412 153.386 80.874V108.416C153.387 108.63 153.345 108.842 153.263 109.04C153.181 109.238 153.061 109.418 152.91 109.569C152.758 109.721 152.578 109.841 152.381 109.923C152.183 110.005 151.971 110.047 151.757 110.046ZM159.362 110.046C159.148 110.047 158.935 110.005 158.737 109.923C158.539 109.842 158.358 109.722 158.207 109.57C158.055 109.419 157.934 109.239 157.852 109.041C157.769 108.843 157.727 108.631 157.727 108.416V80.874C157.727 80.6599 157.769 80.448 157.851 80.2502C157.932 80.0525 158.053 79.8728 158.204 79.7214C158.355 79.5701 158.535 79.45 158.733 79.3681C158.93 79.2862 159.142 79.244 159.356 79.244H159.362C159.795 79.244 160.209 79.4158 160.515 79.7214C160.821 80.0271 160.992 80.4417 160.992 80.874V108.416C160.993 108.63 160.951 108.842 160.869 109.04C160.787 109.238 160.667 109.418 160.515 109.569C160.364 109.721 160.184 109.841 159.986 109.923C159.789 110.005 159.576 110.047 159.362 110.046Z" fill="#CFCFCF"/>
<path d="M69.7639 99.3299V89.9763H72.2501L75.402 96.9596L78.5166 89.9763H80.9026V99.3299H78.8465V93.8921L76.4782 99.3299H74.2885L71.8907 93.9137V99.3299H69.7639ZM84.2253 99.3259H81.8177L85.9672 89.9684H88.9463L93.1194 99.3259H90.7334L89.9145 97.4564H85.0246L84.2253 99.3259ZM89.1643 95.7027L87.4401 91.7378L85.765 95.7027H89.1643ZM94.0836 99.3299V89.9763H103.021V91.8419H96.2458V93.6898H102.053V95.526H96.2458V97.4584H103.033V99.3299H94.0836ZM104.773 99.322V89.9704H112.255C112.465 89.9484 112.679 89.9735 112.878 90.0441C113.078 90.1146 113.26 90.2288 113.41 90.3783C113.56 90.5278 113.675 90.7088 113.747 90.9083C113.819 91.1078 113.845 91.3207 113.824 91.5316V94.6737C113.824 95.3964 113.186 96.0523 111.952 96.0523H111.736L113.908 99.322H111.512L109.439 96.1249H106.968V99.322H104.773ZM106.968 94.2593H111.662V91.8458H106.968V94.2593ZM117.765 99.3338H117.025C116.836 99.3565 116.644 99.337 116.464 99.2767C116.284 99.2163 116.119 99.1167 115.982 98.985C115.845 98.8533 115.739 98.6928 115.671 98.515C115.603 98.3373 115.576 98.1467 115.591 97.9572V96.7357H117.765V97.4643H122.384V95.5378H117.088C116.902 95.5518 116.716 95.5275 116.54 95.4663C116.364 95.4051 116.203 95.3084 116.066 95.1822C115.93 95.056 115.82 94.903 115.745 94.7328C115.67 94.5625 115.631 94.3786 115.63 94.1926V91.404C115.63 91.2125 115.668 91.023 115.743 90.8466C115.817 90.6703 115.926 90.5107 116.064 90.3775C116.201 90.2443 116.364 90.1401 116.543 90.0712C116.721 90.0022 116.912 89.97 117.103 89.9763H123.164C123.356 89.9744 123.546 90.0128 123.722 90.0889C123.898 90.1649 124.056 90.2771 124.187 90.418C124.317 90.559 124.416 90.7257 124.478 90.9073C124.54 91.0889 124.563 91.2815 124.546 91.4727V92.5862H122.386V91.8537H117.765V93.6957H123.052C123.251 93.6858 123.45 93.7179 123.637 93.7899C123.823 93.8618 123.992 93.9721 124.133 94.1135C124.273 94.255 124.383 94.4244 124.454 94.6109C124.526 94.7974 124.557 94.9967 124.546 95.1961V97.8609C124.568 98.0578 124.546 98.2571 124.481 98.4443C124.416 98.6315 124.31 98.8019 124.171 98.943C124.032 99.0841 123.863 99.1924 123.677 99.26C123.491 99.3276 123.292 99.3528 123.095 99.3338H117.765ZM126.632 99.3338V89.9763H128.845V93.7114L133.073 89.9763H136.08L131.035 94.3222L136.258 99.3338H133.152L128.845 95.0782V99.3338H126.632Z" fill="black"/>
<path d="M60.8111 102.845C60.8116 103.163 60.7494 103.478 60.6279 103.771C60.5065 104.065 60.3282 104.331 60.1034 104.556C59.8786 104.78 59.6116 104.958 59.3179 105.079C59.0241 105.2 58.7094 105.262 58.3917 105.261H43.1035C42.7855 105.262 42.4703 105.2 42.1761 105.08C41.8819 104.959 41.6145 104.781 41.3892 104.557C41.1638 104.332 40.985 104.066 40.863 103.772C40.741 103.478 40.6782 103.163 40.6782 102.845V86.4475C40.6798 85.8053 40.936 85.1899 41.3906 84.7363C41.8453 84.2828 42.4613 84.0281 43.1035 84.0281H58.3917C59.0334 84.0281 59.6488 84.283 60.1025 84.7367C60.5562 85.1904 60.8111 85.8058 60.8111 86.4475V102.845Z" fill="#00B2D9"/>
<path d="M53.9555 94.0987L57.9263 89.1204L57.9145 89.1028L52.1743 91.8697L50.7584 85.6523H50.7349L49.319 91.8697L43.5788 89.1028L43.567 89.1204L47.5378 94.0987L41.7976 96.8598L41.8035 96.8814H48.1701L46.7542 103.097L46.7699 103.109L50.7467 98.1244L54.7174 103.109L54.7351 103.097L53.3232 96.8814H59.6898L59.6957 96.8598L53.9555 94.0987Z" fill="white"/>
<path d="M126.047 71.2643L130.678 93.8262V97.8914C130.638 97.9808 130.617 98.0778 130.617 98.176C130.617 98.2741 130.638 98.3711 130.678 98.4605L134.334 106.835C134.464 107.112 134.682 107.338 134.954 107.478C135.226 107.618 135.537 107.663 135.837 107.607L137.015 107.404V98.6231L134.172 93.8669L132.344 71.183L134.172 64.1909L127.225 62.7274L126.047 69.435C125.925 70.0797 125.925 70.7416 126.047 71.3863" fill="#FFCCB4"/>
<path d="M150.583 183.382V125.778L138.152 129.437L144.936 182L150.583 183.382Z" fill="#E0AD98"/>
<path d="M150.584 183.381V125.777L164.071 121.752L156.23 181.998L150.584 183.381Z" fill="#FFCCB4"/>
<path d="M144.937 182.162L142.459 190.293C142.402 190.463 142.381 190.644 142.396 190.823C142.41 191.002 142.461 191.176 142.544 191.336C142.628 191.495 142.742 191.636 142.881 191.75C143.02 191.864 143.18 191.949 143.352 192H150.421V183.707L144.937 182.162ZM156.23 182.162L158.749 190.293C158.805 190.463 158.826 190.644 158.812 190.823C158.797 191.002 158.746 191.176 158.663 191.336C158.58 191.495 158.465 191.636 158.326 191.75C158.187 191.864 158.027 191.949 157.855 192H150.421V183.707L156.23 182.162Z" fill="#00243F"/>
<path d="M143.475 33.2536C142.21 33.2326 141.003 32.7205 140.109 31.8254C139.214 30.9303 138.702 29.7223 138.681 28.4566V17.4806C138.681 7.35823 141.931 4.26868 150.868 4.26868C159.805 4.26868 163.055 7.35823 163.055 17.4806V28.0908C163.133 29.3719 162.704 30.6323 161.86 31.5987C161.016 32.5651 159.825 33.1597 158.546 33.2536H143.475Z" fill="#BF6F4F"/>
<path d="M159.52 12.5199V25.4472C159.458 26.4531 159.187 27.435 158.726 28.3307C158.264 29.2264 157.622 30.0164 156.839 30.6507V33.9842L150.868 52.0743L144.896 34.2687V31.0572C143.436 29.7233 142.511 27.9022 142.296 25.9351V15.4062C143.637 16.3154 145.235 16.767 146.853 16.6938C148.47 16.6205 150.021 16.0263 151.274 14.9997C153.651 13.1773 156.616 12.2946 159.602 12.5199" fill="#FFCCB4"/>
<path d="M154.727 20.6112H155.337C155.437 20.6202 155.539 20.5977 155.626 20.5467C155.713 20.4957 155.783 20.4188 155.824 20.3266V19.5136C155.83 19.4569 155.824 19.3996 155.806 19.3455C155.788 19.2914 155.759 19.2416 155.721 19.1995C155.682 19.1573 155.636 19.1237 155.583 19.1007C155.531 19.0778 155.475 19.0661 155.418 19.0664H154.727C154.616 19.0659 154.508 19.1074 154.425 19.1827C154.342 19.258 154.291 19.3615 154.281 19.4729H154.484V20.3266C154.472 20.3831 154.472 20.4414 154.485 20.4977C154.498 20.554 154.522 20.607 154.556 20.6531C154.591 20.6993 154.635 20.7375 154.686 20.7653C154.736 20.7931 154.792 20.8099 154.849 20.8144M146.806 20.6112H147.415C147.51 20.6176 147.605 20.5935 147.685 20.5423C147.766 20.4911 147.828 20.4155 147.862 20.3266V19.5136C147.862 19.395 147.815 19.2812 147.731 19.1974C147.647 19.1135 147.534 19.0664 147.415 19.0664H146.806C146.687 19.0664 146.574 19.1135 146.49 19.1974C146.406 19.2812 146.359 19.395 146.359 19.5136V20.3266C146.359 20.456 146.41 20.5801 146.502 20.6716C146.593 20.7631 146.717 20.8144 146.847 20.8144" fill="#00243F"/>
<path d="M144.855 31.0575V34.2284L146.074 37.8464C148.394 37.9426 150.684 37.297 152.612 36.0033C154.54 34.7095 156.007 32.8348 156.799 30.651C152.98 34.1064 149.811 35.4479 144.855 31.0575Z" fill="#E0AD98"/>
<path d="M144.856 34.2283L143.962 46.7898L150.827 52.0745L157.205 46.7898L156.799 34.025L150.827 52.0745L144.856 34.2283Z" fill="white"/>
<path d="M136.69 58.5386L140.306 75.2466L135.066 87.7674C133.955 90.4097 133.563 93.2987 133.928 96.1417L144.328 179.682L156.839 179.356L167.442 95.3693C167.818 92.7568 167.553 90.0919 166.67 87.6048L162.202 75.0839L166.264 58.376L168.579 64.1485L177.313 60.9777L172.601 46.5462C172.163 45.1838 171.456 43.9237 170.52 42.8411C169.585 41.7585 168.441 40.8756 167.158 40.2452L161.552 37.3589L156.921 33.7815L150.949 41.0582L144.978 34.0661L140.915 36.871L136.203 38.985C134.515 39.7155 133.04 40.8637 131.917 42.3215C130.794 43.7793 130.061 45.4989 129.785 47.3186L127.428 62.4005L135.756 64.1079L136.69 58.5386Z" fill="#0074B0"/>
<path d="M156.149 98.1744L170.733 102.565C171.061 102.667 171.417 102.634 171.721 102.474C172.026 102.314 172.255 102.04 172.358 101.711L174.023 96.1824C174.104 95.8433 174.058 95.4862 173.893 95.1789C173.728 94.8717 173.457 94.6357 173.129 94.5157L158.546 90.1253C158.386 90.0693 158.216 90.0473 158.048 90.0607C157.879 90.074 157.715 90.1223 157.566 90.2027C157.417 90.283 157.286 90.3935 157.182 90.5271C157.078 90.6608 157.003 90.8147 156.962 90.979L155.337 96.5077C155.248 96.8417 155.291 97.1973 155.457 97.5003C155.624 97.8033 155.901 98.0302 156.23 98.1337" fill="#E2E2E2"/>
<path d="M162.608 92.6053L160.658 91.7922C160.499 91.7176 160.366 91.5955 160.279 91.4427C160.192 91.2898 160.154 91.1138 160.17 90.9385C160.181 90.7516 160.262 90.5758 160.398 90.4472C160.534 90.3187 160.714 90.2472 160.902 90.2475L165.533 89.7596L170.082 91.6703L167.523 98.3779C167.395 98.705 167.148 98.9711 166.831 99.1221C166.514 99.2731 166.151 99.2977 165.817 99.1909L162.933 98.2966C162.628 98.1944 162.371 97.9864 162.207 97.7104C162.043 97.4344 161.983 97.1087 162.039 96.7924L162.608 92.6053ZM170.204 91.5077L178.572 69.5149C178.978 68.3291 178.978 67.0421 178.572 65.8563L177.069 61.2626L170.123 63.7423L171.951 68.2141L165.573 89.6377L170.204 91.5077Z" fill="#FFCCB4"/>
<path d="M147.09 48.4977H140.874C140.314 48.4977 139.859 48.9527 139.859 49.514V56.1809C139.859 56.7422 140.314 57.1972 140.874 57.1972H147.09C147.651 57.1972 148.105 56.7422 148.105 56.1809V49.514C148.105 48.9527 147.651 48.4977 147.09 48.4977Z" fill="#00B2D9"/>
<path d="M142.662 52.6439L141.037 50.6519V50.5706L143.393 51.7089L144.002 49.2291L144.571 51.7089L146.927 50.5706V50.6519L145.343 52.6439L147.658 53.7415H145.018L145.627 56.3432L144.002 54.3106L142.377 56.3432L142.946 53.7415H140.306L142.662 52.6439Z" fill="white"/>
<path d="M139.859 13.7794H161.755C161.755 13.7794 161.186 17.2755 151.193 17.2755C141.199 17.2755 139.859 13.7794 139.859 13.7794Z" fill="#AAE1F8"/>
<path d="M148.553 0.853692V0H153.265V0.853692C155.908 0.90711 158.423 2.00664 160.258 3.91148C162.093 5.81633 163.099 8.37124 163.055 11.0167C163.095 11.4358 163.095 11.8578 163.055 12.2769V13.781H138.681V12.1956C138.925 4.95955 142.012 1.50412 148.553 0.853692Z" fill="#00B2D9"/>
<path d="M148.553 0.85498V9.63581L146.603 1.30215C147.233 1.09551 147.89 0.985852 148.553 0.976937" fill="#0074B0"/>
<path d="M74.2383 49.3594H33.9614C33.9614 44.2241 35.7261 42.164 42.7853 42.164H49.0716C49.0716 34.8408 51.5877 31.9031 61.6549 31.9031C69.4982 31.9031 71.4593 34.1924 71.4593 39.8978C80.7413 39.8978 83.0621 42.6074 83.0621 49.3594H68.0099" fill="white"/>
<path d="M98.0311 24.1923C108.976 24.1923 111.713 27.3874 111.713 35.3489H23.3545C23.3545 29.256 25.4484 26.8112 33.8242 26.8112H55.5663C55.5663 22.5276 57.0388 20.8084 62.9278 20.8084H67.3706C67.3706 13.0948 70.0218 9.99988 80.6255 9.99988C94.5496 9.99988 98.0311 14.0637 98.0311 24.1923Z" fill="#C2DEEC"/>
</svg>
